<svg width="111" height="122" viewBox="0 0 111 122" fill="none" xmlns="http://www.w3.org/2000/svg">
<path d="M83.0886 4.19287H32.5162C17.5511 4.19287 5.41943 16.3245 5.41943 31.2896V92.0961C5.41943 107.061 17.5511 119.193 32.5162 119.193H83.0886C98.0537 119.193 110.185 107.061 110.185 92.0961V31.2896C110.185 16.3245 98.0537 4.19287 83.0886 4.19287Z" fill="url(#paint0_linear_106_11493)"/>
<path d="M83.0885 6.01874H32.5315C18.5663 6.01874 7.2453 17.3398 7.2453 31.3049V92.0961C7.2453 106.061 18.5663 117.382 32.5315 117.382H83.0885C97.0537 117.382 108.375 106.061 108.375 92.0961V31.3049C108.375 17.3398 97.0537 6.01874 83.0885 6.01874Z" fill="url(#paint1_linear_106_11493)"/>
<path d="M83.0886 117.367H32.5315C25.8252 117.367 19.3936 114.703 14.6515 109.961C9.90941 105.219 7.24532 98.7871 7.24532 92.0807V31.2896C7.24056 27.5212 8.08019 23.7996 9.70252 20.3982C11.3249 16.9969 13.6887 14.0023 16.6202 11.6345C15.8837 11.5424 102.682 108.053 102.682 108.053C100.314 110.965 97.3266 113.312 93.9371 114.923C90.5476 116.534 86.8415 117.369 83.0886 117.367Z" fill="url(#paint2_linear_106_11493)"/>
<path d="M33.9431 28.7425C33.9336 28.6577 33.9074 28.5755 33.8659 28.5009C33.8243 28.4263 33.7684 28.3606 33.7013 28.3078C33.6342 28.255 33.5573 28.216 33.475 28.1932C33.3927 28.1704 33.3067 28.1641 33.222 28.1748C33.0533 28.1576 32.8846 28.2075 32.7525 28.3137C32.6204 28.42 32.5355 28.5741 32.5162 28.7425C32.5355 28.9121 32.6199 29.0676 32.7515 29.1764C32.8831 29.2851 33.0518 29.3386 33.222 29.3256C33.3947 29.3428 33.5673 29.2913 33.7023 29.1821C33.8373 29.073 33.9238 28.915 33.9431 28.7425Z" fill="white"/>
<path d="M81.7229 84.1942C94.417 84.1942 104.708 73.9036 104.708 61.2095C104.708 48.5154 94.417 38.2249 81.7229 38.2249C69.0289 38.2249 58.7383 48.5154 58.7383 61.2095C58.7383 73.9036 69.0289 84.1942 81.7229 84.1942Z" fill="url(#paint3_linear_106_11493)"/>
<path d="M81.7229 82.1381C93.2815 82.1381 102.652 72.7681 102.652 61.2095C102.652 49.6509 93.2815 40.2809 81.7229 40.2809C70.1644 40.2809 60.7943 49.6509 60.7943 61.2095C60.7943 72.7681 70.1644 82.1381 81.7229 82.1381Z" fill="url(#paint4_linear_106_11493)"/>
<path d="M95.601 74.0897C102.72 66.4531 102.3 54.4916 94.6634 47.3729C87.0269 40.2542 75.0653 40.674 67.9466 48.3105C60.8279 55.9471 61.2477 67.9086 68.8842 75.0274C76.5208 82.1461 88.4823 81.7263 95.601 74.0897Z" fill="url(#paint5_linear_106_11493)"/>
<path d="M93.8148 74.8761C101.359 68.1971 102.06 56.6673 95.3808 49.1234C88.7019 41.5796 77.1721 40.8784 69.6282 47.5574C62.0844 54.2363 61.3832 65.7661 68.0621 73.31C74.7411 80.8538 86.2709 81.555 93.8148 74.8761Z" fill="url(#paint6_linear_106_11493)"/>
<path d="M81.723 71.4284C87.3667 71.4284 91.9418 66.8532 91.9418 61.2095C91.9418 55.5658 87.3667 50.9907 81.723 50.9907C76.0793 50.9907 71.5042 55.5658 71.5042 61.2095C71.5042 66.8532 76.0793 71.4284 81.723 71.4284Z" fill="url(#paint7_linear_106_11493)"/>
<path d="M85.6816 61.7159C85.8417 61.6601 85.9733 61.5434 86.048 61.3912C86.1227 61.239 86.1344 61.0635 86.0805 60.9027C86.054 60.7346 85.965 60.5827 85.8312 60.4774C85.6975 60.3721 85.529 60.3213 85.3594 60.335C85.1981 60.394 85.0663 60.5136 84.9918 60.6683C84.9173 60.823 84.906 61.0007 84.9604 61.1635C84.9833 61.3322 85.072 61.4849 85.2071 61.5884C85.3422 61.6918 85.5128 61.7377 85.6816 61.7159Z" fill="white"/>
<path d="M87.2466 98.7706C87.2426 97.4507 86.7154 96.1862 85.7807 95.2544C84.8459 94.3225 83.5799 93.7992 82.26 93.7993C80.9415 93.7993 79.677 94.323 78.7447 95.2553C77.8124 96.1876 77.2887 97.4521 77.2887 98.7706C77.2866 99.4247 77.4137 100.073 77.6626 100.678C77.9116 101.283 78.2774 101.833 78.7393 102.296C79.2011 102.759 79.7498 103.127 80.354 103.377C80.9581 103.628 81.6058 103.757 82.26 103.757C83.5825 103.757 84.8509 103.232 85.7861 102.297C86.7212 101.361 87.2466 100.093 87.2466 98.7706Z" fill="url(#paint8_linear_106_11493)"/>
<path d="M86.0958 98.7706C86.0918 97.7559 85.6859 96.7842 84.9669 96.0681C84.248 95.352 83.2746 94.95 82.26 94.95C81.7582 94.95 81.2614 95.0488 80.7979 95.2408C80.3344 95.4328 79.9132 95.7143 79.5584 96.069C79.2036 96.4238 78.9222 96.845 78.7302 97.3085C78.5382 97.772 78.4394 98.2688 78.4394 98.7706C78.4374 99.2736 78.5347 99.772 78.7258 100.237C78.9169 100.703 79.198 101.126 79.553 101.482C79.908 101.838 80.3298 102.121 80.7943 102.314C81.2589 102.507 81.7569 102.606 82.26 102.606C83.2773 102.606 84.253 102.202 84.9724 101.483C85.6917 100.764 86.0958 99.7879 86.0958 98.7706Z" fill="#262227"/>
<path d="M86.0652 98.3256C86.0502 98.1431 86.0141 97.9629 85.9578 97.7886C85.9654 97.8959 85.9654 98.0036 85.9578 98.1108H85.7583C85.7583 97.9727 85.7583 97.8346 85.7583 97.6965H85.9578V97.5431H85.8043V97.1442L85.6662 96.8833V96.9754H85.3747C85.3747 96.8373 85.3747 96.7146 85.3747 96.5765H85.4975L85.3901 96.423L85.2519 96.2696C85.2519 96.2696 85.2519 96.377 85.2519 96.4384H84.8837C84.8837 96.3156 84.8837 96.1929 84.8837 96.0855H85.0525L84.8991 95.932L84.7303 95.8093C84.7356 95.85 84.7356 95.8913 84.7303 95.932H84.3313C84.3313 95.8246 84.3313 95.7172 84.3313 95.6252H84.4234L84.1472 95.4871H83.733V95.3336H83.5795C83.5883 95.3947 83.5883 95.4567 83.5795 95.5178H82.8891C82.8924 95.4513 82.8924 95.3847 82.8891 95.3183H83.2113L82.7356 95.2416H82.352H82.2139H81.815L81.3547 95.3183H81.6616C81.6668 95.3847 81.6668 95.4514 81.6616 95.5178H81.2473C81.2473 95.5178 81.2473 95.3797 81.2473 95.3336H81.0939V95.4871H80.6949L80.4341 95.6252H80.5262C80.5262 95.7172 80.5261 95.8246 80.4494 95.932H80.0505C80.0592 95.8916 80.0592 95.8497 80.0505 95.8093L79.8971 95.932L79.7436 96.0855H79.9124C79.9124 96.1929 79.9124 96.3156 79.8357 96.4384H79.4674C79.4734 96.3823 79.4734 96.3257 79.4674 96.2696L79.3293 96.423L79.2066 96.5765H79.3293V96.9754H79.0225V96.8833L78.8844 97.1442C78.8768 97.277 78.8768 97.4102 78.8844 97.5431H78.7156C78.7156 97.5431 78.7156 97.6505 78.7156 97.6965H78.8997C78.8997 97.8346 78.8997 97.9727 78.8997 98.1108H78.6849C78.6925 98.0036 78.6925 97.8959 78.6849 97.7886L78.5928 98.2642C78.5852 98.3971 78.5852 98.5303 78.5928 98.6632V98.8013C78.5855 98.9342 78.5855 99.0673 78.5928 99.2002L78.6849 99.6759C78.6925 99.5686 78.6925 99.4609 78.6849 99.3537H78.8997C78.8997 99.4917 78.8997 99.6298 78.8997 99.7679H78.7156C78.7156 99.7679 78.7156 99.86 78.7156 99.9214H78.8844C78.8768 100.059 78.8768 100.198 78.8844 100.336L79.0225 100.596V100.504L79.3293 100.581V100.98H79.2066L79.3293 101.149L79.4674 101.302C79.4747 101.246 79.4747 101.19 79.4674 101.133L79.8357 101.21C79.8357 101.333 79.8357 101.456 79.9124 101.563H79.7436L79.8971 101.717L80.0505 101.824C80.0558 101.783 80.0558 101.742 80.0505 101.701H80.4494C80.4494 101.809 80.4494 101.916 80.5262 102.008H80.4341L80.6949 102.146H81.0939V102.3H81.2473V102.1H81.6616C81.6668 102.167 81.6668 102.233 81.6616 102.3H81.3547C81.5048 102.345 81.659 102.376 81.815 102.392H82.2139H82.352H82.7356C82.8969 102.377 83.0563 102.346 83.2113 102.3H82.8891C82.8924 102.233 82.8924 102.167 82.8891 102.1H83.3033C83.312 102.166 83.312 102.233 83.3033 102.3H83.4568V102.146H83.871L84.1472 102.008H84.0552C84.0552 101.916 84.0552 101.809 84.0552 101.701H84.4541C84.4628 101.742 84.4628 101.784 84.4541 101.824L84.6229 101.717L84.7763 101.563H84.6075C84.6075 101.456 84.6075 101.333 84.6075 101.21L84.9758 101.133C84.9758 101.133 84.9758 101.241 84.9758 101.302L85.1139 101.149L85.2213 100.98H85.0985C85.0985 100.842 85.0985 100.719 85.0985 100.581L85.3901 100.504V100.596L85.5281 100.336V99.9214H85.6816V99.7679H85.4821C85.4821 99.6298 85.4821 99.4917 85.4821 99.3537H85.6816C85.6892 99.4609 85.6892 99.5686 85.6816 99.6759C85.7284 99.5208 85.7592 99.3615 85.7736 99.2002V98.8013V98.6632V98.2642L86.0652 98.3256ZM85.6969 98.1108H85.4054C85.4054 97.9727 85.4054 97.8193 85.4054 97.6812C85.5023 97.6719 85.6 97.6719 85.6969 97.6812C85.6816 97.7886 85.6816 97.9727 85.6969 98.1108ZM84.9297 98.6939C84.9297 98.5404 84.9297 98.3717 84.9297 98.2182H85.298C85.298 98.3717 85.298 98.5251 85.298 98.6785L84.9297 98.6939ZM84.1933 98.0187H83.7176C83.7176 97.85 83.7176 97.6965 83.7176 97.5278H84.1779C84.1779 97.6965 84.1779 97.7886 84.1933 98.0187ZM84.3313 97.5431H84.7456C84.7456 97.6965 84.7456 97.85 84.7456 98.0187H84.316C84.4234 97.8653 84.3313 97.6965 84.3313 97.5431ZM83.0578 98.6939C83.0578 98.5097 83.0578 98.341 83.0578 98.1722H83.5642V98.6939H83.0578ZM82.1679 98.6939H81.6616V98.1875H82.1679V98.6939ZM82.1679 98.878V99.323H81.6616V98.8013L82.1679 98.878ZM82.352 98.878H82.8737V99.323H82.352V98.878ZM82.352 98.6939V98.1875H82.8737V98.6939H82.352ZM83.0425 98.0034V97.5124H83.5335C83.5335 97.6659 83.5335 97.8346 83.5335 98.0034H83.0425ZM82.8737 98.0034H82.352V97.4971H82.8584C82.889 97.6505 82.8891 97.7886 82.8891 97.9881L82.8737 98.0034ZM82.352 97.3283V96.8526H82.843C82.843 97.0061 82.843 97.1595 82.843 97.313L82.352 97.3283ZM82.1679 97.3283H81.6616C81.6616 97.1749 81.6616 97.0214 81.6616 96.868H82.1679C82.1679 96.9907 82.1679 97.1595 82.1679 97.313V97.3283ZM82.1679 97.4971V98.0034H81.6616V97.5124L82.1679 97.4971ZM81.4774 98.0034H80.9864C80.9864 97.8346 80.9864 97.6659 80.9864 97.5124H81.4774C81.4774 97.6505 81.4774 97.7886 81.4774 97.9881V98.0034ZM81.4774 98.1875V98.7092H80.9711V98.1875H81.4774ZM80.8023 98.7092H80.3267C80.3267 98.5404 80.3267 98.3717 80.3267 98.2029H80.787L80.8023 98.7092ZM80.8023 98.878V99.323H80.342C80.342 99.1542 80.342 98.9854 80.342 98.8166L80.8023 98.878ZM80.9711 98.878H81.4774V99.323H80.9711V98.878ZM81.4774 99.5838C81.4774 99.7526 81.4774 99.906 81.4774 100.075H80.9864C80.9864 99.9214 80.9864 99.7526 80.9864 99.5838H81.4774ZM81.6616 99.5838H82.1679V100.09H81.6616V99.5838ZM82.1679 100.259C82.1679 100.412 82.1679 100.581 82.1679 100.735H81.6616C81.6616 100.581 81.6616 100.428 81.6616 100.259H82.1679ZM82.352 100.259H82.8584C82.8584 100.428 82.8584 100.581 82.8584 100.735H82.3674L82.352 100.259ZM82.352 100.09V99.5838H82.8737C82.8737 99.7526 82.8737 99.9214 82.8737 100.075L82.352 100.09ZM83.0425 99.5838H83.5488C83.5488 99.7526 83.5488 99.9214 83.5488 100.075H83.0578L83.0425 99.5838ZM83.0425 99.3997C83.0425 99.2309 83.0425 99.0621 83.0425 98.878H83.5335V99.323L83.0425 99.3997ZM83.733 98.878H84.1933V99.323H83.7176C83.7176 99.2002 83.733 99.0314 83.733 98.8626V98.878ZM83.733 98.7092C83.733 98.5404 83.733 98.3717 83.733 98.2029H84.2086V98.7092H83.733ZM83.733 97.359C83.733 97.2055 83.733 97.0521 83.733 96.8987H84.1933C84.1933 97.0521 84.1933 97.1902 84.1933 97.359H83.733ZM83.5642 97.359H83.0732C83.0732 97.1902 83.0732 97.0368 83.0732 96.8833H83.5488C83.5181 97.0214 83.5181 97.1749 83.5335 97.3436L83.5642 97.359ZM83.0425 96.7146C83.0425 96.5611 83.0425 96.423 83.0425 96.2849H83.5181C83.5181 96.423 83.5181 96.5611 83.5181 96.7146H83.0425ZM82.8737 96.7146H82.3827V96.2542H82.8584C82.889 96.3923 82.8891 96.5458 82.8891 96.6839L82.8737 96.7146ZM82.2139 96.7146H81.7076C81.715 96.5766 81.715 96.4383 81.7076 96.3003H82.1986L82.2139 96.7146ZM81.5388 96.7146H81.0632C81.0632 96.5611 81.0632 96.423 81.0632 96.2849H81.5235C81.5252 96.4232 81.5201 96.5614 81.5081 96.6992L81.5388 96.7146ZM81.5388 96.868C81.5388 97.0214 81.5388 97.1749 81.5388 97.3436H81.0478C81.0478 97.1749 81.0478 97.0214 81.0478 96.868H81.5388ZM80.8637 97.359H80.4034C80.3953 97.2057 80.3953 97.052 80.4034 96.8987H80.8484C80.8484 97.0368 80.833 97.1902 80.833 97.3436L80.8637 97.359ZM80.8637 97.5278C80.8637 97.6965 80.8637 97.85 80.8637 98.0187H80.4034C80.4034 97.85 80.4034 97.6965 80.4034 97.5431L80.8637 97.5278ZM80.2193 98.0341H79.805C79.805 97.8653 79.805 97.7119 79.805 97.5585H80.2346C80.1886 97.6965 80.1886 97.8653 80.1732 98.0187L80.2193 98.0341ZM80.2193 98.2182V98.7092H79.8203V98.2336L80.2193 98.2182ZM80.2193 98.878V99.323H79.8203V98.8473L80.2193 98.878ZM80.2193 99.5378C80.2193 99.7065 80.2193 99.86 80.2193 100.029H79.7896C79.7896 99.8753 79.7896 99.7065 79.7896 99.5531L80.2193 99.5378ZM80.388 99.5378H80.8484C80.8484 99.7065 80.8484 99.86 80.8484 100.029H80.388C80.3574 99.86 80.342 99.6912 80.342 99.5378H80.388ZM80.879 100.213C80.879 100.366 80.879 100.52 80.879 100.673H80.4341C80.4341 100.52 80.4341 100.366 80.4341 100.213H80.879ZM81.0478 100.213H81.5388C81.5388 100.382 81.5388 100.535 81.5388 100.689H81.0478C81.0171 100.535 81.0018 100.382 81.0018 100.213H81.0478ZM81.5542 100.857C81.5615 101 81.5615 101.144 81.5542 101.287H81.0939C81.0939 101.164 81.0939 101.026 81.0939 100.873L81.5542 100.857ZM81.7229 100.857H82.2293V101.287H81.7383C81.7253 101.143 81.7048 100.999 81.6769 100.857H81.7229ZM82.398 100.857H82.8891C82.8891 101.011 82.8891 101.149 82.8891 101.287H82.4134L82.398 100.857ZM83.0578 100.857H83.5488C83.5488 101.011 83.5488 101.149 83.5488 101.272H83.0732C82.9964 101.149 83.0118 101.011 83.0118 100.857H83.0578ZM83.0578 100.704C83.0578 100.55 83.0578 100.397 83.0578 100.228H83.5488C83.5488 100.397 83.5488 100.55 83.5488 100.704H83.0578ZM83.733 100.213H84.1933C84.1933 100.366 84.1933 100.52 84.1933 100.673H83.733C83.6869 100.52 83.6869 100.366 83.7023 100.213H83.733ZM83.733 100.044C83.733 99.8753 83.733 99.7219 83.733 99.5531H84.2086C84.2086 99.7065 84.2086 99.8753 84.2086 100.029L83.733 100.044ZM84.3774 99.5224H84.807C84.807 99.6759 84.807 99.8446 84.807 99.9981H84.3927C84.3313 99.8446 84.4234 99.6912 84.4234 99.5224H84.3774ZM84.3774 99.3537C84.3774 99.2002 84.3774 99.0314 84.3774 98.8626H84.807C84.807 99.0161 84.807 99.1849 84.807 99.3383L84.3774 99.3537ZM84.3774 98.6939C84.3774 98.5251 84.3774 98.3563 84.3774 98.2029H84.807C84.807 98.3563 84.807 98.5098 84.807 98.6785L84.3774 98.6939ZM84.9297 98.0494C84.9297 97.896 84.9297 97.7426 84.9297 97.5891H85.298C85.3062 97.7373 85.3062 97.8859 85.298 98.0341L84.9297 98.0494ZM84.9297 97.4203V96.9907H85.298V97.4203H84.9297ZM84.7917 97.4203H84.362C84.362 97.2669 84.362 97.1135 84.362 96.9754H84.7763L84.7917 97.4203ZM84.316 96.7759V96.3463H84.7303C84.7303 96.4844 84.7303 96.6071 84.7303 96.7606L84.316 96.7759ZM84.1626 96.7759H83.7023C83.7104 96.6328 83.7104 96.4894 83.7023 96.3463H84.1472L84.1626 96.7759ZM83.6562 96.1775C83.6562 96.0394 83.6562 95.932 83.6562 95.8093H84.0858C84.0945 95.9268 84.0945 96.0447 84.0858 96.1622L83.6562 96.1775ZM83.5028 96.1775H83.0425C83.0361 96.0549 83.0361 95.932 83.0425 95.8093H83.4874L83.5028 96.1775ZM82.8737 96.1775H82.398V95.8093H82.843C82.8891 95.8707 82.8891 95.9934 82.8891 96.1162L82.8737 96.1775ZM82.3827 95.6865V95.395H82.8123C82.8123 95.4717 82.8123 95.5791 82.8123 95.6865H82.3827ZM82.2293 95.6865H81.7843C81.7843 95.5791 81.7843 95.4717 81.7843 95.395H82.2139L82.2293 95.6865ZM82.2293 95.8093V96.1775H81.7536C81.7536 96.0548 81.7536 95.932 81.7536 95.8093H82.2293ZM81.5848 96.1929H81.1246C81.1246 96.0701 81.1246 95.9474 81.1246 95.8246H81.5848C81.5633 95.9259 81.5479 96.0284 81.5388 96.1315L81.5848 96.1929ZM80.9558 96.1929H80.5262V95.84H80.9558C80.9404 95.9167 80.9251 96.0241 80.9097 96.1622L80.9558 96.1929ZM80.9558 96.331C80.9558 96.4691 80.9558 96.6071 80.9558 96.7606H80.5108C80.502 96.6226 80.502 96.4843 80.5108 96.3463L80.9558 96.331ZM80.3113 96.8066H79.8971C79.8885 96.6687 79.8885 96.5303 79.8971 96.3923H80.3113C80.284 96.519 80.2635 96.6471 80.25 96.7759L80.3113 96.8066ZM80.3113 96.9601V97.405H79.8971C79.8971 97.2516 79.8971 97.0982 79.8971 96.9601H80.3113ZM79.7129 97.451H79.3447C79.3447 97.3129 79.3447 97.1749 79.3447 97.0214H79.7129C79.6858 97.1533 79.6654 97.2864 79.6516 97.4203L79.7129 97.451ZM79.7129 97.6198C79.7129 97.7733 79.7129 97.9267 79.7129 98.0801H79.3447C79.3447 97.9267 79.3447 97.7732 79.3447 97.6352L79.7129 97.6198ZM79.7129 98.2489V98.7246H79.3447V98.2642L79.7129 98.2489ZM79.2219 98.7246H78.9304V98.2949H79.2373C79.1899 98.4259 79.149 98.559 79.1145 98.6939L79.2219 98.7246ZM79.2219 98.8933C79.2143 99.0416 79.2143 99.1901 79.2219 99.3383H78.9151V98.8933H79.2219ZM79.3447 98.8933H79.7129V99.323H79.3447V98.8933ZM79.7283 99.5378C79.7283 99.6912 79.7283 99.8446 79.7283 99.9981H79.36C79.36 99.86 79.36 99.7065 79.36 99.5531L79.7283 99.5378ZM79.7283 100.151C79.7201 100.3 79.7201 100.448 79.7283 100.596H79.36C79.36 100.458 79.36 100.32 79.36 100.167L79.7283 100.151ZM79.8664 100.151H80.2807V100.596H79.851C79.8203 100.443 79.8203 100.29 79.8203 100.136L79.8664 100.151ZM80.3267 100.796C80.317 100.934 80.317 101.072 80.3267 101.21H79.9124C79.905 101.072 79.905 100.934 79.9124 100.796H80.3267ZM80.4955 100.796H80.9404C80.9404 100.949 80.9404 101.087 80.9404 101.226H80.4955C80.4628 101.104 80.4372 100.981 80.4187 100.857L80.4955 100.796ZM80.9864 101.394V101.763H80.5568C80.5568 101.66 80.5568 101.538 80.5568 101.394H80.9864ZM81.1552 101.394H81.6155C81.6066 101.517 81.6066 101.64 81.6155 101.763H81.1552C81.0938 101.655 81.0939 101.532 81.0785 101.41L81.1552 101.394ZM81.7843 101.394H82.26V101.763H81.7996C81.7229 101.686 81.7076 101.563 81.7076 101.425L81.7843 101.394ZM82.26 101.901V102.192H81.8303C81.8303 102.1 81.8303 102.008 81.8303 101.901H82.26ZM82.4134 101.901H82.8737C82.8737 102.008 82.8737 102.1 82.8737 102.192H82.4441L82.4134 101.901ZM82.4134 101.778V101.41H82.8891C82.8891 101.548 82.8891 101.671 82.8891 101.778H82.4134ZM83.0578 101.394H83.5181V101.763H83.0732C83.0421 101.651 83.0165 101.539 82.9965 101.425L83.0578 101.394ZM83.6716 101.394H84.1165C84.1264 101.517 84.1264 101.64 84.1165 101.763H83.6869L83.6716 101.394ZM83.6716 101.256C83.6797 101.113 83.6797 100.97 83.6716 100.827H84.1319V101.241L83.6716 101.256ZM84.316 100.781H84.7303V101.195H84.316V100.781ZM84.316 100.627C84.316 100.489 84.316 100.336 84.316 100.182H84.7456V100.627H84.316ZM84.9144 100.121H85.2826V100.55H84.9144V100.121ZM84.9144 99.9674C84.9144 99.8139 84.9144 99.6605 84.9144 99.5071H85.2826C85.2908 99.6553 85.2908 99.8038 85.2826 99.952L84.9144 99.9674ZM84.9144 99.3383C84.9144 99.1849 84.9144 99.0161 84.9144 98.8626H85.2826C85.2826 99.0161 85.2826 99.1695 85.2826 99.323L84.9144 99.3383ZM85.4054 98.8626H85.7123C85.7123 99.0161 85.7123 99.1542 85.7123 99.3076H85.4207L85.4054 98.8626ZM85.4054 98.6939V98.2489H85.6969C85.6969 98.4023 85.6969 98.5404 85.6969 98.6785L85.4054 98.6939ZM85.6202 97.1595V97.5738H85.3133C85.321 97.4358 85.321 97.2975 85.3133 97.1595H85.6202ZM85.1292 96.5304C85.1379 96.6633 85.1379 96.7965 85.1292 96.9294H84.761V96.5151L85.1292 96.5304ZM84.5462 95.932C84.5535 96.0547 84.5535 96.1776 84.5462 96.3003H84.1472C84.1472 96.1775 84.1472 96.0548 84.1472 95.9474L84.5462 95.932ZM83.9017 95.441C83.9017 95.5331 83.9017 95.6405 83.9785 95.7479H83.5488V95.4564L83.9017 95.441ZM83.3494 95.441C83.3494 95.5331 83.3494 95.6252 83.3494 95.7479H82.9044C82.9127 95.6509 82.9127 95.5534 82.9044 95.4564L83.3494 95.441ZM82.7356 95.1188C82.7356 95.1188 82.7356 95.2416 82.7356 95.3336H82.306V95.1342L82.7356 95.1188ZM81.7996 95.1188H82.1986C82.1986 95.1188 82.1986 95.2416 82.1986 95.3183H81.7843C81.7733 95.226 81.7785 95.1326 81.7996 95.0421V95.1188ZM81.6002 95.4257C81.6069 95.5228 81.6069 95.6202 81.6002 95.7172H81.1552C81.145 95.6152 81.145 95.5124 81.1552 95.4103L81.6002 95.4257ZM80.6182 95.4257H81.0325C81.0325 95.5178 81.0325 95.6098 81.0325 95.7172H80.6182C80.5722 95.6098 80.6029 95.5024 80.6182 95.4103V95.4257ZM79.9891 95.9167H80.388C80.3794 96.0342 80.3794 96.1521 80.388 96.2696H79.9738C79.9715 96.1466 79.9766 96.0237 79.9891 95.9013V95.9167ZM79.3907 96.5151H79.759C79.759 96.6532 79.759 96.7913 79.759 96.9294H79.3907C79.36 96.7606 79.3754 96.6225 79.3907 96.4997V96.5151ZM78.8997 97.1442H79.2066V97.5585H78.9151C78.9018 97.4157 78.8966 97.2722 78.8997 97.1288V97.1442ZM78.8997 97.7119C78.9967 97.7033 79.0943 97.7033 79.1912 97.7119C79.1912 97.85 79.1912 98.0034 79.1912 98.1415H78.8997C78.8383 97.9727 78.8537 97.7886 78.8537 97.6965L78.8997 97.7119ZM78.5775 98.3256H78.7923C78.7844 98.4687 78.7844 98.6122 78.7923 98.7553H78.5928L78.5775 98.3256ZM78.5775 99.2616V98.8626H78.777C78.7691 99.0057 78.7691 99.1492 78.777 99.2923L78.5775 99.2616ZM78.8844 99.4457H79.1759C79.1759 99.5991 79.1759 99.7526 79.1759 99.8907H78.8844C78.8537 99.7219 78.8384 99.5838 78.8384 99.4304L78.8844 99.4457ZM78.8844 100.443C78.8768 100.305 78.8768 100.167 78.8844 100.029H79.1759V100.458L78.8844 100.443ZM79.3754 101.072C79.3754 100.949 79.3754 100.811 79.3754 100.673H79.7436C79.7436 100.811 79.7436 100.949 79.7436 101.087L79.3754 101.072ZM79.9738 101.671C79.9407 101.549 79.9151 101.426 79.8971 101.302H80.3113C80.3015 101.425 80.3015 101.548 80.3113 101.671H79.9738ZM80.6029 102.162C80.6029 102.069 80.6029 101.962 80.6029 101.855H81.0171C81.0171 101.962 81.0171 102.054 81.0171 102.146L80.6029 102.162ZM81.1706 102.162C81.1619 102.059 81.1619 101.957 81.1706 101.855H81.6155C81.6223 101.952 81.6223 102.049 81.6155 102.146L81.1706 102.162ZM81.7843 102.468C81.7744 102.402 81.7744 102.335 81.7843 102.269H82.1986C82.1986 102.346 82.1986 102.407 82.1986 102.468H81.7843ZM82.7203 102.468H82.3213V102.392H82.751C82.751 102.392 82.7509 102.392 82.7356 102.499L82.7203 102.468ZM82.9044 102.177C82.9127 102.08 82.9127 101.982 82.9044 101.885H83.3494V102.192L82.9044 102.177ZM83.8864 102.177H83.4874V101.885H83.9171C83.9478 101.947 83.9324 102.054 83.9017 102.146L83.8864 102.177ZM84.5308 101.686H84.1319C84.1319 101.578 84.1319 101.456 84.1319 101.318H84.5308C84.5421 101.43 84.5472 101.542 84.5462 101.655L84.5308 101.686ZM85.1139 101.087L84.761 101.164V100.75H85.1292C85.1343 100.852 85.1343 100.955 85.1292 101.057L85.1139 101.087ZM85.6049 100.458H85.3133C85.3215 100.315 85.3215 100.172 85.3133 100.029H85.6202L85.6049 100.458ZM85.6049 99.8907H85.3133C85.3133 99.7526 85.3133 99.5991 85.3133 99.4457H85.6049C85.6816 99.5838 85.6816 99.7219 85.6662 99.86L85.6049 99.8907ZM85.9271 99.2769H85.7276V98.8473H85.9424C85.9578 98.9854 85.9578 99.1081 85.9578 99.323L85.9271 99.2769ZM85.9271 98.7399H85.7123V98.3103H85.9117C85.9578 98.433 85.9578 98.5711 85.9578 98.7092L85.9271 98.7399Z" fill="#898B8E"/>
<path d="M92.9084 22.2829C92.9084 19.4587 91.7866 16.7503 89.7896 14.7533C87.7926 12.7563 85.0842 11.6345 82.26 11.6345C79.4359 11.6345 76.7274 12.7563 74.7304 14.7533C72.7335 16.7503 71.6116 19.4587 71.6116 22.2829C71.6116 25.107 72.7335 27.8155 74.7304 29.8125C76.7274 31.8094 79.4359 32.9313 82.26 32.9313C85.0842 32.9313 87.7926 31.8094 89.7896 29.8125C91.7866 27.8155 92.9084 25.107 92.9084 22.2829Z" fill="url(#paint9_linear_106_11493)"/>
<path d="M91.4815 22.2829C91.4815 19.8413 90.5115 17.4997 88.7851 15.7732C87.0586 14.0467 84.717 13.0768 82.2753 13.0768C79.8337 13.0768 77.4921 14.0467 75.7656 15.7732C74.0391 17.4997 73.0692 19.8413 73.0692 22.2829C73.0692 24.7245 74.0391 27.0662 75.7656 28.7927C77.4921 30.5191 79.8337 31.4891 82.2753 31.4891C84.717 31.4891 87.0586 30.5191 88.7851 28.7927C90.5115 27.0662 91.4815 24.7245 91.4815 22.2829Z" fill="url(#paint10_radial_106_11493)"/>
<g style="mix-blend-mode:multiply" opacity="0.75">
<g style="mix-blend-mode:multiply" opacity="0.75">
<path d="M91.4815 22.2829C91.4815 19.8413 90.5115 17.4997 88.7851 15.7732C87.0586 14.0467 84.717 13.0768 82.2753 13.0768C79.8337 13.0768 77.4921 14.0467 75.7656 15.7732C74.0391 17.4997 73.0692 19.8413 73.0692 22.2829C73.0692 24.7245 74.0391 27.0662 75.7656 28.7927C77.4921 30.5191 79.8337 31.4891 82.2753 31.4891C84.717 31.4891 87.0586 30.5191 88.7851 28.7927C90.5115 27.0662 91.4815 24.7245 91.4815 22.2829Z" fill="#9B9B9B"/>
</g>
</g>
<path d="M48.7578 105.32C57.7339 96.3442 57.7339 81.7911 48.7578 72.815C39.7817 63.839 25.2287 63.839 16.2526 72.815C7.27654 81.7911 7.27654 96.3442 16.2526 105.32C25.2287 114.296 39.7817 114.296 48.7578 105.32Z" fill="url(#paint11_linear_106_11493)"/>
<path d="M32.5161 110.002C44.0747 110.002 53.4448 100.632 53.4448 89.0735C53.4448 77.5149 44.0747 68.1448 32.5161 68.1448C20.9576 68.1448 11.5875 77.5149 11.5875 89.0735C11.5875 100.632 20.9576 110.002 32.5161 110.002Z" fill="url(#paint12_linear_106_11493)"/>
<path d="M45.5288 102.757C53.0917 95.5604 53.3883 83.5952 46.1913 76.0323C38.9943 68.4695 27.0291 68.1729 19.4663 75.3698C11.9034 82.5668 11.6068 94.532 18.8038 102.095C26.0008 109.658 37.966 109.954 45.5288 102.757Z" fill="url(#paint13_linear_106_11493)"/>
<path d="M45.4053 101.968C52.5298 94.8432 52.5298 83.2921 45.4053 76.1675C38.2808 69.043 26.7296 69.043 19.6051 76.1675C12.4806 83.2921 12.4806 94.8432 19.6051 101.968C26.7296 109.092 38.2808 109.092 45.4053 101.968Z" fill="url(#paint14_linear_106_11493)"/>
<path d="M42.735 89.0581C42.7309 86.3505 41.6525 83.7553 39.7365 81.8422C37.8206 79.9291 35.2237 78.8546 32.5162 78.8546C29.8086 78.8546 27.2118 79.9291 25.2958 81.8422C23.3799 83.7553 22.3014 86.3505 22.2974 89.0581C22.2974 91.7683 23.374 94.3675 25.2904 96.2839C27.2068 98.2003 29.806 99.2769 32.5162 99.2769C35.2264 99.2769 37.8256 98.2003 39.742 96.2839C41.6584 94.3675 42.735 91.7683 42.735 89.0581Z" fill="url(#paint15_linear_106_11493)"/>
<path d="M28.5882 88.3983C28.5062 88.4228 28.4298 88.4634 28.3637 88.5178C28.2975 88.5721 28.2428 88.6391 28.2028 88.7148C28.1628 88.7905 28.1383 88.8734 28.1307 88.9587C28.1231 89.044 28.1326 89.13 28.1586 89.2115C28.178 89.3812 28.2623 89.5367 28.3939 89.6454C28.5256 89.7541 28.6942 89.8076 28.8644 89.7946C29.0278 89.7416 29.1641 89.627 29.2443 89.4752C29.3245 89.3233 29.3424 89.1462 29.294 88.9814C29.2747 88.8118 29.1903 88.6563 29.0587 88.5475C28.9271 88.4388 28.7585 88.3853 28.5882 88.3983Z" fill="white"/>
<path d="M31.3961 83.4884C29.9176 83.7847 28.617 84.6556 27.7799 85.9098C26.9428 87.164 26.6375 88.6991 26.9311 90.1782C27.0709 90.9178 27.3555 91.6225 27.7687 92.2517C28.1819 92.8808 28.7155 93.4221 29.3387 93.8442C29.9619 94.2663 30.6624 94.561 31.4 94.7113C32.1375 94.8616 32.8975 94.8645 33.6362 94.7199C35.1148 94.4236 36.4153 93.5528 37.2524 92.2985C38.0896 91.0443 38.3948 89.5092 38.1012 88.0301C37.9615 87.2905 37.6768 86.5858 37.2636 85.9566C36.8504 85.3275 36.3168 84.7862 35.6936 84.3641C35.0704 83.942 34.3699 83.6473 33.6323 83.497C32.8948 83.3467 32.1348 83.3438 31.3961 83.4884Z" fill="#262227"/>
<path d="M48.7671 48.7578C57.7431 39.7817 57.7431 25.2287 48.7671 16.2526C39.791 7.27652 25.2379 7.27652 16.2619 16.2526C7.28581 25.2287 7.28581 39.7817 16.2619 48.7578C25.2379 57.7339 39.791 57.7339 48.7671 48.7578Z" fill="url(#paint16_linear_106_11493)"/>
<path d="M47.3132 47.304C55.4864 39.1308 55.4864 25.8796 47.3132 17.7064C39.1401 9.53329 25.8888 9.53328 17.7157 17.7064C9.54257 25.8796 9.54257 39.1308 17.7157 47.304C25.8888 55.4771 39.1401 55.4771 47.3132 47.304Z" fill="url(#paint17_linear_106_11493)"/>
<path d="M45.5441 46.1982C53.107 39.0012 53.4036 27.036 46.2066 19.4731C39.0096 11.9102 27.0444 11.6137 19.4815 18.8106C11.9187 26.0076 11.6221 37.9728 18.8191 45.5357C26.016 53.0985 37.9812 53.3952 45.5441 46.1982Z" fill="url(#paint18_linear_106_11493)"/>
<path d="M45.4146 45.4053C52.5391 38.2808 52.5391 26.7296 45.4146 19.6051C38.2901 12.4806 26.7389 12.4806 19.6144 19.6051C12.4899 26.7296 12.4899 38.2808 19.6144 45.4053C26.7389 52.5298 38.2901 52.5298 45.4146 45.4053Z" fill="url(#paint19_linear_106_11493)"/>
<path d="M42.735 32.5017C42.735 29.7915 41.6584 27.1923 39.742 25.2759C37.8256 23.3595 35.2264 22.2829 32.5162 22.2829C29.806 22.2829 27.2068 23.3595 25.2904 25.2759C23.374 27.1923 22.2974 29.7915 22.2974 32.5017C22.2974 35.2119 23.374 37.8111 25.2904 39.7275C27.2068 41.6439 29.806 42.7205 32.5162 42.7205C35.2264 42.7205 37.8256 41.6439 39.742 39.7275C41.6584 37.8111 42.735 35.2119 42.735 32.5017Z" fill="url(#paint20_linear_106_11493)"/>
<path d="M38.2087 32.9313C38.2087 32.1838 38.0614 31.4436 37.7753 30.7529C37.4893 30.0623 37.07 29.4348 36.5414 28.9062C36.0128 28.3776 35.3852 27.9583 34.6946 27.6722C34.0039 27.3861 33.2637 27.2389 32.5162 27.2389C31.0064 27.2389 29.5585 27.8386 28.491 28.9062C27.4235 29.9737 26.8237 31.4216 26.8237 32.9313C26.8237 34.4411 27.4235 35.889 28.491 36.9565C29.5585 38.0241 31.0064 38.6238 32.5162 38.6238C33.2637 38.6238 34.0039 38.4766 34.6946 38.1905C35.3852 37.9044 36.0128 37.4851 36.5414 36.9565C37.07 36.4279 37.4893 35.8004 37.7753 35.1097C38.0614 34.4191 38.2087 33.6789 38.2087 32.9313Z" fill="#262227"/>
<path d="M83.0578 66.7486C84.5243 66.3956 85.7907 65.4751 86.5789 64.1891C87.3672 62.9032 87.6128 61.3569 87.262 59.89C87.0907 59.1615 86.7771 58.474 86.3392 57.8671C85.9013 57.2603 85.3477 56.746 84.7103 56.3538C84.0729 55.9617 83.3642 55.6994 82.6251 55.5821C81.8859 55.4649 81.1309 55.4949 80.4034 55.6705C78.937 56.0235 77.6706 56.944 76.8823 58.23C76.0941 59.5159 75.8484 61.0622 76.1993 62.5291C76.5525 63.9962 77.4724 65.2637 78.7577 66.0544C80.0429 66.8452 81.589 67.0947 83.0578 66.7486Z" fill="#262227"/>
<defs>
<linearGradient id="paint0_linear_106_11493" x1="91.8958" y1="27.5918" x2="22.2053" y2="97.2823" gradientUnits="userSpaceOnUse">
<stop stop-color="#EADCFA"/>
<stop offset="1" stop-color="#C0ADDB"/>
</linearGradient>
<linearGradient id="paint1_linear_106_11493" x1="14.4261" y1="121.249" x2="98.6622" y2="5.60447" gradientUnits="userSpaceOnUse">
<stop stop-color="#EADCFA"/>
<stop offset="1" stop-color="#C0ADDB"/>
</linearGradient>
<linearGradient id="paint2_linear_106_11493" x1="104.999" y1="14.4884" x2="40.1726" y2="79.3149" gradientUnits="userSpaceOnUse">
<stop offset="0.06" stop-color="white"/>
<stop offset="1" stop-color="white" stop-opacity="0"/>
</linearGradient>
<linearGradient id="paint3_linear_106_11493" x1="62.835" y1="80.1128" x2="99.4908" y2="43.457" gradientUnits="userSpaceOnUse">
<stop stop-color="#C0ADDB"/>
<stop offset="1" stop-color="#EADCFA"/>
</linearGradient>
<linearGradient id="paint4_linear_106_11493" x1="64.5228" y1="78.425" x2="97.895" y2="45.0374" gradientUnits="userSpaceOnUse">
<stop offset="0.08" stop-color="#262227"/>
<stop offset="1" stop-color="#48484B"/>
</linearGradient>
<linearGradient id="paint5_linear_106_11493" x1="66.2089" y1="76.7063" x2="96.3437" y2="46.5716" gradientUnits="userSpaceOnUse">
<stop stop-color="#48484B"/>
<stop offset="0.92" stop-color="#262227"/>
</linearGradient>
<linearGradient id="paint6_linear_106_11493" x1="66.721" y1="76.2366" x2="95.8124" y2="47.1298" gradientUnits="userSpaceOnUse">
<stop offset="0.08" stop-color="#262227"/>
<stop offset="1" stop-color="#48484B"/>
</linearGradient>
<linearGradient id="paint7_linear_106_11493" x1="73.33" y1="69.6178" x2="94.0438" y2="48.904" gradientUnits="userSpaceOnUse">
<stop stop-color="#48484B"/>
<stop offset="0.92" stop-color="#262227"/>
</linearGradient>
<linearGradient id="paint8_linear_106_11493" x1="78.1786" y1="102.867" x2="86.1112" y2="94.9347" gradientUnits="userSpaceOnUse">
<stop stop-color="#C0ADDB"/>
<stop offset="1" stop-color="#EADCFA"/>
</linearGradient>
<linearGradient id="paint9_linear_106_11493" x1="73.5142" y1="31.0441" x2="90.4841" y2="14.0587" gradientUnits="userSpaceOnUse">
<stop stop-color="#C0ADDB"/>
<stop offset="1" stop-color="#EADCFA"/>
</linearGradient>
<radialGradient id="paint10_radial_106_11493" cx="0" cy="0" r="1" gradientUnits="userSpaceOnUse" gradientTransform="translate(82.26 22.2829) scale(9.22148)">
<stop stop-color="#FEFEFE"/>
<stop offset="1" stop-color="#D1D2D4"/>
</radialGradient>
<linearGradient id="paint11_linear_106_11493" x1="13.6091" y1="107.97" x2="50.2649" y2="71.3142" gradientUnits="userSpaceOnUse">
<stop stop-color="#C0ADDB"/>
<stop offset="1" stop-color="#EADCFA"/>
</linearGradient>
<linearGradient id="paint12_linear_106_11493" x1="15.3007" y1="106.289" x2="48.6883" y2="72.9013" gradientUnits="userSpaceOnUse">
<stop offset="0.08" stop-color="#262227"/>
<stop offset="1" stop-color="#48484B"/>
</linearGradient>
<linearGradient id="paint13_linear_106_11493" x1="16.9772" y1="104.616" x2="47.0966" y2="74.4812" gradientUnits="userSpaceOnUse">
<stop stop-color="#48484B"/>
<stop offset="0.92" stop-color="#262227"/>
</linearGradient>
<linearGradient id="paint14_linear_106_11493" x1="17.5064" y1="104.073" x2="46.6132" y2="74.9813" gradientUnits="userSpaceOnUse">
<stop offset="0.08" stop-color="#262227"/>
<stop offset="1" stop-color="#48484B"/>
</linearGradient>
<linearGradient id="paint15_linear_106_11493" x1="24.1232" y1="97.4663" x2="44.8217" y2="76.7525" gradientUnits="userSpaceOnUse">
<stop stop-color="#48484B"/>
<stop offset="0.92" stop-color="#262227"/>
</linearGradient>
<linearGradient id="paint16_linear_106_11493" x1="13.6076" y1="51.4097" x2="50.2633" y2="14.754" gradientUnits="userSpaceOnUse">
<stop stop-color="#C0ADDB"/>
<stop offset="1" stop-color="#EADCFA"/>
</linearGradient>
<linearGradient id="paint17_linear_106_11493" x1="15.2953" y1="49.722" x2="48.6829" y2="16.3344" gradientUnits="userSpaceOnUse">
<stop offset="0.08" stop-color="#262227"/>
<stop offset="1" stop-color="#48484B"/>
</linearGradient>
<linearGradient id="paint18_linear_106_11493" x1="16.9905" y1="48.0546" x2="47.1099" y2="17.9198" gradientUnits="userSpaceOnUse">
<stop stop-color="#48484B"/>
<stop offset="0.92" stop-color="#262227"/>
</linearGradient>
<linearGradient id="paint19_linear_106_11493" x1="17.5048" y1="47.5125" x2="46.6116" y2="18.4057" gradientUnits="userSpaceOnUse">
<stop offset="0.08" stop-color="#262227"/>
<stop offset="1" stop-color="#48484B"/>
</linearGradient>
<linearGradient id="paint20_linear_106_11493" x1="24.1232" y1="40.8946" x2="44.8217" y2="20.1962" gradientUnits="userSpaceOnUse">
<stop stop-color="#48484B"/>
<stop offset="0.92" stop-color="#262227"/>
</linearGradient>
</defs>
</svg>
