<svg width="64" height="115" viewBox="0 0 64 115" fill="none" xmlns="http://www.w3.org/2000/svg">
<path d="M2.75726 85.9767L2.79217 93.3907C2.80411 97.6944 5.62665 101.99 11.2709 105.273C22.6472 111.89 41.1557 111.875 52.6063 105.258C58.3681 101.928 61.2459 97.5613 61.2335 93.2001L61.1986 85.7861C61.211 90.1468 58.3332 94.5138 52.5714 97.8435C41.1208 104.461 22.6123 104.478 11.2359 97.8594C5.5913 94.5761 2.7692 90.2804 2.75726 85.9767Z" fill="#FEBC1F"/>
<path d="M11.3986 73.8954C-0.0497591 80.5119 -0.138146 91.2424 11.236 97.8594C22.6101 104.476 41.1209 104.46 52.5715 97.8435C64.0221 91.2265 64.0822 80.5124 52.704 73.8954C41.3259 67.2784 22.8488 67.2784 11.3986 73.8954Z" fill="#FFDE9B"/>
<path d="M2.75708 72.7427L2.79199 80.1568C2.80392 84.4605 5.62647 88.7566 11.2707 92.0395C22.647 98.6565 41.1555 98.6406 52.6062 92.024C58.3679 88.6943 61.2457 84.3278 61.2333 79.9666L61.1984 72.5526C61.2108 76.9133 58.333 81.2803 52.5712 84.61C41.1206 91.2265 22.6121 91.2424 11.2358 84.6259C5.59112 81.3426 2.76901 77.0464 2.75708 72.7427Z" fill="#FEBC1F"/>
<path d="M11.3984 60.6615C-0.0521867 67.2785 -0.140132 78.009 11.2358 84.626C22.6117 91.243 41.1207 91.2266 52.5713 84.6101C64.0219 77.9935 64.082 67.279 52.7038 60.662C41.3257 54.045 22.8486 54.045 11.3984 60.6615Z" fill="#FFDE9B"/>
<path d="M2.75708 59.5094L2.79199 66.9234C2.80392 71.2271 5.62647 75.5229 11.2707 78.8062C22.647 85.4231 41.1555 85.4072 52.6062 78.7907C58.3679 75.4609 61.2457 71.0944 61.2333 66.7332L61.1984 59.3192C61.2108 63.6795 58.333 68.0469 52.5712 71.3766C41.1206 77.9932 22.6121 78.0113 11.2358 71.3921C5.59112 68.1088 2.76901 63.8131 2.75708 59.5094Z" fill="#FEBC1F"/>
<path d="M11.3984 47.4281C-0.0521867 54.0451 -0.140132 64.7756 11.2358 71.3921C22.6117 78.0087 41.1207 77.9932 52.5713 71.3766C64.0219 64.7601 64.082 54.0451 52.7038 47.4285C41.3257 40.812 22.8486 40.8115 11.3984 47.4281Z" fill="#FFDE9B"/>
<path d="M2.75726 46.276L2.79217 53.6901C2.80411 57.9938 5.62665 62.2895 11.2709 65.5728C22.6472 72.1898 41.1557 72.1738 52.6063 65.5569C58.3681 62.2271 61.2459 57.8606 61.2335 53.4994L61.1986 46.0854C61.211 50.4461 58.3332 54.8135 52.5714 58.1428C41.1208 64.7598 22.6123 64.7775 11.2359 58.1587C5.5913 54.8755 2.7692 50.5797 2.75726 46.276Z" fill="#FEBC1F"/>
<path d="M11.3985 34.1947C-0.0498812 40.8112 -0.138268 51.5417 11.2359 58.1587C22.61 64.7757 41.1207 64.7598 52.5713 58.1428C64.0219 51.5258 64.082 40.8117 52.7039 34.1947C41.3258 27.5777 22.8487 27.5777 11.3985 34.1947Z" fill="#FFDE9B"/>
<path d="M2.7572 33.0423L2.79211 40.4559C2.80404 44.7596 5.62659 49.0557 11.2708 52.339C22.6472 58.9556 41.1557 58.9396 52.6063 52.3231C58.368 48.9934 61.2458 44.6269 61.2334 40.2657L61.2003 32.8516C61.2127 37.2124 58.3349 41.5793 52.5731 44.9091C41.1225 51.526 22.614 51.5437 11.2377 44.925C5.59124 41.6417 2.76913 37.3455 2.7572 33.0423Z" fill="#FEBC1F"/>
<path d="M11.3986 20.9609C-0.0498202 27.5775 -0.138207 38.308 11.2359 44.9249C22.6101 51.5419 41.1208 51.526 52.5714 44.909C64.022 38.292 64.0821 27.5779 52.704 20.9609C41.3259 14.3439 22.8487 14.3439 11.3986 20.9609Z" fill="#FFDE9B"/>
<g opacity="0.3">
<path opacity="0.3" d="M5.0249 34.7207L5.04877 41.5726L5.12036 64.046L5.14422 75.7615L5.19239 85.2013L5.21625 96.6055C5.24012 99.6243 7.68172 102.787 11.9904 105.302C16.2771 107.77 21.9964 109.375 28.1002 109.854C29.1533 109.95 30.2068 109.998 31.282 110.022V41.8862C22.0901 41.8145 13.4011 39.6821 6.77049 35.8265C6.14959 35.4647 5.57509 35.1051 5.0249 34.7207Z" fill="#F3F1FC"/>
</g>
<g opacity="0.3">
<path opacity="0.3" d="M5.04889 41.574L5.12092 64.047L31.2839 92.2218V69.797L5.04889 41.574Z" fill="white"/>
<path opacity="0.3" d="M5.14435 75.7625L5.19252 85.2023L28.1003 109.855C29.1534 109.951 30.207 109.999 31.2822 110.023V103.913L5.14435 75.7625Z" fill="white"/>
</g>
<path d="M0 18.5632L0.255429 96.6149C0.270454 101.307 3.34887 105.999 9.49599 109.579C21.9223 116.797 42.0863 116.812 54.5878 109.593C60.8684 105.969 63.9936 101.202 63.9786 96.4495L63.7382 18.4256C63.7382 23.18 0.0150253 23.2552 0 18.5632ZM5.01845 34.7301C5.57438 35.1061 6.16037 35.467 6.76138 35.8129C13.4026 39.6778 22.1027 41.8133 31.2831 41.8885V110.015C24.0109 109.909 17.0091 108.21 11.9902 105.292C7.69295 102.781 5.2288 99.6226 5.21378 96.5998L5.01845 34.7301Z" fill="url(#paint0_linear_106_11460)"/>
<path d="M58.078 55.0194L49.2034 73.2334L57.1509 68.6408L44.5871 92.2218L50.3559 75.4241L44.0934 79.0427L48.5838 60.5058L58.078 55.0194Z" fill="white"/>
<path d="M20.0627 73.317C16.2392 73.317 13.1396 76.5831 13.1396 80.6107C13.1396 76.5831 10.04 73.317 6.21649 73.317C10.04 73.317 13.1396 70.0514 13.1396 66.0237C13.1396 70.0514 16.2392 73.317 20.0627 73.317Z" fill="#F8F9FE"/>
<path d="M9.41901 5.40047C-3.08954 12.6287 -3.11694 24.3266 9.25285 31.5225C21.6805 38.7513 41.8405 38.7623 54.3491 31.534C66.8196 24.3279 66.8855 12.6287 54.4578 5.40047C42.0875 -1.79463 21.8896 -1.80568 9.41901 5.40047Z" fill="#57B3FE"/>
<path d="M51.1638 13.2626L51.1174 17.4619C51.1094 20.3011 49.2445 23.1363 45.5196 25.3028C38.0096 29.6711 25.8271 29.6644 18.28 25.3028C14.4795 23.1054 12.5748 20.2211 12.5832 17.3412L12.6296 13.1418C12.6212 16.0222 15.3253 17.5464 19.1259 19.7434C26.673 24.1046 38.219 22.8431 45.7295 18.4748C49.454 16.3079 51.1554 16.1018 51.1638 13.2626Z" fill="#C9CEE2"/>
<path d="M45.4771 5.31164C53.0242 9.67284 53.064 16.7423 45.5655 21.1022C38.0555 25.4705 25.873 25.4638 18.3255 21.1022C10.7779 16.7405 10.7161 9.67284 18.2256 5.30722C25.7241 0.943368 37.9295 0.950446 45.4771 5.31164Z" fill="#F3F1FC"/>
<path d="M41.2113 9.63779L41.1892 14.1003C41.1852 15.4714 40.2846 16.8426 38.486 17.8869C34.8596 19.9959 28.9767 19.9928 25.3326 17.8869C23.4965 16.8254 22.5777 15.433 22.5817 14.0423L22.6038 9.57941C22.5998 10.97 24.2146 9.91733 26.0508 10.9784C29.6953 13.0843 34.7796 12.8158 38.406 10.7064C40.2046 9.66035 41.2077 11.0085 41.2113 9.63779Z" fill="#DEDFFB"/>
<path d="M38.4657 5.79808C42.1097 7.90393 42.1292 11.3177 38.5099 13.424C34.8905 15.5303 29.0006 15.5298 25.3561 13.424C21.7116 11.3181 21.6815 7.90437 25.3075 5.79499C28.9334 3.6856 34.8212 3.69224 38.4657 5.79808Z" fill="white"/>
<defs>
<linearGradient id="paint0_linear_106_11460" x1="31.9893" y1="18.4256" x2="31.9893" y2="115" gradientUnits="userSpaceOnUse">
<stop stop-color="#5094FF"/>
<stop offset="1" stop-color="#57B3FE"/>
</linearGradient>
</defs>
</svg>
