<svg width="32" height="29" viewBox="0 0 32 29" fill="none" xmlns="http://www.w3.org/2000/svg">
<path d="M27.9361 3.29443L4.06409 3.29443C1.95774 3.29443 0.250122 4.71745 0.250122 6.47274L0.250123 24.9885C0.250123 26.7438 1.95774 28.1669 4.06409 28.1669L27.9361 28.1669C30.0425 28.1669 31.7501 26.7438 31.7501 24.9885L31.7501 6.47274C31.7501 4.71735 30.0425 3.29443 27.9361 3.29443Z" fill="#EBF0F3"/>
<path d="M31.7501 9.26613L31.7501 5.41512C31.7501 3.65983 30.0425 2.23681 27.9361 2.23681L4.06409 2.23682C1.95774 2.23682 0.250122 3.65983 0.250122 5.41513L0.250122 9.26614L31.7501 9.26613Z" fill="#CE412D"/>
<path d="M31.7501 9.98461L31.7501 6.47274C31.7501 4.71744 30.0425 3.29443 27.9361 3.29443L4.06409 3.29443C1.95774 3.29443 0.250122 4.71745 0.250122 6.47274L0.250122 9.98461L31.7501 9.98461Z" fill="#E56353"/>
<path d="M6.4974 5.00146C5.76223 5.00146 5.16626 5.49811 5.16626 6.11075C5.16626 6.7234 5.76223 7.21995 6.4974 7.21995C7.23258 7.21995 7.82844 6.7233 7.82844 6.11075C7.82855 5.49811 7.23258 5.00146 6.4974 5.00146Z" fill="#D15241"/>
<path d="M6.49742 0.829102C6.10416 0.829102 5.78528 1.09484 5.78528 1.42255L5.78528 6.04627C5.78528 6.37407 6.10416 6.63971 6.49742 6.63971C6.89067 6.63971 7.20955 6.37407 7.20955 6.04627L7.20955 1.42255C7.20955 1.09484 6.89078 0.829102 6.49742 0.829102V0.829102Z" fill="#4D5C7D"/>
<path d="M12.8325 5.00146C12.0973 5.00146 11.5013 5.49811 11.5013 6.11075C11.5013 6.7234 12.0973 7.21995 12.8325 7.21995C13.5677 7.21995 14.1635 6.7233 14.1635 6.11075C14.1636 5.49811 13.5677 5.00146 12.8325 5.00146Z" fill="#D15241"/>
<path d="M12.8325 0.829102C12.4392 0.829102 12.1204 1.09484 12.1204 1.42255L12.1204 6.04627C12.1204 6.37407 12.4392 6.63971 12.8325 6.63971C13.2258 6.63971 13.5446 6.37407 13.5446 6.04627L13.5446 1.42255C13.5446 1.09484 13.2258 0.829102 12.8325 0.829102V0.829102Z" fill="#4D5C7D"/>
<path d="M19.1676 5.00146C18.4324 5.00146 17.8364 5.49811 17.8364 6.11075C17.8364 6.7234 18.4324 7.21995 19.1676 7.21995C19.9027 7.21995 20.4986 6.7233 20.4986 6.11075C20.4986 5.49811 19.9027 5.00146 19.1676 5.00146Z" fill="#D15241"/>
<path d="M19.1676 0.829102C18.7743 0.829102 18.4554 1.09484 18.4554 1.42255L18.4554 6.04627C18.4554 6.37407 18.7743 6.63971 19.1676 6.63971C19.5608 6.63971 19.8797 6.37407 19.8797 6.04627L19.8797 1.42255C19.8797 1.09484 19.5608 0.829102 19.1676 0.829102V0.829102Z" fill="#4D5C7D"/>
<path d="M25.5028 5.00146C24.7676 5.00146 24.1716 5.49811 24.1716 6.11075C24.1716 6.7234 24.7676 7.21995 25.5028 7.21995C26.2379 7.21995 26.8338 6.7233 26.8338 6.11075C26.8338 5.49811 26.2378 5.00146 25.5028 5.00146Z" fill="#D15241"/>
<path d="M25.5027 0.829102C25.1094 0.829102 24.7905 1.09484 24.7905 1.42255L24.7905 6.04627C24.7905 6.37407 25.1094 6.63971 25.5027 6.63971C25.8959 6.63971 26.2148 6.37407 26.2148 6.04627L26.2148 1.42255C26.2148 1.09484 25.896 0.829102 25.5027 0.829102V0.829102Z" fill="#4D5C7D"/>
<path d="M11.8727 14.376L14.7516 14.376L14.7516 16.7751L11.8727 16.7751L11.8727 14.376Z" fill="#E56353"/>
<path d="M17.2483 14.376L20.1272 14.376L20.1272 16.7751L17.2483 16.7751L17.2483 14.376Z" fill="#E56353"/>
<path d="M22.624 14.376L25.503 14.376L25.503 16.7751L22.624 16.7751L22.624 14.376Z" fill="#E56353"/>
<path d="M6.49731 18.1372L9.37625 18.1372L9.37625 20.5363L6.49731 20.5363L6.49731 18.1372Z" fill="#E56353"/>
<path d="M11.8727 18.1372L14.7516 18.1372L14.7516 20.5363L11.8727 20.5363L11.8727 18.1372Z" fill="#E56353"/>
<path d="M17.2483 18.1372L20.1272 18.1372L20.1272 20.5363L17.2483 20.5363L17.2483 18.1372Z" fill="#E56353"/>
<path d="M22.624 18.1372L25.503 18.1372L25.503 20.5363L22.624 20.5363L22.624 18.1372Z" fill="#E56353"/>
<path d="M6.49731 21.8979L9.37625 21.8979L9.37625 24.2971L6.49731 24.2971L6.49731 21.8979Z" fill="#E56353"/>
<path d="M11.8727 21.8979L14.7516 21.8979L14.7516 24.2971L11.8727 24.2971L11.8727 21.8979Z" fill="#E56353"/>
<path d="M17.2483 21.8979L20.1272 21.8979L20.1272 24.2971L17.2483 24.2971L17.2483 21.8979Z" fill="#E56353"/>
</svg>
