<svg width="59" height="115" viewBox="0 0 59 115" fill="none" xmlns="http://www.w3.org/2000/svg">
<path d="M58.5635 42.9134H58.476V29.6921H58.5635C58.6435 29.6921 58.7203 29.7239 58.7769 29.7805C58.8334 29.837 58.8652 29.9138 58.8652 29.9938V42.6117C58.8652 42.6917 58.8334 42.7684 58.7769 42.825C58.7203 42.8816 58.6435 42.9134 58.5635 42.9134Z" fill="url(#paint0_linear_106_11388)"/>
<path d="M51.4913 0H7.39211C3.53286 0 0.404312 3.12854 0.404312 6.9878V108.012C0.404312 111.871 3.53286 115 7.39211 115H51.4913C55.3505 115 58.4791 111.871 58.4791 108.012V6.9878C58.4791 3.12854 55.3505 0 51.4913 0Z" fill="url(#paint1_linear_106_11388)"/>
<path d="M57.5618 107.955L57.5618 7.04215C57.5618 3.6578 54.8182 0.914246 51.4339 0.914246L7.44634 0.914246C4.06199 0.914246 1.31844 3.6578 1.31844 7.04215L1.31844 107.955C1.31844 111.339 4.06199 114.083 7.44634 114.083H51.4339C54.8182 114.083 57.5618 111.339 57.5618 107.955Z" fill="url(#paint2_linear_106_11388)"/>
<path d="M1.31854 107.593V7.46447C1.32094 5.73596 2.00865 4.07893 3.23089 2.85668C4.45313 1.63444 6.11016 0.946731 7.83868 0.944336H7.39817C5.65344 0.944336 3.98012 1.63722 2.74613 2.87065C1.51214 4.10407 0.818488 5.77707 0.817688 7.5218V107.535C0.818488 109.28 1.51214 110.953 2.74613 112.187C3.98012 113.42 5.65344 114.113 7.39817 114.113H7.83868C6.11016 114.111 4.45313 113.423 3.23089 112.201C2.00865 110.978 1.32094 109.321 1.31854 107.593Z" fill="white" fill-opacity="0.25"/>
<path d="M51.4822 0.944336H51.0417C52.7702 0.946731 54.4273 1.63444 55.6495 2.85668C56.8718 4.07893 57.5595 5.73596 57.5619 7.46447V107.593C57.5595 109.321 56.8718 110.978 55.6495 112.201C54.4273 113.423 52.7702 114.111 51.0417 114.113H51.4822C53.227 114.113 54.9003 113.42 56.1343 112.187C57.3683 110.953 58.0619 109.28 58.0627 107.535V7.5218C58.0619 5.77707 57.3683 4.10407 56.1343 2.87065C54.9003 1.63722 53.227 0.944336 51.4822 0.944336Z" fill="white" fill-opacity="0.25"/>
<path d="M0.301719 37.6696H0.401286V46.0392H0.301719C0.221698 46.0392 0.144954 46.0075 0.0883713 45.9509C0.0317881 45.8943 0 45.8175 0 45.7375V37.9622C0 37.8822 0.0317881 37.8055 0.0883713 37.7489C0.144954 37.6923 0.221698 37.6605 0.301719 37.6605V37.6696Z" fill="url(#paint3_linear_106_11388)"/>
<path d="M0.301719 26.7354H0.401286V35.105H0.301719C0.221698 35.105 0.144954 35.0732 0.0883713 35.0167C0.0317881 34.9601 0 34.8833 0 34.8033V27.028C0.0023543 26.9496 0.0351788 26.8751 0.0915088 26.8205C0.147839 26.7659 0.223242 26.7353 0.301719 26.7354Z" fill="url(#paint4_linear_106_11388)"/>
<mask id="mask0_106_11388" style="mask-type:alpha" maskUnits="userSpaceOnUse" x="2" y="1" width="55" height="112">
<path d="M50.0794 1.69269H42.2619C41.8953 1.69607 41.5396 1.81728 41.2473 2.03843C40.955 2.25957 40.7416 2.56889 40.6386 2.92068L39.999 5.12323C39.8839 5.51999 39.6432 5.86866 39.3129 6.11679C38.9826 6.36491 38.5807 6.49907 38.1676 6.49906H20.8308C20.4177 6.49907 20.0158 6.36491 19.6855 6.11679C19.3552 5.86866 19.1144 5.51999 18.9994 5.12323L18.3597 2.92068C18.2565 2.56618 18.0409 2.25478 17.7455 2.03333C17.45 1.81187 17.0906 1.69233 16.7214 1.69269H8.90388C7.25305 1.69269 5.66984 2.34848 4.50253 3.51579C3.33522 4.6831 2.67943 6.26631 2.67943 7.91714V106.335C2.67943 107.986 3.33522 109.569 4.50253 110.736C5.66984 111.903 7.25305 112.559 8.90388 112.559H50.0794C51.7302 112.559 53.3134 111.903 54.4808 110.736C55.6481 109.569 56.3039 107.986 56.3039 106.335V7.91714C56.3042 7.09962 56.1435 6.29004 55.8309 5.53468C55.5182 4.77931 55.0597 4.09298 54.4816 3.5149C53.9036 2.93683 53.2172 2.47836 52.4619 2.16569C51.7065 1.85302 50.8969 1.69229 50.0794 1.69269Z" fill="url(#paint5_linear_106_11388)"/>
</mask>
<g mask="url(#mask0_106_11388)">
<path d="M58.968 0.482788H0.0152283V113.778H58.968V0.482788Z" fill="url(#paint6_linear_106_11388)"/>
<path style="mix-blend-mode:multiply" opacity="0.85" d="M0.0151978 88.8018V113.793H58.968V12.7295C53.1478 74.2046 14.4554 93.3909 0.0151978 88.8018Z" fill="url(#paint7_linear_106_11388)"/>
<path style="mix-blend-mode:multiply" opacity="0.85" d="M0.0151978 103.854V113.781H58.968V23.7573C56.4003 77.8644 12.3525 113.455 0.0151978 103.854Z" fill="url(#paint8_linear_106_11388)"/>
<path style="mix-blend-mode:multiply" opacity="0.85" d="M58.968 0.485779H0.0151978V68.7677C0.0151978 68.7677 12.2197 0.485779 58.968 0.485779Z" fill="url(#paint9_linear_106_11388)"/>
<path style="mix-blend-mode:multiply" opacity="0.85" d="M58.968 0.485779H0.0151978V32.6822C0.0151978 32.6822 12.2197 0.485779 58.968 0.485779Z" fill="url(#paint10_linear_106_11388)"/>
<path d="M58.968 3.24945C37.4494 17.9401 32.8301 76.7782 0.0151978 71.5072V84.6591C25.4772 88.5422 23.4406 45.7797 58.968 28.6602V3.24945Z" fill="url(#paint11_linear_106_11388)"/>
<path d="M0.0151978 58.8322C20.0795 52.2789 40.5662 40.0351 58.968 28.9047V13.0313C40.3369 29.9064 21.8777 51.2802 0.0151978 55.6128V58.8322Z" fill="url(#paint12_linear_106_11388)"/>
<path d="M58.968 85.5825C46.2204 88.1078 33.9736 104.22 19.82 113.781H33.0112C41.9541 108.35 50.1729 103.547 58.9589 102.967L58.968 85.5825Z" fill="url(#paint13_linear_106_11388)"/>
<path d="M0.0151978 18.1725V32.6822C0.0151978 32.6822 12.2197 0.485779 58.968 0.485779C12.2167 0.485779 0.0151978 18.1725 0.0151978 18.1725Z" fill="url(#paint14_linear_106_11388)"/>
</g>
<g style="mix-blend-mode:color-dodge">
<g style="mix-blend-mode:color-dodge">
<path style="mix-blend-mode:color-dodge" d="M29.4417 114.819C41.4794 114.819 51.2379 114.491 51.2379 114.086C51.2379 113.681 41.4794 113.352 29.4417 113.352C17.4041 113.352 7.6456 113.681 7.6456 114.086C7.6456 114.491 17.4041 114.819 29.4417 114.819Z" fill="url(#paint15_radial_106_11388)" fill-opacity="0.45"/>
</g>
</g>
<g style="mix-blend-mode:color-dodge">
<g style="mix-blend-mode:color-dodge">
<path style="mix-blend-mode:color-dodge" d="M51.2227 0.91424C51.2227 0.509937 41.4711 0.184082 29.4416 0.184082C17.4121 0.184082 7.65756 0.509937 7.65756 0.91424C7.65756 1.31854 17.4091 1.64742 29.4416 1.64742C41.4742 1.64742 51.2227 1.31854 51.2227 0.91424Z" fill="url(#paint16_radial_106_11388)" fill-opacity="0.45"/>
</g>
</g>
<path d="M25.2689 4.54095C25.1048 4.52975 24.9512 4.45669 24.839 4.33656C24.7268 4.21642 24.6644 4.05816 24.6644 3.89377C24.6644 3.72938 24.7268 3.57112 24.839 3.45098C24.9512 3.33084 25.1048 3.25779 25.2689 3.24658H33.5752C33.7392 3.25779 33.8928 3.33084 34.005 3.45098C34.1172 3.57112 34.1796 3.72938 34.1796 3.89377C34.1796 4.05816 34.1172 4.21642 34.005 4.33656C33.8928 4.45669 33.7392 4.52975 33.5752 4.54095H25.2689Z" fill="url(#paint17_linear_106_11388)"/>
<path d="M33.5993 3.48792H25.2447C25.0347 3.48792 24.8645 3.65812 24.8645 3.86808V3.91636C24.8645 4.12631 25.0347 4.29652 25.2447 4.29652H33.5993C33.8092 4.29652 33.9794 4.12631 33.9794 3.91636V3.86808C33.9794 3.65812 33.8092 3.48792 33.5993 3.48792Z" fill="url(#paint18_linear_106_11388)"/>
<path d="M20.8155 4.54091C20.687 4.54151 20.5611 4.5039 20.454 4.43285C20.3468 4.3618 20.2632 4.26052 20.2138 4.14186C20.1643 4.0232 20.1512 3.89252 20.1761 3.76641C20.2011 3.64029 20.2629 3.52443 20.3538 3.43353C20.4447 3.34263 20.5606 3.28078 20.6867 3.25585C20.8128 3.23091 20.9435 3.24402 21.0621 3.29349C21.1808 3.34296 21.2821 3.42657 21.3531 3.53371C21.4242 3.64085 21.4618 3.76668 21.4612 3.89524C21.4612 3.98003 21.4445 4.06399 21.412 4.14233C21.3796 4.22066 21.332 4.29184 21.2721 4.3518C21.2121 4.41175 21.1409 4.45932 21.0626 4.49176C20.9843 4.52421 20.9003 4.54091 20.8155 4.54091Z" fill="url(#paint19_linear_106_11388)"/>
<path d="M21.2198 3.89523C21.2192 3.97507 21.195 4.05294 21.1502 4.11902C21.1054 4.18511 21.0421 4.23647 20.9682 4.2666C20.8942 4.29674 20.813 4.30432 20.7348 4.28838C20.6566 4.27244 20.5848 4.2337 20.5286 4.17704C20.4723 4.12038 20.4341 4.04833 20.4188 3.96999C20.4034 3.89165 20.4116 3.81051 20.4423 3.73681C20.473 3.66311 20.5248 3.60014 20.5912 3.55585C20.6576 3.51156 20.7357 3.48792 20.8155 3.48792C20.8689 3.48791 20.9217 3.49847 20.9709 3.51898C21.0202 3.53948 21.0649 3.56953 21.1025 3.6074C21.1401 3.64526 21.1698 3.69019 21.1899 3.73959C21.2101 3.78899 21.2202 3.84189 21.2198 3.89523Z" fill="url(#paint20_radial_106_11388)"/>
<path d="M23.1931 4.54091C23.0646 4.54151 22.9387 4.5039 22.8316 4.43285C22.7245 4.3618 22.6409 4.26052 22.5914 4.14186C22.5419 4.0232 22.5288 3.89252 22.5537 3.76641C22.5787 3.64029 22.6405 3.52443 22.7314 3.43353C22.8223 3.34263 22.9382 3.28078 23.0643 3.25585C23.1904 3.23091 23.3211 3.24402 23.4398 3.29349C23.5584 3.34296 23.6597 3.42657 23.7307 3.53371C23.8018 3.64085 23.8394 3.76668 23.8388 3.89524C23.8388 3.98003 23.8221 4.06399 23.7897 4.14233C23.7572 4.22066 23.7097 4.29184 23.6497 4.3518C23.5897 4.41175 23.5186 4.45932 23.4402 4.49176C23.3619 4.52421 23.2779 4.54091 23.1931 4.54091Z" fill="url(#paint21_linear_106_11388)"/>
<path d="M23.5974 3.89523C23.5968 3.97507 23.5726 4.05294 23.5278 4.11902C23.4831 4.18511 23.4197 4.23647 23.3458 4.2666C23.2719 4.29674 23.1907 4.30432 23.1124 4.28838C23.0342 4.27244 22.9624 4.2337 22.9062 4.17704C22.85 4.12038 22.8118 4.04833 22.7964 3.96999C22.781 3.89165 22.7892 3.81051 22.8199 3.73681C22.8506 3.66311 22.9024 3.60014 22.9688 3.55585C23.0353 3.51156 23.1133 3.48792 23.1931 3.48792C23.2465 3.48791 23.2993 3.49847 23.3486 3.51898C23.3978 3.53948 23.4425 3.56953 23.4801 3.6074C23.5177 3.64526 23.5474 3.69019 23.5675 3.73959C23.5877 3.78899 23.5978 3.84189 23.5974 3.89523Z" fill="url(#paint22_linear_106_11388)"/>
<path d="M38.0648 4.54091C37.9362 4.54151 37.8104 4.5039 37.7033 4.43285C37.5961 4.3618 37.5125 4.26052 37.463 4.14186C37.4136 4.0232 37.4005 3.89252 37.4254 3.76641C37.4503 3.64029 37.5122 3.52443 37.6031 3.43353C37.694 3.34263 37.8099 3.28078 37.936 3.25585C38.0621 3.23091 38.1928 3.24402 38.3114 3.29349C38.4301 3.34296 38.5314 3.42657 38.6024 3.53371C38.6735 3.64085 38.7111 3.76668 38.7105 3.89524C38.7105 4.06648 38.6424 4.23071 38.5214 4.3518C38.4003 4.47289 38.236 4.54091 38.0648 4.54091Z" fill="url(#paint23_linear_106_11388)"/>
<path d="M38.4751 3.89523C38.4745 3.97507 38.4503 4.05294 38.4055 4.11902C38.3608 4.18511 38.2974 4.23647 38.2235 4.2666C38.1496 4.29674 38.0684 4.30432 37.9901 4.28838C37.9119 4.27244 37.8401 4.2337 37.7839 4.17704C37.7277 4.12038 37.6895 4.04833 37.6741 3.96999C37.6587 3.89165 37.6669 3.81051 37.6976 3.73681C37.7283 3.66311 37.7801 3.60014 37.8465 3.55585C37.913 3.51156 37.991 3.48792 38.0708 3.48792C38.1242 3.48791 38.177 3.49847 38.2263 3.51898C38.2755 3.53948 38.3202 3.56953 38.3578 3.6074C38.3954 3.64526 38.4251 3.69019 38.4452 3.73959C38.4654 3.78899 38.4755 3.84189 38.4751 3.89523Z" fill="url(#paint24_linear_106_11388)"/>
<path d="M35.6872 4.54091C35.5586 4.54151 35.4328 4.5039 35.3256 4.43285C35.2185 4.3618 35.1349 4.26052 35.0854 4.14186C35.0359 4.0232 35.0228 3.89252 35.0478 3.76641C35.0727 3.64029 35.1346 3.52443 35.2255 3.43353C35.3164 3.34263 35.4322 3.28078 35.5583 3.25585C35.6845 3.23091 35.8151 3.24402 35.9338 3.29349C36.0524 3.34296 36.1537 3.42657 36.2248 3.53371C36.2958 3.64085 36.3334 3.76668 36.3328 3.89524C36.3328 4.06648 36.2648 4.23071 36.1437 4.3518C36.0226 4.47289 35.8584 4.54091 35.6872 4.54091Z" fill="url(#paint25_linear_106_11388)"/>
<path d="M36.0916 3.89523C36.091 3.97507 36.0668 4.05294 36.022 4.11902C35.9772 4.18511 35.9139 4.23647 35.8399 4.2666C35.766 4.29674 35.6848 4.30432 35.6066 4.28838C35.5284 4.27244 35.4566 4.2337 35.4004 4.17704C35.3441 4.12038 35.3059 4.04833 35.2906 3.96999C35.2752 3.89165 35.2834 3.81051 35.3141 3.73681C35.3448 3.66311 35.3966 3.60014 35.463 3.55585C35.5294 3.51156 35.6075 3.48792 35.6873 3.48792C35.7406 3.48791 35.7935 3.49847 35.8427 3.51898C35.892 3.53948 35.9367 3.56953 35.9743 3.6074C36.0118 3.64526 36.0416 3.69019 36.0617 3.73959C36.0818 3.78899 36.092 3.84189 36.0916 3.89523Z" fill="url(#paint26_linear_106_11388)"/>
<path d="M0.325834 18.5255H0.404281V22.4177H0.325834C0.291363 22.4177 0.257229 22.4109 0.225382 22.3977C0.193534 22.3845 0.164597 22.3652 0.140222 22.3408C0.115847 22.3164 0.0965121 22.2875 0.0833205 22.2556C0.0701289 22.2238 0.0633392 22.1897 0.0633392 22.1552V18.788C0.0633392 18.7184 0.0909949 18.6516 0.140222 18.6024C0.18945 18.5532 0.256216 18.5255 0.325834 18.5255Z" fill="url(#paint27_linear_106_11388)"/>
<path d="M43.7975 5.49426H43.4324V6.00718H43.7975V5.49426Z" fill="#F4F4F4"/>
<path d="M44.3918 5.26495H44.0267V6.00718H44.3918V5.26495Z" fill="#F4F4F4"/>
<path opacity="0.55" d="M44.9892 5.09296H44.6242V6.00716H44.9892V5.09296Z" fill="#F4F4F4"/>
<path d="M44.9892 5.64209H44.6242V6.00717H44.9892V5.64209Z" fill="#F4F4F4"/>
<path opacity="0.55" d="M45.5866 4.76117H45.2215V6.00727H45.5866V4.76117Z" fill="#F4F4F4"/>
<path opacity="0.55" d="M50.749 5.02963V4.62231H48.4318C48.399 4.62231 48.3676 4.63535 48.3444 4.65855C48.3212 4.68175 48.3081 4.71321 48.3081 4.74602V5.89858C48.3081 5.93139 48.3212 5.96286 48.3444 5.98606C48.3676 6.00925 48.399 6.02229 48.4318 6.02229H50.7551V5.59988H51.0568V5.02963H50.749Z" fill="#F4F4F4"/>
<path opacity="0.55" d="M48.5344 5.77495V4.83661H50.5167V5.26203V5.35255V5.77495H48.5344Z" fill="#F4F4F4"/>
<path d="M48.5344 5.77495V4.83661H48.993V5.26203V5.35255V5.77495H48.5344Z" fill="#F4F4F4"/>
<path d="M47.1374 5.80197C47.138 5.75577 47.1248 5.71044 47.0995 5.67178C47.0742 5.63311 47.038 5.60287 46.9954 5.58491C46.9528 5.56696 46.9058 5.5621 46.8605 5.57097C46.8152 5.57984 46.7735 5.60202 46.7408 5.6347C46.7081 5.66737 46.686 5.70904 46.6771 5.75438C46.6682 5.79973 46.6731 5.84669 46.691 5.88926C46.709 5.93184 46.7392 5.96809 46.7779 5.99338C46.8166 6.01868 46.8619 6.03187 46.9081 6.03128C46.9689 6.03128 47.0272 6.00712 47.0702 5.96412C47.1132 5.92111 47.1374 5.86279 47.1374 5.80197Z" fill="#F4F4F4"/>
<path d="M46.5159 5.40987L46.6607 5.55771C46.693 5.52532 46.7313 5.49963 46.7735 5.48209C46.8157 5.46456 46.8609 5.45553 46.9066 5.45553C46.9523 5.45553 46.9976 5.46456 47.0398 5.48209C47.082 5.49963 47.1203 5.52532 47.1525 5.55771L47.2973 5.40987C47.2463 5.35814 47.1854 5.31708 47.1183 5.28905C47.0513 5.26102 46.9793 5.24658 46.9066 5.24658C46.8339 5.24658 46.762 5.26102 46.6949 5.28905C46.6278 5.31708 46.567 5.35814 46.5159 5.40987Z" fill="#F4F4F4"/>
<path d="M46.9232 4.92407C46.6898 4.92581 46.466 5.0177 46.2987 5.18053L46.4465 5.32838C46.5727 5.20254 46.7436 5.13186 46.9217 5.13186C47.0999 5.13186 47.2708 5.20254 47.3969 5.32838L47.5448 5.18053C47.3793 5.0168 47.156 4.92469 46.9232 4.92407Z" fill="#F4F4F4"/>
<path d="M46.0452 4.93915L46.1931 5.087C46.2867 4.99312 46.3979 4.91865 46.5203 4.86783C46.6428 4.81701 46.774 4.79085 46.9066 4.79085C47.0392 4.79085 47.1705 4.81701 47.2929 4.86783C47.4154 4.91865 47.5266 4.99312 47.6202 5.087L47.768 4.93915C47.6557 4.82466 47.5216 4.73372 47.3737 4.67164C47.2258 4.60955 47.067 4.57758 46.9066 4.57758C46.7462 4.57758 46.5874 4.60955 46.4395 4.67164C46.2916 4.73372 46.1576 4.82466 46.0452 4.93915Z" fill="#F4F4F4"/>
<path d="M38.7015 104.811H20.179C20.0813 104.811 19.9877 104.85 19.9187 104.919C19.8496 104.988 19.8109 105.081 19.8109 105.179C19.8109 105.277 19.8496 105.37 19.9187 105.439C19.9877 105.508 20.0813 105.547 20.179 105.547H38.7015C38.7991 105.547 38.8927 105.508 38.9617 105.439C39.0308 105.37 39.0696 105.277 39.0696 105.179C39.0696 105.081 39.0308 104.988 38.9617 104.919C38.8927 104.85 38.7991 104.811 38.7015 104.811Z" fill="white" stroke="white" stroke-width="0.3"/>
<path d="M7.5 7L6.81975 12.7333L12.125 10.4558L7.5 7ZM50 106L50.6803 100.267L45.375 102.544L50 106ZM8.8157 11.3323L47.7654 102.062L48.6843 101.668L9.73461 10.9378L8.8157 11.3323Z" fill="white"/>
<defs>
<linearGradient id="paint0_linear_106_11388" x1="58.8562" y1="36.2877" x2="58.476" y2="36.2877" gradientUnits="userSpaceOnUse">
<stop stop-color="#C4B5E3"/>
<stop offset="1" stop-color="#928BBF"/>
</linearGradient>
<linearGradient id="paint1_linear_106_11388" x1="0.404312" y1="57.4985" x2="58.4761" y2="57.4985" gradientUnits="userSpaceOnUse">
<stop stop-color="#C4B5E3"/>
<stop offset="1" stop-color="#928BBF"/>
</linearGradient>
<linearGradient id="paint2_linear_106_11388" x1="29.4416" y1="-10.011" x2="29.4416" y2="112.206" gradientUnits="userSpaceOnUse">
<stop offset="0.04" stop-color="#07060A"/>
<stop offset="1" stop-color="#292936"/>
</linearGradient>
<linearGradient id="paint3_linear_106_11388" x1="0.404303" y1="41.8544" x2="0.00905158" y2="41.8544" gradientUnits="userSpaceOnUse">
<stop stop-color="#928BBF"/>
<stop offset="1" stop-color="#C4B5E3"/>
</linearGradient>
<linearGradient id="paint4_linear_106_11388" x1="0.404303" y1="30.9202" x2="0.00905158" y2="30.9202" gradientUnits="userSpaceOnUse">
<stop stop-color="#928BBF"/>
<stop offset="1" stop-color="#C4B5E3"/>
</linearGradient>
<linearGradient id="paint5_linear_106_11388" x1="11.9663" y1="-10.2252" x2="50.535" y2="137.991" gradientUnits="userSpaceOnUse">
<stop offset="0.04" stop-color="#EB0087"/>
<stop offset="1" stop-color="#3E0094"/>
</linearGradient>
<linearGradient id="paint6_linear_106_11388" x1="50.4294" y1="119.948" x2="8.6655" y2="-5.34339" gradientUnits="userSpaceOnUse">
<stop stop-color="#3E0094"/>
<stop offset="0.96" stop-color="#EB0087"/>
</linearGradient>
<linearGradient id="paint7_linear_106_11388" x1="53.8478" y1="108.184" x2="28.4522" y2="61.3394" gradientUnits="userSpaceOnUse">
<stop offset="0.24" stop-color="white"/>
<stop offset="0.29" stop-color="#FAF8FB" stop-opacity="0.99"/>
<stop offset="0.38" stop-color="#EDE5F1" stop-opacity="0.97"/>
<stop offset="0.47" stop-color="#D7C7E0" stop-opacity="0.93"/>
<stop offset="0.58" stop-color="#B89CC8" stop-opacity="0.89"/>
<stop offset="0.7" stop-color="#9165A9" stop-opacity="0.82"/>
<stop offset="0.82" stop-color="#652787" stop-opacity="0.75"/>
</linearGradient>
<linearGradient id="paint8_linear_106_11388" x1="53.359" y1="112.794" x2="30.7362" y2="71.0637" gradientUnits="userSpaceOnUse">
<stop offset="0.24" stop-color="white"/>
<stop offset="0.29" stop-color="#FAF8FB" stop-opacity="0.99"/>
<stop offset="0.38" stop-color="#EDE5F1" stop-opacity="0.97"/>
<stop offset="0.47" stop-color="#D7C7E0" stop-opacity="0.93"/>
<stop offset="0.58" stop-color="#B89CC8" stop-opacity="0.89"/>
<stop offset="0.7" stop-color="#9165A9" stop-opacity="0.82"/>
<stop offset="0.82" stop-color="#652787" stop-opacity="0.75"/>
</linearGradient>
<linearGradient id="paint9_linear_106_11388" x1="3.94961" y1="10.355" x2="30.5431" y2="35.6269" gradientUnits="userSpaceOnUse">
<stop offset="0.24" stop-color="white"/>
<stop offset="0.29" stop-color="#FCF8FD" stop-opacity="0.99"/>
<stop offset="0.37" stop-color="#F3E5F8" stop-opacity="0.97"/>
<stop offset="0.46" stop-color="#E4C5EF" stop-opacity="0.94"/>
<stop offset="0.56" stop-color="#D098E2" stop-opacity="0.9"/>
<stop offset="0.67" stop-color="#B55FD2" stop-opacity="0.84"/>
<stop offset="0.79" stop-color="#961BBF" stop-opacity="0.77"/>
<stop offset="0.82" stop-color="#8E0ABA" stop-opacity="0.75"/>
</linearGradient>
<linearGradient id="paint10_linear_106_11388" x1="5.07803" y1="-6.61969" x2="29.2397" y2="16.3441" gradientUnits="userSpaceOnUse">
<stop offset="0.24" stop-color="white"/>
<stop offset="0.29" stop-color="#FEF8FF" stop-opacity="0.99"/>
<stop offset="0.36" stop-color="#F9E4FF" stop-opacity="0.97"/>
<stop offset="0.45" stop-color="#F3C4FF" stop-opacity="0.94"/>
<stop offset="0.56" stop-color="#E997FF" stop-opacity="0.9"/>
<stop offset="0.67" stop-color="#DE5EFF" stop-opacity="0.84"/>
<stop offset="0.78" stop-color="#CF19FF" stop-opacity="0.77"/>
<stop offset="0.82" stop-color="#CA00FF" stop-opacity="0.75"/>
</linearGradient>
<linearGradient id="paint11_linear_106_11388" x1="-0.766254" y1="75.7765" x2="107.677" y2="-22.8733" gradientUnits="userSpaceOnUse">
<stop stop-color="#FF4DBF" stop-opacity="0"/>
<stop offset="0.98" stop-color="#FF4DBF"/>
</linearGradient>
<linearGradient id="paint12_linear_106_11388" x1="34.8184" y1="33.9525" x2="-22.7434" y2="57.2512" gradientUnits="userSpaceOnUse">
<stop stop-color="#FF4DBF" stop-opacity="0"/>
<stop offset="0.98" stop-color="#FF4DBF"/>
</linearGradient>
<linearGradient id="paint13_linear_106_11388" x1="60.6908" y1="91.5414" x2="2.70956" y2="133.912" gradientUnits="userSpaceOnUse">
<stop stop-color="#FF4DBF" stop-opacity="0"/>
<stop offset="0.98" stop-color="#FF4DBF"/>
</linearGradient>
<linearGradient id="paint14_linear_106_11388" x1="33.6749" y1="5.77792" x2="-6.19115" y2="34.6463" gradientUnits="userSpaceOnUse">
<stop stop-color="#FF4DBF" stop-opacity="0"/>
<stop offset="0.98" stop-color="#FF4DBF"/>
</linearGradient>
<radialGradient id="paint15_radial_106_11388" cx="0" cy="0" r="1" gradientUnits="userSpaceOnUse" gradientTransform="translate(29.3232 114.492) scale(15.4879 0.655572)">
<stop stop-color="white"/>
<stop offset="0.12" stop-color="#D5D4D5"/>
<stop offset="0.29" stop-color="#A09EA1"/>
<stop offset="0.45" stop-color="#747275"/>
<stop offset="0.61" stop-color="#524F53"/>
<stop offset="0.76" stop-color="#3A363B"/>
<stop offset="0.89" stop-color="#2B272C"/>
<stop offset="1" stop-color="#262227"/>
</radialGradient>
<radialGradient id="paint16_radial_106_11388" cx="0" cy="0" r="1" gradientUnits="userSpaceOnUse" gradientTransform="translate(29.2758 -0.0995936) scale(15.4879 0.73752)">
<stop stop-color="white"/>
<stop offset="0.12" stop-color="#D5D4D5"/>
<stop offset="0.29" stop-color="#A09EA1"/>
<stop offset="0.45" stop-color="#747275"/>
<stop offset="0.61" stop-color="#524F53"/>
<stop offset="0.76" stop-color="#3A363B"/>
<stop offset="0.89" stop-color="#2B272C"/>
<stop offset="1" stop-color="#262227"/>
</radialGradient>
<linearGradient id="paint17_linear_106_11388" x1="29.4235" y1="5.3737" x2="29.4235" y2="2.90564" gradientUnits="userSpaceOnUse">
<stop stop-color="#474747"/>
<stop offset="0.96" stop-color="#231D30"/>
</linearGradient>
<linearGradient id="paint18_linear_106_11388" x1="24.8645" y1="3.89222" x2="33.9794" y2="3.89222" gradientUnits="userSpaceOnUse">
<stop stop-color="#1F1A2B"/>
<stop offset="0.94" stop-color="#1F1A2B"/>
</linearGradient>
<linearGradient id="paint19_linear_106_11388" x1="20.8155" y1="5.37366" x2="20.8155" y2="2.9056" gradientUnits="userSpaceOnUse">
<stop stop-color="#474747"/>
<stop offset="0.96" stop-color="#231D30"/>
</linearGradient>
<radialGradient id="paint20_radial_106_11388" cx="0" cy="0" r="1" gradientUnits="userSpaceOnUse" gradientTransform="translate(20.8155 3.89523) scale(0.404303)">
<stop stop-color="#CDD0D1"/>
<stop offset="1" stop-color="#908F91"/>
</radialGradient>
<linearGradient id="paint21_linear_106_11388" x1="23.1931" y1="5.37366" x2="23.1931" y2="2.9056" gradientUnits="userSpaceOnUse">
<stop stop-color="#474747"/>
<stop offset="0.96" stop-color="#231D30"/>
</linearGradient>
<linearGradient id="paint22_linear_106_11388" x1="22.7888" y1="3.89523" x2="23.5974" y2="3.89523" gradientUnits="userSpaceOnUse">
<stop stop-color="#1F1A2B"/>
<stop offset="0.94" stop-color="#1F1A2B"/>
</linearGradient>
<linearGradient id="paint23_linear_106_11388" x1="38.0648" y1="5.37366" x2="38.0648" y2="2.9056" gradientUnits="userSpaceOnUse">
<stop stop-color="#474747"/>
<stop offset="0.96" stop-color="#231D30"/>
</linearGradient>
<linearGradient id="paint24_linear_106_11388" x1="37.6605" y1="3.89523" x2="38.4691" y2="3.89523" gradientUnits="userSpaceOnUse">
<stop stop-color="#1F1A2B"/>
<stop offset="0.94" stop-color="#1F1A2B"/>
</linearGradient>
<linearGradient id="paint25_linear_106_11388" x1="35.6872" y1="5.37366" x2="35.6872" y2="2.9056" gradientUnits="userSpaceOnUse">
<stop stop-color="#474747"/>
<stop offset="0.96" stop-color="#231D30"/>
</linearGradient>
<linearGradient id="paint26_linear_106_11388" x1="35.283" y1="3.89523" x2="36.0916" y2="3.89523" gradientUnits="userSpaceOnUse">
<stop stop-color="#1F1A2B"/>
<stop offset="0.94" stop-color="#1F1A2B"/>
</linearGradient>
<linearGradient id="paint27_linear_106_11388" x1="0.401264" y1="20.4716" x2="0.0633392" y2="20.4716" gradientUnits="userSpaceOnUse">
<stop stop-color="#928BBF"/>
<stop offset="1" stop-color="#C4B5E3"/>
</linearGradient>
</defs>
</svg>
