<svg id="Layer_1" data-name="Layer 1" xmlns="http://www.w3.org/2000/svg" viewBox="0 0 200 200"><defs><style>.cls-1{fill:#e6e7e8;}.cls-2{fill:#f1f1f2;}.cls-3{fill:#fff;}.cls-4{fill:#929497;}.cls-5{fill:#8e8e8e;}.cls-6{fill:#a6a8ab;}.cls-7{fill:#808184;}.cls-8{font-size:27.35px;}.cls-8,.cls-9{fill:#afafaf;font-family:Poppins-Bold, Poppins;font-weight:700;}.cls-9{font-size:9px;}</style></defs><path class="cls-1" d="M178.54,150.28l-21-20.22H42.42l-21,20.22a1.65,1.65,0,0,0-.25.28,2.61,2.61,0,0,1,1-.28H177.82a2.61,2.61,0,0,1,1,.28A1.65,1.65,0,0,0,178.54,150.28Z"/><path class="cls-2" d="M177.19,150.51a.31.31,0,0,1-.19-.08l-20.74-20.26a.26.26,0,0,1,0-.38.27.27,0,0,1,.38,0L177.38,150a.27.27,0,0,1,0,.38A.28.28,0,0,1,177.19,150.51Z"/><path class="cls-2" d="M22.81,150.51a.28.28,0,0,1-.2-.09.27.27,0,0,1,0-.38l20.74-20.26a.27.27,0,0,1,.38,0,.26.26,0,0,1,0,.38L23,150.43A.31.31,0,0,1,22.81,150.51Z"/><path class="cls-3" d="M156.26,54.16l0,.27-1.79,72.89H45.58L43.79,54.38l0-.2a3.28,3.28,0,0,1,0-1h.31l36.24-.61c5.91-.1,12.15-.15,18.53-.15,8,0,16.43.08,25.76.24l31.31.52h.29A3.37,3.37,0,0,1,156.26,54.16Z"/><path class="cls-4" d="M156,48.75l-31.29-.52c-14.81-.25-29.58-.33-44.39-.08l-32.67.54L44,48.75c-4.37,0-3.49,5.22-3.49,5.22l1.87,76.09H157.58L159.45,54S160.33,48.75,156,48.75Zm.3,5.41,0,.27-1.79,72.89H45.58L43.79,54.38l0-.2a3.28,3.28,0,0,1,0-1h.31l36.24-.61c5.91-.1,12.15-.15,18.53-.15,8,0,16.43.08,25.76.24l31.31.52h.29A3.37,3.37,0,0,1,156.26,54.16Z"/><path class="cls-5" d="M177.82,150.28H22.18s-1.05.11-1.05.41v.4s.16.33,1.73.33H177.14c1.57,0,1.73-.33,1.73-.33v-.4C178.87,150.39,177.82,150.28,177.82,150.28Z"/><path class="cls-6" d="M177.14,151.42H22.86c-1.57,0-1.73-.33-1.73-.33a1.51,1.51,0,0,0,.89.72,3.09,3.09,0,0,0,1,.19H176.94a3.09,3.09,0,0,0,1-.19,1.51,1.51,0,0,0,.89-.72S178.71,151.42,177.14,151.42Z"/><rect class="cls-7" x="138.25" y="128.97" width="5.74" height="2.19" rx="0.27" transform="translate(282.24 260.13) rotate(180)"/><polygon class="cls-4" points="149.6 139.89 148.69 138.77 142.39 138.77 143.16 139.89 149.6 139.89"/><polygon class="cls-4" points="128.24 139.89 127.73 138.77 121.31 138.77 121.7 139.89 128.24 139.89"/><polygon class="cls-4" points="142.48 139.89 141.71 138.77 135.36 138.77 136.01 139.89 142.48 139.89"/><polygon class="cls-4" points="135.36 139.89 134.72 138.77 128.34 138.77 128.85 139.89 135.36 139.89"/><polygon class="cls-4" points="133.72 137.06 127.54 137.06 128.06 138.18 134.37 138.18 133.72 137.06"/><polygon class="cls-4" points="126.93 137.06 120.72 137.06 121.11 138.18 127.45 138.18 126.93 137.06"/><polygon class="cls-4" points="121.12 139.89 120.73 138.77 114.3 138.77 114.55 139.89 121.12 139.89"/><polygon class="cls-4" points="113.6 138.18 113.34 137.06 107.08 137.06 107.21 138.18 113.6 138.18"/><polygon class="cls-4" points="113.76 136.47 119.93 136.47 119.54 135.36 113.5 135.36 113.76 136.47"/><polygon class="cls-4" points="119.53 133.65 119.91 134.76 125.86 134.76 125.34 133.65 119.53 133.65"/><polygon class="cls-4" points="120.53 138.18 120.14 137.06 113.9 137.06 114.16 138.18 120.53 138.18"/><polygon class="cls-4" points="114 139.89 113.74 138.77 107.28 138.77 107.41 139.89 114 139.89"/><polygon class="cls-4" points="113.1 133.65 113.36 134.76 119.33 134.76 118.95 133.65 113.1 133.65"/><path class="cls-4" d="M119.05,132.27l.27.78h5.75l-.3-.64a.32.32,0,0,1,0-.14Z"/><path class="cls-4" d="M113,133.05h5.77l-.23-.67a.2.2,0,0,1,0-.11h-5.7Z"/><path class="cls-4" d="M100.27,133.05h5.8l-.09-.74v0h-5.71Z"/><path class="cls-4" d="M106.53,132.27l.09.78h5.79l-.17-.7v-.08Z"/><polygon class="cls-4" points="156.71 139.89 155.68 138.77 149.42 138.77 150.32 139.89 156.71 139.89"/><polygon class="cls-4" points="80.07 136.47 86.24 136.47 86.5 135.36 80.46 135.36 80.07 136.47"/><polygon class="cls-4" points="86.9 133.65 81.05 133.65 80.67 134.76 86.64 134.76 86.9 133.65"/><polygon class="cls-4" points="145.25 133.65 146.15 134.76 151.94 134.76 150.91 133.65 145.25 133.65"/><polygon class="cls-4" points="152.72 134.76 158.94 134.76 157.78 133.65 151.69 133.65 152.72 134.76"/><polygon class="cls-4" points="161.33 137.06 154.86 137.06 155.9 138.18 162.48 138.18 161.33 137.06"/><path class="cls-4" d="M138.4,133.05H144l-.47-.58a.29.29,0,0,1-.07-.2h-5.64Z"/><path class="cls-4" d="M131.59,132.27l.45.78h5.68l-.42-.59a.32.32,0,0,1-.05-.19Z"/><path class="cls-4" d="M125.68,133.05h5.71l-.35-.62a.3.3,0,0,1,0-.16h-5.67Z"/><path class="cls-4" d="M70.87,140.48H64.29l-.82,1.41h6.78a.31.31,0,0,1,0-.13Z"/><path class="cls-4" d="M144.13,132.27l.63.78h5.6l-.53-.56a.35.35,0,0,1-.08-.22Z"/><polygon class="cls-4" points="100.27 136.47 106.47 136.47 106.34 135.36 100.27 135.36 100.27 136.47"/><path class="cls-4" d="M49.19,140.48H42.74l-1.31,1.41h6.71a.31.31,0,0,1,.07-.2Z"/><path class="cls-4" d="M55.87,132.27H50.25a.35.35,0,0,1-.08.22l-.53.56h5.6Z"/><polygon class="cls-4" points="100.27 133.65 100.27 134.76 106.27 134.76 106.14 133.65 100.27 133.65"/><polygon class="cls-4" points="100.27 138.18 106.67 138.18 106.54 137.06 100.27 137.06 100.27 138.18"/><polygon class="cls-4" points="74.14 134.76 80.09 134.76 80.47 133.65 74.66 133.65 74.14 134.76"/><path class="cls-4" d="M56.42,140.48h-6.5l-1.15,1.41h6.74a.37.37,0,0,1,.05-.18Z"/><path class="cls-4" d="M85.31,140.48H78.67l-.49,1.41H85a.17.17,0,0,1,0-.07Z"/><polygon class="cls-4" points="120.51 136.47 126.66 136.47 126.14 135.36 120.12 135.36 120.51 136.47"/><polygon class="cls-4" points="100.27 139.89 106.86 139.89 106.73 138.77 100.27 138.77 100.27 139.89"/><path class="cls-4" d="M63.65,140.48H57.1l-1,1.41h6.76a.32.32,0,0,1,0-.16Z"/><path class="cls-4" d="M78.09,140.48H71.48l-.66,1.41h6.8a.18.18,0,0,1,0-.1Z"/><polygon class="cls-4" points="140.01 135.36 140.78 136.47 146.82 136.47 145.91 135.36 140.01 135.36"/><polygon class="cls-4" points="138.81 133.65 139.59 134.76 145.43 134.76 144.52 133.65 138.81 133.65"/><polygon class="cls-4" points="146.64 135.36 147.54 136.47 153.53 136.47 152.5 135.36 146.64 135.36"/><polygon class="cls-4" points="132.38 133.65 133.03 134.76 138.91 134.76 138.13 133.65 132.38 133.65"/><polygon class="cls-4" points="159.56 135.36 153.27 135.36 154.31 136.47 160.71 136.47 159.56 135.36"/><polygon class="cls-4" points="125.95 133.65 126.47 134.76 132.39 134.76 131.74 133.65 125.95 133.65"/><polygon class="cls-4" points="112.55 133.65 106.69 133.65 106.81 134.76 112.8 134.76 112.55 133.65"/><polygon class="cls-4" points="140.1 136.47 139.32 135.36 133.38 135.36 134.02 136.47 140.1 136.47"/><polygon class="cls-4" points="126.75 135.36 127.26 136.47 133.38 136.47 132.73 135.36 126.75 135.36"/><polygon class="cls-4" points="113.2 136.47 112.94 135.36 106.88 135.36 107.01 136.47 113.2 136.47"/><polygon class="cls-4" points="141.29 138.18 140.51 137.06 134.37 137.06 135.01 138.18 141.29 138.18"/><polygon class="cls-4" points="155.12 138.18 154.09 137.06 148.03 137.06 148.93 138.18 155.12 138.18"/><polygon class="cls-4" points="148.21 138.18 147.3 137.06 141.2 137.06 141.97 138.18 148.21 138.18"/><polygon class="cls-4" points="79.28 137.06 73.07 137.06 72.55 138.18 78.89 138.18 79.28 137.06"/><polygon class="cls-4" points="48.06 134.76 53.85 134.76 54.75 133.65 49.09 133.65 48.06 134.76"/><path class="cls-4" d="M56.43,132.47l-.47.58H61.6l.54-.78H56.5A.29.29,0,0,1,56.43,132.47Z"/><path class="cls-4" d="M62.7,132.46l-.42.59H68l.45-.78H62.75A.32.32,0,0,1,62.7,132.46Z"/><polygon class="cls-4" points="73.34 136.47 79.49 136.47 79.88 135.36 73.86 135.36 73.34 136.47"/><polygon class="cls-4" points="43.55 138.77 36.9 138.77 35.75 139.89 42.52 139.89 43.55 138.77"/><path class="cls-4" d="M75.23,132.41l-.3.64h5.75l.27-.78H75.26A.32.32,0,0,1,75.23,132.41Z"/><path class="cls-4" d="M87.76,132.35l-.17.7h5.79l.09-.78H87.76Z"/><path class="cls-4" d="M99.73,132.27H94v0l-.09.74h5.8Z"/><polygon class="cls-4" points="99.73 133.65 93.86 133.65 93.73 134.76 99.73 134.76 99.73 133.65"/><path class="cls-4" d="M69,132.43l-.35.62h5.71l.36-.78H69A.3.3,0,0,1,69,132.43Z"/><path class="cls-4" d="M81.49,132.38l-.23.67H87l.18-.78h-5.7A.2.2,0,0,1,81.49,132.38Z"/><path class="cls-4" d="M40.85,141.68l1.11-1.2H35.13l-1.46,1.41h7.1A.32.32,0,0,1,40.85,141.68Z"/><polygon class="cls-4" points="151.13 133.05 157.16 133.05 156.36 132.27 150.41 132.27 151.13 133.05"/><polygon class="cls-4" points="163.1 138.77 156.45 138.77 157.48 139.89 164.25 139.89 163.1 138.77"/><path class="cls-4" d="M157.26,140.48h-6.45l1,1.21a.31.31,0,0,1,.07.2h6.71Z"/><path class="cls-4" d="M158,140.48l1.11,1.2a.32.32,0,0,1,.08.21h7.1l-1.46-1.41Z"/><polygon class="cls-4" points="99.73 135.36 93.66 135.36 93.53 136.47 99.73 136.47 99.73 135.36"/><polygon class="cls-4" points="48.87 133.05 49.59 132.27 43.64 132.27 42.84 133.05 48.87 133.05"/><path class="cls-4" d="M121.33,140.48h-6.64l.31,1.34a.17.17,0,0,1,0,.07h6.81Z"/><path class="cls-4" d="M128.52,140.48h-6.61l.45,1.31a.18.18,0,0,1,0,.1h6.8Z"/><path class="cls-4" d="M142.9,140.48h-6.55l.73,1.25a.32.32,0,0,1,0,.16h6.76Z"/><path class="cls-4" d="M150.08,140.48h-6.5l.86,1.23a.37.37,0,0,1,.05.18h6.74Z"/><path class="cls-4" d="M135.71,140.48h-6.58l.59,1.28a.31.31,0,0,1,0,.13h6.78Z"/><polygon class="cls-4" points="41.06 134.76 47.28 134.76 48.31 133.65 42.22 133.65 41.06 134.76"/><polygon class="cls-4" points="53.18 136.47 59.22 136.47 59.99 135.36 54.09 135.36 53.18 136.47"/><polygon class="cls-4" points="99.73 137.06 93.46 137.06 93.33 138.18 99.73 138.18 99.73 137.06"/><polygon class="cls-4" points="61.09 134.76 66.97 134.76 67.62 133.65 61.87 133.65 61.09 134.76"/><polygon class="cls-4" points="46.47 136.47 52.46 136.47 53.36 135.36 47.5 135.36 46.47 136.47"/><polygon class="cls-4" points="45.14 137.06 38.67 137.06 37.52 138.18 44.1 138.18 45.14 137.06"/><polygon class="cls-4" points="39.29 136.47 45.69 136.47 46.73 135.36 40.45 135.36 39.29 136.47"/><polygon class="cls-4" points="65.63 137.06 59.48 137.06 58.71 138.18 64.99 138.18 65.63 137.06"/><polygon class="cls-4" points="58.8 137.06 52.7 137.06 51.79 138.18 58.03 138.18 58.8 137.06"/><polygon class="cls-4" points="44.88 138.18 51.07 138.18 51.97 137.06 45.91 137.06 44.88 138.18"/><polygon class="cls-4" points="67.61 134.76 73.53 134.76 74.05 133.65 68.26 133.65 67.61 134.76"/><polygon class="cls-4" points="73.25 135.36 67.27 135.36 66.62 136.47 72.74 136.47 73.25 135.36"/><polygon class="cls-4" points="66.62 135.36 60.68 135.36 59.9 136.47 65.98 136.47 66.62 135.36"/><polygon class="cls-4" points="49.68 139.89 50.58 138.77 44.33 138.77 43.29 139.89 49.68 139.89"/><polygon class="cls-4" points="54.57 134.76 60.41 134.76 61.19 133.65 55.48 133.65 54.57 134.76"/><polygon class="cls-4" points="86.1 137.06 79.86 137.06 79.47 138.18 85.84 138.18 86.1 137.06"/><polygon class="cls-4" points="93.12 135.36 87.06 135.36 86.8 136.47 92.99 136.47 93.12 135.36"/><polygon class="cls-4" points="92.72 138.77 86.26 138.77 86 139.89 92.59 139.89 92.72 138.77"/><polygon class="cls-4" points="92.92 137.06 86.66 137.06 86.4 138.18 92.79 138.18 92.92 137.06"/><polygon class="cls-4" points="93.31 133.65 87.45 133.65 87.2 134.76 93.19 134.76 93.31 133.65"/><polygon class="cls-4" points="57.61 138.77 51.31 138.77 50.4 139.89 56.84 139.89 57.61 138.77"/><polygon class="cls-4" points="99.73 138.77 93.27 138.77 93.14 139.89 99.73 139.89 99.73 138.77"/><polygon class="cls-4" points="64.64 138.77 58.29 138.77 57.52 139.89 63.99 139.89 64.64 138.77"/><polygon class="cls-4" points="71.66 138.77 65.28 138.77 64.64 139.89 71.15 139.89 71.66 138.77"/><polygon class="cls-4" points="72.46 137.06 66.28 137.06 65.63 138.18 71.94 138.18 72.46 137.06"/><polygon class="cls-4" points="78.69 138.77 72.27 138.77 71.76 139.89 78.3 139.89 78.69 138.77"/><polygon class="cls-4" points="85.7 138.77 79.27 138.77 78.88 139.89 85.45 139.89 85.7 138.77"/><polygon class="cls-4" points="114.13 140.48 107.48 140.48 106.93 140.48 100.27 140.48 99.73 140.48 93.07 140.48 92.52 140.48 85.87 140.48 85.54 141.89 92.36 141.89 92.9 141.89 99.73 141.89 100.27 141.89 107.1 141.89 107.64 141.89 114.46 141.89 114.13 140.48"/><polygon class="cls-6" points="113.2 142.99 100 142.99 86.8 142.99 85.54 148.45 100 148.45 114.46 148.45 113.2 142.99"/><rect class="cls-7" x="56.01" y="128.97" width="5.74" height="2.19" rx="0.27"/><path class="cls-2" d="M129.59,52.73l-5-.08-8.23-.12L59.52,127.32H72.86Z"/><path class="cls-2" d="M98.86,52.41c-5.54,0-11,0-16.18.12L45,102.12l.62,25.2h.24l57-74.9Z"/><polygon class="cls-2" points="155.46 84.81 155.8 71.2 113.12 127.32 123.13 127.32 155.46 84.81"/><circle class="cls-6" cx="100.11" cy="49.95" r="0.9"/><text class="cls-8" transform="translate(55.86 100.88)"><tspan xml:space="preserve">11  Gen</tspan></text><text class="cls-9" transform="translate(76.16 85.06)">th</text></svg>