<svg width="30" height="29" viewBox="0 0 30 29" fill="none" xmlns="http://www.w3.org/2000/svg">
<path d="M15.1982 0C7.19001 0 0.698242 6.49177 0.698242 14.5C0.698242 22.5082 7.19001 29 15.1982 29C23.2065 29 29.6982 22.5082 29.6982 14.5C29.6982 6.49177 23.2065 0 15.1982 0ZM11.6488 20.5099H8.71251V11.0608H11.6488V20.5099ZM10.1625 9.90078C9.23512 9.90078 8.63548 9.24375 8.63548 8.43115C8.63548 7.60193 9.25324 6.96453 10.2003 6.96453C11.1473 6.96453 11.7273 7.60193 11.7454 8.43115C11.7454 9.24375 11.1473 9.90078 10.1625 9.90078ZM22.3727 20.5099H19.4365V15.2733C19.4365 14.0544 19.0105 13.2267 17.9487 13.2267C17.1376 13.2267 16.6558 13.7871 16.4428 14.3263C16.3643 14.5181 16.3446 14.79 16.3446 15.0604V20.5084H13.4069V14.0741C13.4069 12.8944 13.3691 11.9081 13.3299 11.0593H15.8809L16.0154 12.3718H16.0743C16.461 11.7556 17.408 10.8463 18.9924 10.8463C20.9242 10.8463 22.3727 12.1407 22.3727 14.9229V20.5099Z" fill="white"/>
</svg>
