<svg width="19" height="21" viewBox="0 0 19 21" fill="none" xmlns="http://www.w3.org/2000/svg">
<path d="M15.9605 7.45813C15.527 -1.33823 2.99202 -1.32526 2.56962 7.45813H0L1.18199 17.9256C1.36725 19.5929 2.37138 20.8694 4.45561 20.8657H14.0894C16.168 20.8657 17.1722 19.6115 17.363 18.2961L18.5357 7.45813H15.9605ZM5.08366 17.807C5.05031 16.4064 4.94286 12.0267 4.91507 10.7058C4.91507 9.27928 4.63902 7.06352 5.24298 5.73146C5.57721 4.98753 6.11048 4.35041 6.78395 3.89042C7.45742 3.43044 8.24488 3.16548 9.05943 3.12479C16.4052 3.38787 14.1968 14.1017 7.40687 11.5284C7.46245 13.0772 7.59214 16.223 7.64216 17.807H5.08366Z" fill="#48AFFF"/>
<path d="M8.57778 9.43859C8.89208 9.55016 9.22895 9.58288 9.55885 9.5339C9.88874 9.48491 10.2016 9.35571 10.4699 9.15763C10.7382 8.95955 10.9538 8.69864 11.0978 8.3978C11.2417 8.09696 11.3097 7.76539 11.2956 7.43218C11.2474 5.93524 9.52078 4.99039 8.2369 5.7648C7.90482 5.96147 7.63542 6.2484 7.46005 6.5922C7.28467 6.93599 7.21052 7.32253 7.24623 7.70682C7.28194 8.09111 7.42605 8.45735 7.66177 8.76295C7.8975 9.06854 8.21515 9.30092 8.57778 9.43303" fill="#48AFFF"/>
</svg>
