<?xml version="1.0" encoding="utf-8"?>
<!-- Generator: Adobe Illustrator 26.2.1, SVG Export Plug-In . SVG Version: 6.00 Build 0)  -->
<svg version="1.1" id="Layer_1" xmlns="http://www.w3.org/2000/svg" xmlns:xlink="http://www.w3.org/1999/xlink" x="0px" y="0px"
	 width="364px" height="364px" viewBox="0 0 364 364" style="enable-background:new 0 0 364 364;" xml:space="preserve">
<style type="text/css">
	.st0{fill:#AD8200;}
	.st1{fill:#30322D;}
	.st2{fill:#E3ECE9;}
	.st3{fill:#E4E6E5;}
	.st4{fill:#FFFFFF;}
	.st5{fill:#FFFC91;}
</style>
<g>
	<g>
		<path class="st0" d="M341.7,101.9c-5.8,0-10.4-4.7-10.4-10.4c0-5.8,4.7-10.4,10.4-10.4c0.7,0,1.3,0.1,2,0.2v-61H20.3v60.8
			c0.4-0.1,0.9-0.1,1.4-0.1c5.8,0,10.4,4.7,10.4,10.4c0,5.8-4.7,10.4-10.4,10.4c-0.5,0-0.9,0-1.4-0.1v241.8h323.3V101.7
			C343,101.9,342.4,101.9,341.7,101.9z"/>
		<path class="st1" d="M331.2,91.5c0-5.8,4.7-10.4,10.4-10.4V22.3H22.3v58.8c5.5,0.3,9.8,4.9,9.8,10.4c0,5.6-4.3,10.1-9.8,10.4
			v239.8h319.4V101.9C335.9,101.9,331.2,97.3,331.2,91.5z"/>
		<path class="st2" d="M286.2,52.8H77.8C64,52.8,52.7,64,52.7,77.9v208.3c0,13.8,11.2,25.1,25.1,25.1h77.3l3.3-11.3h47.2l3.3,11.3
			h77.3c13.8,0,25.1-11.2,25.1-25.1V77.8C311.2,64,300,52.8,286.2,52.8z"/>
		<path class="st1" d="M278,295H86c-9.4,0-17-7.6-17-17V86c0-9.4,7.6-17,17-17h192c9.4,0,17,7.6,17,17v192
			C295,287.4,287.4,295,278,295z"/>
		<path class="st3" d="M277.8,292.9H86.2c-8.3,0-15.1-6.8-15.1-15.1V86.2c0-8.3,6.8-15.1,15.1-15.1h191.6c8.3,0,15.1,6.8,15.1,15.1
			v191.6C292.9,286.1,286.1,292.9,277.8,292.9z"/>
		<circle class="st4" cx="32.1" cy="32.1" r="5.9"/>
		<circle class="st4" cx="331.9" cy="32.1" r="5.9"/>
		<circle class="st4" cx="331.9" cy="331.9" r="5.9"/>
		<circle class="st5" cx="244.8" cy="35.6" r="3.4"/>
		<circle class="st5" cx="241.4" cy="28.7" r="3.4"/>
		<circle class="st5" cx="236.8" cy="35.6" r="3.4"/>
		<circle class="st5" cx="233.3" cy="28.7" r="3.4"/>
		<circle class="st5" cx="244.8" cy="35.6" r="3.4"/>
		<circle class="st5" cx="241.4" cy="28.7" r="3.4"/>
		<circle class="st5" cx="252.8" cy="35.6" r="3.4"/>
		<circle class="st5" cx="249.4" cy="28.7" r="3.4"/>
		<circle class="st5" cx="260.8" cy="35.6" r="3.4"/>
		<circle class="st5" cx="257.4" cy="28.7" r="3.4"/>
		<circle class="st5" cx="268.8" cy="35.6" r="3.4"/>
		<circle class="st5" cx="265.4" cy="28.7" r="3.4"/>
		<circle class="st5" cx="276.8" cy="35.6" r="3.4"/>
		<circle class="st5" cx="273.4" cy="28.7" r="3.4"/>
		<circle class="st5" cx="284.8" cy="35.6" r="3.4"/>
		<circle class="st5" cx="281.4" cy="28.7" r="3.4"/>
		<circle class="st5" cx="292.9" cy="35.6" r="3.4"/>
		<circle class="st5" cx="289.4" cy="28.7" r="3.4"/>
		<circle class="st5" cx="300.9" cy="35.6" r="3.4"/>
		<circle class="st5" cx="297.5" cy="28.7" r="3.4"/>
		<circle class="st5" cx="308.9" cy="35.6" r="3.4"/>
		<circle class="st5" cx="305.5" cy="28.7" r="3.4"/>
		<circle class="st5" cx="316.9" cy="35.6" r="3.4"/>
		<circle class="st5" cx="313.5" cy="28.7" r="3.4"/>
		<circle class="st5" cx="228.7" cy="35.6" r="3.4"/>
		<circle class="st5" cx="225.3" cy="28.7" r="3.4"/>
		<circle class="st5" cx="220.7" cy="35.6" r="3.4"/>
		<circle class="st5" cx="217.3" cy="28.7" r="3.4"/>
		<circle class="st5" cx="140.5" cy="35.6" r="3.4"/>
		<circle class="st5" cx="137.1" cy="28.7" r="3.4"/>
		<circle class="st5" cx="132.5" cy="35.6" r="3.4"/>
		<circle class="st5" cx="129.1" cy="28.7" r="3.4"/>
		<circle class="st5" cx="140.5" cy="35.6" r="3.4"/>
		<circle class="st5" cx="137.1" cy="28.7" r="3.4"/>
		<circle class="st5" cx="148.6" cy="35.6" r="3.4"/>
		<circle class="st5" cx="145.1" cy="28.7" r="3.4"/>
		<circle class="st5" cx="156.6" cy="35.6" r="3.4"/>
		<circle class="st5" cx="153.2" cy="28.7" r="3.4"/>
		<circle class="st5" cx="164.6" cy="35.6" r="3.4"/>
		<circle class="st5" cx="161.2" cy="28.7" r="3.4"/>
		<circle class="st5" cx="172.6" cy="35.6" r="3.4"/>
		<circle class="st5" cx="169.2" cy="28.7" r="3.4"/>
		<circle class="st5" cx="180.6" cy="35.6" r="3.4"/>
		<circle class="st5" cx="177.2" cy="28.7" r="3.4"/>
		<circle class="st5" cx="188.6" cy="35.6" r="3.4"/>
		<circle class="st5" cx="185.2" cy="28.7" r="3.4"/>
		<circle class="st5" cx="196.7" cy="35.6" r="3.4"/>
		<circle class="st5" cx="193.2" cy="28.7" r="3.4"/>
		<circle class="st5" cx="204.7" cy="35.6" r="3.4"/>
		<circle class="st5" cx="201.2" cy="28.7" r="3.4"/>
		<circle class="st5" cx="212.7" cy="35.6" r="3.4"/>
		<circle class="st5" cx="209.3" cy="28.7" r="3.4"/>
		<circle class="st5" cx="124.5" cy="35.6" r="3.4"/>
		<circle class="st5" cx="121.1" cy="28.7" r="3.4"/>
		<circle class="st5" cx="116.5" cy="35.6" r="3.4"/>
		<circle class="st5" cx="113.1" cy="28.7" r="3.4"/>
		<circle class="st5" cx="178.3" cy="334.3" r="3.4"/>
		<circle class="st5" cx="174.9" cy="327.5" r="3.4"/>
		<circle class="st5" cx="170.3" cy="334.3" r="3.4"/>
		<circle class="st5" cx="166.9" cy="327.5" r="3.4"/>
		<circle class="st5" cx="178.3" cy="334.3" r="3.4"/>
		<circle class="st5" cx="174.9" cy="327.5" r="3.4"/>
		<circle class="st5" cx="186.4" cy="334.3" r="3.4"/>
		<circle class="st5" cx="182.9" cy="327.5" r="3.4"/>
		<circle class="st5" cx="194.4" cy="334.3" r="3.4"/>
		<circle class="st5" cx="190.9" cy="327.5" r="3.4"/>
		<circle class="st5" cx="202.4" cy="334.3" r="3.4"/>
		<circle class="st5" cx="199" cy="327.5" r="3.4"/>
		<circle class="st5" cx="210.4" cy="334.3" r="3.4"/>
		<circle class="st5" cx="207" cy="327.5" r="3.4"/>
		<circle class="st5" cx="218.4" cy="334.3" r="3.4"/>
		<circle class="st5" cx="215" cy="327.5" r="3.4"/>
		<circle class="st5" cx="226.4" cy="334.3" r="3.4"/>
		<circle class="st5" cx="223" cy="327.5" r="3.4"/>
		<circle class="st5" cx="234.4" cy="334.3" r="3.4"/>
		<circle class="st5" cx="231" cy="327.5" r="3.4"/>
		<circle class="st5" cx="242.5" cy="334.3" r="3.4"/>
		<circle class="st5" cx="239" cy="327.5" r="3.4"/>
		<circle class="st5" cx="250.5" cy="334.3" r="3.4"/>
		<circle class="st5" cx="247.1" cy="327.5" r="3.4"/>
		<circle class="st5" cx="162.3" cy="334.3" r="3.4"/>
		<circle class="st5" cx="158.9" cy="327.5" r="3.4"/>
		<circle class="st5" cx="154.3" cy="334.3" r="3.4"/>
		<circle class="st5" cx="150.9" cy="327.5" r="3.4"/>
		<circle class="st5" cx="74.1" cy="334.3" r="3.4"/>
		<circle class="st5" cx="70.7" cy="327.5" r="3.4"/>
		<circle class="st5" cx="66.1" cy="334.3" r="3.4"/>
		<circle class="st5" cx="62.7" cy="327.5" r="3.4"/>
		<circle class="st5" cx="74.1" cy="334.3" r="3.4"/>
		<circle class="st5" cx="70.7" cy="327.5" r="3.4"/>
		<circle class="st5" cx="82.1" cy="334.3" r="3.4"/>
		<circle class="st5" cx="78.7" cy="327.5" r="3.4"/>
		<circle class="st5" cx="90.1" cy="334.3" r="3.4"/>
		<circle class="st5" cx="86.7" cy="327.5" r="3.4"/>
		<circle class="st5" cx="98.2" cy="334.3" r="3.4"/>
		<circle class="st5" cx="94.7" cy="327.5" r="3.4"/>
		<circle class="st5" cx="106.2" cy="334.3" r="3.4"/>
		<circle class="st5" cx="102.8" cy="327.5" r="3.4"/>
		<circle class="st5" cx="114.2" cy="334.3" r="3.4"/>
		<circle class="st5" cx="110.8" cy="327.5" r="3.4"/>
		<circle class="st5" cx="122.2" cy="334.3" r="3.4"/>
		<circle class="st5" cx="118.8" cy="327.5" r="3.4"/>
		<circle class="st5" cx="130.2" cy="334.3" r="3.4"/>
		<circle class="st5" cx="126.8" cy="327.5" r="3.4"/>
		<circle class="st5" cx="138.2" cy="334.3" r="3.4"/>
		<circle class="st5" cx="134.8" cy="327.5" r="3.4"/>
		<circle class="st5" cx="146.3" cy="334.3" r="3.4"/>
		<circle class="st5" cx="142.8" cy="327.5" r="3.4"/>
		<circle class="st5" cx="58.1" cy="334.3" r="3.4"/>
		<circle class="st5" cx="54.7" cy="327.5" r="3.4"/>
		<circle class="st5" cx="50.1" cy="334.3" r="3.4"/>
		<circle class="st5" cx="46.7" cy="327.5" r="3.4"/>
		<path class="st2" d="M313.9,239.2l-13.5,9.7V115.1l13.5,9.7c5,3.6,8.1,11.2,8.1,19.5v75.5C322.1,228.1,318.9,235.6,313.9,239.2z"
			/>
		<path class="st2" d="M48.6,239.2l13.5,9.7V115.1l-13.5,9.7c-5,3.6-8.1,11.2-8.1,19.5v75.5C40.4,228.1,43.6,235.6,48.6,239.2z"/>
		<polygon class="st5" points="26.2,326 26.2,337.8 38,337.8 		"/>
		<circle class="st1" cx="84.6" cy="83.1" r="6.4"/>
	</g>
	<g>
		<path class="st1" d="M164.5,192c-2.1,2.5-4.5,4.4-7.3,5.7c-2.8,1.3-5.9,2-9.4,2c-3.1,0-6-0.6-8.7-1.7s-5-2.7-6.9-4.6
			s-3.5-4.2-4.6-6.9c-1.1-2.7-1.7-5.5-1.7-8.6s0.6-5.9,1.7-8.6c1.1-2.7,2.7-5,4.6-6.9c1.9-1.9,4.2-3.5,6.9-4.6s5.6-1.7,8.7-1.7
			c3.3,0,6.3,0.6,8.8,1.8s4.8,2.9,6.8,5.1l-5.5,5.4c-1.2-1.4-2.7-2.6-4.3-3.4c-1.6-0.9-3.5-1.3-5.7-1.3c-1.9,0-3.8,0.3-5.5,1
			s-3.2,1.6-4.5,2.9c-1.3,1.2-2.3,2.8-3,4.5c-0.7,1.8-1.1,3.7-1.1,5.9s0.4,4.2,1.1,5.9c0.7,1.8,1.7,3.3,3,4.5
			c1.3,1.2,2.8,2.2,4.5,2.9c1.7,0.7,3.5,1,5.5,1c2.3,0,4.4-0.5,6.2-1.4c1.8-1,3.4-2.3,4.8-4.1L164.5,192z"/>
		<path class="st1" d="M170.8,198.7v-41.8h14.7c2,0,3.8,0.3,5.6,1c1.7,0.6,3.2,1.5,4.5,2.7s2.3,2.6,3,4.2c0.7,1.6,1.1,3.4,1.1,5.3
			c0,2-0.4,3.8-1.1,5.4c-0.7,1.6-1.8,3-3,4.2s-2.8,2.1-4.5,2.7c-1.7,0.6-3.6,1-5.6,1h-6.8v15.3L170.8,198.7L170.8,198.7z
			 M185.6,175.9c2.1,0,3.6-0.6,4.7-1.8c1-1.2,1.6-2.5,1.6-4c0-0.7-0.1-1.5-0.4-2.2s-0.6-1.3-1.2-1.8c-0.5-0.5-1.2-0.9-2-1.3
			c-0.8-0.3-1.7-0.5-2.7-0.5h-6.9v11.5h6.9L185.6,175.9L185.6,175.9z"/>
		<path class="st1" d="M220.7,199.6c-2.5,0-4.7-0.4-6.7-1.2s-3.7-2-5.1-3.5s-2.5-3.4-3.3-5.5c-0.8-2.2-1.2-4.6-1.2-7.4v-25.1h7.9
			v25.6c0,1.4,0.2,2.7,0.5,3.9c0.4,1.2,0.9,2.2,1.6,3c0.7,0.9,1.6,1.5,2.6,2s2.3,0.7,3.6,0.7c1.4,0,2.6-0.2,3.7-0.7
			c1-0.5,1.9-1.2,2.6-2c0.7-0.9,1.2-1.9,1.6-3c0.4-1.2,0.5-2.5,0.5-3.9v-25.6h7.9V182c0,2.6-0.4,5-1.1,7.1c-0.8,2.2-1.8,4-3.3,5.5
			c-1.4,1.5-3.1,2.7-5.1,3.6C225.4,199.2,223.1,199.6,220.7,199.6z"/>
	</g>
</g>
</svg>
