<svg width="114" height="115" viewBox="0 0 114 115" fill="none" xmlns="http://www.w3.org/2000/svg">
<path d="M7.64181 0H56.5577V115H7.64181C5.61508 115 3.67135 114.195 2.23823 112.762C0.805117 111.329 0 109.385 0 107.358L0 7.64181C0 5.61508 0.805117 3.67135 2.23823 2.23823C3.67135 0.805117 5.61508 0 7.64181 0V0Z" fill="#A980F9"/>
<path d="M105.479 115H56.563L56.563 5.34058e-05H105.479C107.506 5.34058e-05 109.449 0.805183 110.882 2.2383C112.316 3.67142 113.121 5.61514 113.121 7.64187L113.121 107.358C113.121 109.385 112.316 111.329 110.882 112.762C109.449 114.195 107.506 115 105.479 115Z" fill="#3B3F79"/>
<path d="M79.944 26.1561H33.1716C28.7767 26.1561 25.2139 29.7189 25.2139 34.1138V80.8862C25.2139 85.2811 28.7767 88.8438 33.1716 88.8438H79.944C84.3389 88.8438 87.9016 85.2811 87.9016 80.8862V34.1138C87.9016 29.7189 84.3389 26.1561 79.944 26.1561Z" fill="#F8BE37"/>
<path d="M42.9723 19.0787H38.5922V26.1562H42.9723V19.0787Z" fill="white"/>
<path d="M58.7476 19.0787H54.3675V26.1562H58.7476V19.0787Z" fill="white"/>
<path d="M74.5232 19.0787H70.1431V26.1562H74.5232V19.0787Z" fill="white"/>
<path d="M42.9723 88.8439H38.5922V95.9213H42.9723V88.8439Z" fill="white"/>
<path d="M58.7476 88.8439H54.3675V95.9213H58.7476V88.8439Z" fill="white"/>
<path d="M74.5232 88.8439H70.1431V95.9213H74.5232V88.8439Z" fill="white"/>
<path d="M94.9791 43.9145V39.5344H87.9017V43.9145H94.9791Z" fill="white"/>
<path d="M94.9842 59.6901V55.31H87.9067V59.6901H94.9842Z" fill="white"/>
<path d="M94.9791 75.4655V71.0854H87.9017V75.4655H94.9791Z" fill="white"/>
<path d="M25.2139 43.9094V39.5294H18.1365V43.9094H25.2139Z" fill="white"/>
<path d="M25.2139 59.6901V55.31H18.1364V59.6901H25.2139Z" fill="white"/>
<path d="M25.2139 75.4655V71.0854H18.1365V75.4655H25.2139Z" fill="white"/>
<path d="M12.4724 9.84217C12.4724 10.4422 12.2944 11.0288 11.9611 11.5277C11.6277 12.0267 11.1538 12.4155 10.5995 12.6452C10.0451 12.8748 9.43506 12.9349 8.84653 12.8178C8.258 12.7008 7.71741 12.4118 7.2931 11.9875C6.8688 11.5632 6.57984 11.0226 6.46278 10.4341C6.34571 9.84554 6.4058 9.23551 6.63543 8.68113C6.86506 8.12675 7.25393 7.65291 7.75285 7.31954C8.25178 6.98616 8.83837 6.80823 9.43843 6.80823C9.83685 6.80823 10.2314 6.8867 10.5995 7.03917C10.9676 7.19164 11.302 7.41512 11.5837 7.69685C11.8655 7.97858 12.089 8.31304 12.2414 8.68113C12.3939 9.04923 12.4724 9.44375 12.4724 9.84217Z" fill="white"/>
<path d="M107.513 9.84217C107.513 10.4422 107.335 11.0288 107.002 11.5277C106.669 12.0267 106.195 12.4155 105.641 12.6452C105.086 12.8748 104.476 12.9349 103.888 12.8178C103.299 12.7008 102.758 12.4118 102.334 11.9875C101.91 11.5632 101.621 11.0226 101.504 10.4341C101.387 9.84554 101.447 9.23551 101.676 8.68113C101.906 8.12675 102.295 7.65291 102.794 7.31954C103.293 6.98616 103.879 6.80823 104.479 6.80823C105.284 6.80823 106.056 7.12787 106.625 7.69685C107.194 8.26582 107.513 9.03752 107.513 9.84217Z" fill="white"/>
<path d="M12.4724 105.225C12.4724 105.825 12.2944 106.412 11.9611 106.911C11.6277 107.409 11.1538 107.798 10.5995 108.028C10.0451 108.258 9.43506 108.318 8.84653 108.201C8.258 108.084 7.71741 107.795 7.2931 107.37C6.8688 106.946 6.57984 106.405 6.46278 105.817C6.34571 105.228 6.4058 104.618 6.63543 104.064C6.86506 103.51 7.25393 103.036 7.75285 102.702C8.25178 102.369 8.83837 102.191 9.43843 102.191C9.83685 102.191 10.2314 102.27 10.5995 102.422C10.9676 102.574 11.302 102.798 11.5837 103.08C11.8655 103.361 12.089 103.696 12.2414 104.064C12.3939 104.432 12.4724 104.827 12.4724 105.225Z" fill="white"/>
<path d="M107.513 105.225C107.513 105.825 107.335 106.412 107.002 106.911C106.669 107.409 106.195 107.798 105.641 108.028C105.086 108.258 104.476 108.318 103.888 108.201C103.299 108.084 102.758 107.795 102.334 107.37C101.91 106.946 101.621 106.405 101.504 105.817C101.387 105.228 101.447 104.618 101.676 104.064C101.906 103.51 102.295 103.036 102.794 102.702C103.293 102.369 103.879 102.191 104.479 102.191C105.284 102.191 106.056 102.511 106.625 103.08C107.194 103.649 107.513 104.42 107.513 105.225Z" fill="white"/>
</svg>
