<?xml version="1.0" encoding="utf-8"?>
<!-- Generator: Adobe Illustrator 26.2.1, SVG Export Plug-In . SVG Version: 6.00 Build 0)  -->
<svg version="1.1" id="Layer_1" xmlns="http://www.w3.org/2000/svg" xmlns:xlink="http://www.w3.org/1999/xlink" x="0px" y="0px"
	 width="427.5px" height="427.5px" viewBox="0 0 427.5 427.5" style="enable-background:new 0 0 427.5 427.5;" xml:space="preserve"
	>
<style type="text/css">
	.st0{fill:#373738;}
	.st1{fill:#636363;}
	.st2{fill:#5F5F5F;}
	.st3{fill:#5C5C5C;}
	.st4{fill:#585858;}
	.st5{fill:#555555;}
	.st6{fill:#515151;}
	.st7{fill:#4D4D4D;}
	.st8{fill:#4A4A4A;}
	.st9{fill:#464646;}
	.st10{fill:#424242;}
	.st11{fill:#3F3F3F;}
	.st12{fill:#3B3B3B;}
	.st13{fill:#383838;}
	.st14{fill:#343434;}
	.st15{fill:#303030;}
	.st16{fill:#2D2D2D;}
	.st17{fill:#292929;}
	.st18{fill:#252525;}
	.st19{fill:#222222;}
	.st20{fill:#1E1E1E;}
	.st21{fill:#1B1B1B;}
	.st22{fill:#171717;}
	.st23{fill:#1F1F1F;}
	.st24{fill:#232323;}
	.st25{fill:#272727;}
	.st26{fill:#2B2B2B;}
	.st27{fill:#2E2E2E;}
	.st28{fill:#323232;}
	.st29{fill:#363636;}
	.st30{fill:#3A3A3A;}
	.st31{fill:#3E3E3E;}
	.st32{fill:#4E4E4E;}
	.st33{fill:#525252;}
	.st34{fill:#595959;}
	.st35{fill:#5D5D5D;}
	.st36{fill:#616161;}
	.st37{fill:#656565;}
	.st38{fill:#696969;}
	.st39{fill:#6B6B6B;}
	.st40{fill:#6D6D6D;}
	.st41{fill:#6F6F6F;}
	.st42{fill:#717171;}
	.st43{fill:#737373;}
	.st44{fill:#747474;}
	.st45{fill:#767676;}
	.st46{fill:#787878;}
	.st47{fill:#7A7A7A;}
	.st48{fill:#7C7C7C;}
	.st49{fill:#7E7E7E;}
	.st50{fill:#808080;}
	.st51{fill:#828282;}
	.st52{fill:#848484;}
	.st53{fill:#868686;}
	.st54{fill:#878787;}
	.st55{fill:#898989;}
	.st56{fill:#8B8B8B;}
	.st57{fill:#8D8D8D;}
	.st58{fill:#8F8F8F;}
	.st59{fill:#919191;}
	.st60{fill:url(#SVGID_1_);}
	.st61{fill:#555557;}
	.st62{opacity:0.9615;fill:#525254;enable-background:new    ;}
	.st63{opacity:0.9231;fill:#4E4E50;enable-background:new    ;}
	.st64{opacity:0.8846;fill:#4B4B4D;enable-background:new    ;}
	.st65{opacity:0.8462;fill:#48484A;enable-background:new    ;}
	.st66{opacity:0.8077;fill:#454546;enable-background:new    ;}
	.st67{opacity:0.7692;fill:#414143;enable-background:new    ;}
	.st68{opacity:0.7308;fill:#3E3E40;enable-background:new    ;}
	.st69{opacity:0.6923;fill:#3B3B3C;enable-background:new    ;}
	.st70{opacity:0.6538;fill:#383839;enable-background:new    ;}
	.st71{opacity:0.6154;fill:#343436;enable-background:new    ;}
	.st72{opacity:0.5769;fill:#313132;enable-background:new    ;}
	.st73{opacity:0.5385;fill:#2E2E2F;enable-background:new    ;}
	.st74{opacity:0.5;fill:#2B2B2C;enable-background:new    ;}
	.st75{opacity:0.4615;fill:#272728;enable-background:new    ;}
	.st76{opacity:0.4231;fill:#242425;enable-background:new    ;}
	.st77{opacity:0.3846;fill:#212121;enable-background:new    ;}
	.st78{opacity:0.3462;fill:#1D1D1E;enable-background:new    ;}
	.st79{opacity:0.3077;fill:#1A1A1B;enable-background:new    ;}
	.st80{opacity:0.2692;fill:#171717;enable-background:new    ;}
	.st81{opacity:0.2308;fill:#141414;enable-background:new    ;}
	.st82{opacity:0.1923;fill:#101011;enable-background:new    ;}
	.st83{opacity:0.1538;fill:#0D0D0D;enable-background:new    ;}
	.st84{opacity:0.1154;fill:#0A0A0A;enable-background:new    ;}
	.st85{opacity:7.692308e-02;fill:#070707;enable-background:new    ;}
	.st86{opacity:3.846154e-02;fill:#030303;enable-background:new    ;}
	.st87{fill-opacity:0;}
	
		.st88{opacity:0.7;clip-path:url(#SVGID_00000053538915355966761890000001538441463501383581_);fill:url(#SVGID_00000135649127077262744910000008375484573787123383_);enable-background:new    ;}
	.st89{fill:#191919;}
	.st90{fill:url(#SVGID_00000019649976150888579570000005711149565659023014_);}
	.st91{fill:url(#SVGID_00000111193357044077754550000011592145553040193461_);}
	.st92{fill:url(#SVGID_00000158749623542085807860000001681526417778759321_);}
	.st93{fill:url(#SVGID_00000105412023231550170330000009799244941300392861_);}
	.st94{fill:url(#SVGID_00000164474332011118927170000014138078309043727518_);}
	.st95{fill:url(#SVGID_00000159445614325759199640000012659215260958239660_);}
	.st96{fill:url(#SVGID_00000173867078261274632270000005000052303063449015_);}
	.st97{fill:url(#SVGID_00000029758088098527870340000004216124671423290544_);}
	.st98{fill:url(#SVGID_00000141422822668716830510000016050733157714833545_);}
	.st99{fill:url(#SVGID_00000053504262220395242540000005196737816688544660_);}
	.st100{fill:url(#SVGID_00000131346077854211197190000015059382445036566657_);}
	.st101{fill:url(#SVGID_00000122716199989381667590000007208915344484588674_);}
	.st102{fill:url(#SVGID_00000110458288201464007400000014652389592612385723_);}
	.st103{fill:url(#SVGID_00000128457713083978371980000002496019197352907931_);}
	.st104{fill:url(#SVGID_00000072997880612613085840000013425177758788422539_);}
	.st105{fill:url(#SVGID_00000128485473193908564710000015736404948252266171_);}
	.st106{fill:url(#SVGID_00000034085345582947330760000004952983127945315715_);}
	.st107{fill:url(#SVGID_00000061470837141586442160000008465911705453602466_);}
	.st108{fill:url(#SVGID_00000013183340746443188830000012846092105981291930_);}
	.st109{fill:url(#SVGID_00000038412688519094789760000015269708754165112714_);}
	.st110{fill:url(#SVGID_00000052786694243419256550000016634043021895263928_);}
	.st111{fill:url(#SVGID_00000072251294824067210740000006132922400033540004_);}
	.st112{fill:url(#SVGID_00000066484478864649113080000001090042842839669649_);}
	.st113{fill:url(#SVGID_00000065075077062815815700000017249480862087257521_);}
	.st114{fill:url(#SVGID_00000083090432615113714840000006868805424665093270_);}
	.st115{fill:url(#SVGID_00000034769763711137067030000018236994127440173966_);}
	.st116{fill:url(#SVGID_00000019661765460060973970000004480464525493809542_);}
	.st117{fill:url(#SVGID_00000059992613399219650010000008394145539583214256_);}
	.st118{fill:url(#SVGID_00000139272995995677719840000003623846630622550662_);}
	.st119{fill:url(#SVGID_00000080896126095243042390000003776047136167346571_);}
	.st120{fill:url(#SVGID_00000094575809679624823330000011156983448526515897_);}
	.st121{fill:url(#SVGID_00000119091826835057322620000011803751051815685791_);}
	.st122{fill:url(#SVGID_00000009549585054303073070000010681784925308457869_);}
	.st123{fill:url(#SVGID_00000132808826172143855020000011641917283656364204_);}
	.st124{fill:url(#SVGID_00000107583293096351944890000013707270396358552254_);}
	.st125{fill:url(#SVGID_00000032614049433583357890000004139999315044938145_);}
	.st126{fill:url(#SVGID_00000164486150932093806210000006325759828551743110_);}
	.st127{fill:url(#SVGID_00000158711989631476107400000011585365492237995149_);}
	.st128{fill:url(#SVGID_00000075859731001624381740000005003462870213424807_);}
	.st129{fill:url(#SVGID_00000007396639952058258450000007145228068887913144_);}
	.st130{fill:url(#SVGID_00000016784932234857392500000009742350453972379539_);}
	.st131{fill:url(#SVGID_00000114059844178087188570000006522469453091455926_);}
	.st132{fill:url(#SVGID_00000018204961399767537360000009664785630794609069_);}
	.st133{fill:url(#SVGID_00000155867616019280028680000010233969397172013499_);}
	.st134{fill:url(#SVGID_00000126324497422469844030000013646113427890891448_);}
	.st135{fill:url(#SVGID_00000167361340318624947140000004823852703957850518_);}
	.st136{fill:url(#SVGID_00000176727148183219338930000009979380283270027934_);}
	.st137{fill:url(#SVGID_00000137103684880001901190000014814887227942212785_);}
	.st138{fill:url(#SVGID_00000073698916657575262890000006053913346307922579_);}
	.st139{fill:url(#SVGID_00000005262517860470360960000004072075221279232422_);}
	.st140{fill:url(#SVGID_00000104683032170730334920000015895220833977051785_);}
	.st141{fill:#353535;}
	.st142{fill:#393939;}
	.st143{fill:#434343;}
	.st144{fill:#474747;}
	.st145{fill:#4C4C4C;}
	.st146{fill:#505050;}
	.st147{fill:#5A5A5A;}
	.st148{fill:#5E5E5E;}
	.st149{fill:#676767;}
	.st150{fill:#6C6C6C;}
	.st151{fill:#757575;}
	.st152{fill:#7F7F7F;}
	.st153{fill:#838383;}
	.st154{fill:#888888;}
	.st155{fill:#8C8C8C;}
	.st156{fill:#909090;}
	.st157{fill:#8E8E8E;}
	.st158{fill:#8A8A8A;}
	.st159{fill:#858585;}
	.st160{fill:#818181;}
	.st161{fill:#7D7D7D;}
	.st162{fill:#7B7B7B;}
	.st163{fill:#797979;}
	.st164{fill:#777777;}
	.st165{fill:#969696;}
	.st166{opacity:0.5;}
	.st167{fill:#A2A2A2;}
	.st168{fill:#727272;}
	
		.st169{clip-path:url(#SVGID_00000075130533686537241740000000348738518396373137_);fill:url(#SVGID_00000174601514281153849370000002007270410248676997_);}
</style>
<g>
	<g>
		<g>
			<g>
				<path class="st0" d="M101,394c-25.1,0-45.5-20.4-45.5-45.5V78.7c0-25.1,20.4-45.5,45.5-45.5h214c25.1,0,45.5,20.4,45.5,45.5
					v269.8c0,25.1-20.4,45.5-45.5,45.5H101z"/>
				<g>
					<path class="st1" d="M315,409.2H101c-33.6,0-60.8-27.2-60.8-60.8V78.7c0-33.6,27.2-60.8,60.8-60.8h214
						c33.6,0,60.8,27.2,60.8,60.8v269.8C375.7,382,348.5,409.2,315,409.2z"/>
					<path class="st2" d="M101,409.1c-33.5,0-60.6-27.1-60.6-60.6V78.7c0-33.5,27.1-60.6,60.6-60.6h214c33.5,0,60.6,27.1,60.6,60.6
						v269.8c0,33.5-27.1,60.6-60.6,60.6H101z"/>
					<path class="st3" d="M101,409c-33.4,0-60.5-27.1-60.5-60.5V78.7c0-33.4,27.1-60.5,60.5-60.5h214c33.4,0,60.5,27.1,60.5,60.5
						v269.8c0,33.4-27.1,60.5-60.5,60.5H101z"/>
					<path class="st4" d="M101,408.9c-33.3,0-60.4-27-60.4-60.4V78.7c0-33.3,27-60.4,60.4-60.4h214c33.3,0,60.4,27,60.4,60.4v269.8
						c0,33.3-27,60.4-60.4,60.4H101z"/>
					<path class="st5" d="M101,408.7c-33.3,0-60.3-27-60.3-60.3V78.7c0-33.3,27-60.3,60.3-60.3h214c33.3,0,60.3,27,60.3,60.3v269.8
						c0,33.3-27,60.3-60.3,60.3L101,408.7L101,408.7z"/>
					<path class="st6" d="M101,408.6c-33.2,0-60.1-26.9-60.1-60.1V78.7c0-33.2,26.9-60.1,60.1-60.1h214c33.2,0,60.1,26.9,60.1,60.1
						v269.8c0,33.2-26.9,60.1-60.1,60.1H101z"/>
					<path class="st7" d="M101,408.5c-33.1,0-60-26.9-60-60V78.7c0-33.1,26.9-60,60-60h214c33.1,0,60,26.9,60,60v269.8
						c0,33.1-26.9,60-60,60H101z"/>
					<path class="st8" d="M101,408.4c-33.1,0-59.9-26.8-59.9-59.9V78.7c0-33.1,26.8-59.9,59.9-59.9h214c33.1,0,59.9,26.8,59.9,59.9
						v269.8c0,33.1-26.8,59.9-59.9,59.9H101z"/>
					<path class="st9" d="M101,408.3c-33,0-59.8-26.8-59.8-59.8V78.7c0-33,26.8-59.8,59.8-59.8h214c33,0,59.8,26.8,59.8,59.8v269.8
						c0,33-26.8,59.8-59.8,59.8L101,408.3L101,408.3z"/>
					<path class="st10" d="M101,408.1c-32.9,0-59.7-26.7-59.7-59.7V78.7C41.3,45.8,68,19,101,19h214c32.9,0,59.7,26.7,59.7,59.7
						v269.8c0,32.9-26.7,59.7-59.7,59.7H101L101,408.1L101,408.1z"/>
					<path class="st11" d="M101,408c-32.9,0-59.5-26.7-59.5-59.5V78.7c0-32.9,26.7-59.5,59.5-59.5h214c32.9,0,59.5,26.7,59.5,59.5
						v269.8c0,32.9-26.7,59.5-59.5,59.5H101z"/>
					<path class="st12" d="M101,407.9c-32.8,0-59.4-26.6-59.4-59.4V78.7c0-32.8,26.6-59.4,59.4-59.4h214c32.8,0,59.4,26.6,59.4,59.4
						v269.8c0,32.8-26.6,59.4-59.4,59.4H101z"/>
					<path class="st13" d="M101,407.8c-32.7,0-59.3-26.6-59.3-59.3V78.7c0-32.7,26.6-59.3,59.3-59.3h214c32.7,0,59.3,26.6,59.3,59.3
						v269.8c0,32.7-26.6,59.3-59.3,59.3L101,407.8L101,407.8z"/>
					<path class="st14" d="M101,407.7c-32.7,0-59.2-26.5-59.2-59.2V78.7c0-32.7,26.5-59.2,59.2-59.2h214c32.7,0,59.2,26.5,59.2,59.2
						v269.8c0,32.7-26.5,59.2-59.2,59.2H101z"/>
					<path class="st15" d="M101,407.5c-32.6,0-59.1-26.5-59.1-59.1V78.7c0-32.6,26.5-59.1,59.1-59.1h214c32.6,0,59.1,26.5,59.1,59.1
						v269.8c0,32.6-26.5,59.1-59.1,59.1H101L101,407.5L101,407.5z"/>
					<path class="st16" d="M101,407.4c-32.5,0-58.9-26.4-58.9-58.9V78.7c0-32.5,26.4-58.9,58.9-58.9h214c32.5,0,58.9,26.4,58.9,58.9
						v269.8c0,32.5-26.4,58.9-58.9,58.9H101z"/>
					<path class="st17" d="M101,407.3c-32.4,0-58.8-26.4-58.8-58.8V78.7c0-32.4,26.4-58.8,58.8-58.8h214c32.4,0,58.8,26.4,58.8,58.8
						v269.8c0,32.4-26.4,58.8-58.8,58.8L101,407.3L101,407.3z"/>
					<path class="st18" d="M101,407.2c-32.4,0-58.7-26.3-58.7-58.7V78.7C42.3,46.3,68.6,20,101,20h214c32.4,0,58.7,26.3,58.7,58.7
						v269.8c0,32.4-26.3,58.7-58.7,58.7H101z"/>
					<path class="st19" d="M101,407.1c-32.3,0-58.6-26.3-58.6-58.6V78.7c0-32.3,26.3-58.6,58.6-58.6h214c32.3,0,58.6,26.3,58.6,58.6
						v269.8c0,32.3-26.3,58.6-58.6,58.6H101z"/>
					<path class="st20" d="M101,406.9c-32.2,0-58.5-26.2-58.5-58.5V78.7c0-32.2,26.2-58.5,58.5-58.5h214c32.2,0,58.5,26.2,58.5,58.5
						v269.8c0,32.2-26.2,58.5-58.5,58.5H101L101,406.9L101,406.9z"/>
					<path class="st21" d="M101,406.8c-32.2,0-58.3-26.2-58.3-58.3V78.7c0-32.2,26.2-58.3,58.3-58.3h214c32.2,0,58.3,26.2,58.3,58.3
						v269.8c0,32.2-26.2,58.3-58.3,58.3L101,406.8L101,406.8z"/>
					<path class="st22" d="M101,406.7c-32.1,0-58.2-26.1-58.2-58.2V78.7c0-32.1,26.1-58.2,58.2-58.2h214c32.1,0,58.2,26.1,58.2,58.2
						v269.8c0,32.1-26.1,58.2-58.2,58.2H101z"/>
					<path class="st21" d="M101,406.6c-32,0-58.1-26.1-58.1-58.1V78.7c0-32,26.1-58.1,58.1-58.1h214c32,0,58.1,26.1,58.1,58.1v269.8
						c0,32-26.1,58.1-58.1,58.1H101z"/>
					<path class="st23" d="M101,406.5c-32,0-58-26-58-58V78.7c0-32,26-58,58-58h214c32,0,58,26,58,58v269.8c0,32-26,58-58,58H101z"
						/>
					<path class="st24" d="M101,406.3c-31.9,0-57.9-26-57.9-57.8V78.7c0-31.9,26-57.9,57.9-57.9h214c31.9,0,57.9,26,57.9,57.9v269.8
						c0,31.9-26,57.8-57.9,57.8L101,406.3L101,406.3z"/>
					<path class="st25" d="M101,406.2c-31.8,0-57.7-25.9-57.7-57.7V78.7C43.3,46.9,69.2,21,101,21h214c31.8,0,57.7,25.9,57.7,57.7
						v269.8c0,31.8-25.9,57.7-57.7,57.7H101z"/>
					<path class="st26" d="M101,406.1c-31.8,0-57.6-25.8-57.6-57.6V78.7c0-31.8,25.8-57.6,57.6-57.6h214c31.8,0,57.6,25.8,57.6,57.6
						v269.8c0,31.8-25.8,57.6-57.6,57.6H101z"/>
					<path class="st27" d="M101,406c-31.7,0-57.5-25.8-57.5-57.5V78.7c0-31.7,25.8-57.5,57.5-57.5h214c31.7,0,57.5,25.8,57.5,57.5
						v269.8c0,31.7-25.8,57.5-57.5,57.5H101z"/>
					<path class="st28" d="M101,405.8c-31.6,0-57.4-25.7-57.4-57.4V78.7c0-31.6,25.7-57.4,57.4-57.4h214c31.6,0,57.4,25.7,57.4,57.4
						v269.8c0,31.6-25.7,57.4-57.4,57.4L101,405.8L101,405.8z"/>
					<path class="st29" d="M101,405.7c-31.6,0-57.2-25.7-57.2-57.2V78.7c0-31.6,25.7-57.2,57.2-57.2h214c31.6,0,57.2,25.7,57.2,57.2
						v269.8c0,31.6-25.7,57.2-57.2,57.2H101z"/>
					<path class="st30" d="M101,405.6c-31.5,0-57.1-25.6-57.1-57.1V78.7c0-31.5,25.6-57.1,57.1-57.1h214c31.5,0,57.1,25.6,57.1,57.1
						v269.8c0,31.5-25.6,57.1-57.1,57.1H101z"/>
					<path class="st31" d="M101,405.5c-31.4,0-57-25.6-57-57V78.7c0-31.4,25.6-57,57-57h214c31.4,0,57,25.6,57,57v269.8
						c0,31.4-25.6,57-57,57H101z"/>
					<path class="st10" d="M101,405.4c-31.4,0-56.9-25.5-56.9-56.9V78.7c0-31.4,25.5-56.9,56.9-56.9h214c31.4,0,56.9,25.5,56.9,56.9
						v269.8c0,31.4-25.5,56.9-56.9,56.9H101z"/>
					<path class="st9" d="M101,405.2c-31.3,0-56.8-25.5-56.8-56.8V78.7c0-31.3,25.5-56.8,56.8-56.8h214c31.3,0,56.8,25.5,56.8,56.8
						v269.8c0,31.3-25.5,56.8-56.8,56.8L101,405.2L101,405.2z"/>
					<path class="st8" d="M101,405.1c-31.2,0-56.6-25.4-56.6-56.6V78.7c0-31.2,25.4-56.6,56.6-56.6h214c31.2,0,56.6,25.4,56.6,56.6
						v269.8c0,31.2-25.4,56.6-56.6,56.6H101z"/>
					<path class="st32" d="M101,405c-31.2,0-56.5-25.4-56.5-56.5V78.7c0-31.2,25.4-56.5,56.5-56.5h214c31.2,0,56.5,25.4,56.5,56.5
						v269.8c0,31.2-25.4,56.5-56.5,56.5H101z"/>
					<path class="st33" d="M101,404.9c-31.1,0-56.4-25.3-56.4-56.4V78.7c0-31.1,25.3-56.4,56.4-56.4h214c31.1,0,56.4,25.3,56.4,56.4
						v269.8c0,31.1-25.3,56.4-56.4,56.4H101z"/>
					<path class="st5" d="M101,404.8c-31,0-56.3-25.2-56.3-56.3V78.7c0-31,25.2-56.3,56.3-56.3h214c31,0,56.3,25.2,56.3,56.3v269.8
						c0,31-25.2,56.3-56.3,56.3L101,404.8L101,404.8z"/>
					<path class="st34" d="M101,404.6c-31,0-56.2-25.2-56.2-56.2V78.7c0-31,25.2-56.2,56.2-56.2h214c31,0,56.2,25.2,56.2,56.2v269.8
						c0,31-25.2,56.2-56.2,56.2H101L101,404.6L101,404.6z"/>
					<path class="st35" d="M101,404.5c-30.9,0-56-25.1-56-56V78.7c0-30.9,25.1-56,56-56h214c30.9,0,56,25.1,56,56v269.8
						c0,30.9-25.1,56-56,56H101z"/>
					<path class="st36" d="M101,404.4c-30.8,0-55.9-25.1-55.9-55.9V78.7c0-30.8,25.1-55.9,55.9-55.9h214c30.8,0,55.9,25.1,55.9,55.9
						v269.8c0,30.8-25.1,55.9-55.9,55.9H101z"/>
					<path class="st37" d="M101,404.3c-30.8,0-55.8-25-55.8-55.8V78.7c0-30.8,25-55.8,55.8-55.8h214c30.8,0,55.8,25,55.8,55.8v269.8
						c0,30.8-25,55.8-55.8,55.8L101,404.3L101,404.3z"/>
					<path class="st38" d="M101,404.2c-30.7,0-55.7-25-55.7-55.7V78.7C45.3,48,70.3,23,101,23h214c30.7,0,55.7,25,55.7,55.7v269.8
						c0,30.7-25,55.7-55.7,55.7H101z"/>
					<path class="st39" d="M101,404c-30.6,0-55.6-24.9-55.6-55.6V78.7c0-30.6,24.9-55.6,55.6-55.6h214c30.6,0,55.6,24.9,55.6,55.6
						v269.8c0,30.6-24.9,55.6-55.6,55.6H101L101,404L101,404z"/>
					<path class="st40" d="M101,403.9c-30.6,0-55.4-24.9-55.4-55.4V78.7c0-30.6,24.9-55.4,55.4-55.4h214c30.6,0,55.4,24.9,55.4,55.4
						v269.8c0,30.6-24.9,55.4-55.4,55.4H101z"/>
					<path class="st41" d="M101,403.8c-30.5,0-55.3-24.8-55.3-55.3V78.7c0-30.5,24.8-55.3,55.3-55.3h214c30.5,0,55.3,24.8,55.3,55.3
						v269.8c0,30.5-24.8,55.3-55.3,55.3L101,403.8L101,403.8z"/>
					<path class="st42" d="M101,403.7c-30.4,0-55.2-24.8-55.2-55.2V78.7c0-30.4,24.8-55.2,55.2-55.2h214c30.4,0,55.2,24.8,55.2,55.2
						v269.8c0,30.4-24.8,55.2-55.2,55.2H101z"/>
					<path class="st43" d="M101,403.6c-30.4,0-55.1-24.7-55.1-55.1V78.7c0-30.4,24.7-55.1,55.1-55.1h214c30.4,0,55.1,24.7,55.1,55.1
						v269.8c0,30.4-24.7,55.1-55.1,55.1H101z"/>
					<path class="st44" d="M101,403.4c-30.3,0-55-24.7-55-54.9V78.7c0-30.3,24.7-55,55-55h214c30.3,0,55,24.7,55,55v269.8
						c0,30.3-24.7,54.9-55,54.9H101z"/>
					<path class="st45" d="M101,403.3c-30.2,0-54.8-24.6-54.8-54.8V78.7c0-30.2,24.6-54.8,54.8-54.8h214c30.2,0,54.8,24.6,54.8,54.8
						v269.8c0,30.2-24.6,54.8-54.8,54.8L101,403.3L101,403.3z"/>
					<path class="st46" d="M101,403.2c-30.2,0-54.7-24.5-54.7-54.7V78.7C46.3,48.5,70.8,24,101,24h214c30.2,0,54.7,24.5,54.7,54.7
						v269.8c0,30.2-24.5,54.7-54.7,54.7H101z"/>
					<path class="st47" d="M101,403.1c-30.1,0-54.6-24.5-54.6-54.6V78.7c0-30.1,24.5-54.6,54.6-54.6h214c30.1,0,54.6,24.5,54.6,54.6
						v269.8c0,30.1-24.5,54.6-54.6,54.6H101z"/>
					<path class="st48" d="M101,402.9c-30,0-54.5-24.4-54.5-54.5V78.7c0-30,24.4-54.5,54.5-54.5h214c30,0,54.5,24.4,54.5,54.5v269.8
						c0,30-24.4,54.5-54.5,54.5H101L101,402.9L101,402.9z"/>
					<path class="st49" d="M101,402.8c-30,0-54.3-24.4-54.3-54.3V78.7c0-30,24.4-54.3,54.3-54.3h214c30,0,54.3,24.4,54.3,54.3v269.8
						c0,30-24.4,54.3-54.3,54.3L101,402.8L101,402.8z"/>
					<path class="st50" d="M101,402.7c-29.9,0-54.2-24.3-54.2-54.2V78.7c0-29.9,24.3-54.2,54.2-54.2h214c29.9,0,54.2,24.3,54.2,54.2
						v269.8c0,29.9-24.3,54.2-54.2,54.2H101z"/>
					<path class="st51" d="M101,402.6c-29.8,0-54.1-24.3-54.1-54.1V78.7c0-29.8,24.3-54.1,54.1-54.1h214c29.8,0,54.1,24.3,54.1,54.1
						v269.8c0,29.8-24.3,54.1-54.1,54.1H101z"/>
					<path class="st52" d="M101,402.5c-29.8,0-54-24.2-54-54V78.7c0-29.8,24.2-54,54-54h214c29.8,0,54,24.2,54,54v269.8
						c0,29.8-24.2,54-54,54H101z"/>
					<path class="st53" d="M101,402.3c-29.7,0-53.9-24.2-53.9-53.9V78.7c0-29.7,24.2-53.9,53.9-53.9h214c29.7,0,53.9,24.2,53.9,53.9
						v269.8c0,29.7-24.2,53.9-53.9,53.9L101,402.3L101,402.3z"/>
					<path class="st54" d="M101,402.2c-29.6,0-53.7-24.1-53.7-53.7V78.7C47.3,49.1,71.4,25,101,25h214c29.6,0,53.7,24.1,53.7,53.7
						v269.8c0,29.6-24.1,53.7-53.7,53.7H101z"/>
					<path class="st55" d="M101,402.1c-29.6,0-53.6-24.1-53.6-53.6V78.7c0-29.6,24.1-53.6,53.6-53.6h214c29.6,0,53.6,24.1,53.6,53.6
						v269.8c0,29.6-24.1,53.6-53.6,53.6H101z"/>
					<path class="st56" d="M101,402c-29.5,0-53.5-24-53.5-53.5V78.7c0-29.5,24-53.5,53.5-53.5h214c29.5,0,53.5,24,53.5,53.5v269.8
						c0,29.5-24,53.5-53.5,53.5H101z"/>
					<path class="st57" d="M101,401.9c-29.4,0-53.4-23.9-53.4-53.4V78.7c0-29.4,23.9-53.4,53.4-53.4h214c29.4,0,53.4,23.9,53.4,53.4
						v269.8c0,29.4-23.9,53.4-53.4,53.4H101z"/>
					<path class="st58" d="M101,401.7c-29.4,0-53.3-23.9-53.3-53.3V78.7c0-29.4,23.9-53.3,53.3-53.3h214c29.4,0,53.3,23.9,53.3,53.3
						v269.8c0,29.4-23.9,53.3-53.3,53.3L101,401.7L101,401.7z"/>
					<path class="st59" d="M101,401.6c-29.3,0-53.1-23.8-53.1-53.1V78.7c0-29.3,23.8-53.1,53.1-53.1h214c29.3,0,53.1,23.8,53.1,53.1
						v269.8c0,29.3-23.8,53.1-53.1,53.1H101z"/>
				</g>
				<path d="M101,395c-25.7,0-46.5-20.9-46.5-46.5V78.7c0-25.7,20.9-46.5,46.5-46.5h214c25.7,0,46.5,20.9,46.5,46.5v269.8
					c0,25.7-20.9,46.5-46.5,46.5H101z"/>
				
					<linearGradient id="SVGID_1_" gradientUnits="userSpaceOnUse" x1="55.5255" y1="149.5755" x2="360.5255" y2="149.5755" gradientTransform="matrix(1 0 0 1 0 64)">
					<stop  offset="0" style="stop-color:#0D0D0D"/>
					<stop  offset="1" style="stop-color:#0D0D0D"/>
				</linearGradient>
				<path class="st60" d="M101,394c-25.1,0-45.5-20.4-45.5-45.5V78.7c0-25.1,20.4-45.5,45.5-45.5h214c25.1,0,45.5,20.4,45.5,45.5
					v269.8c0,25.1-20.4,45.5-45.5,45.5H101z"/>
				<g>
					<path class="st61" d="M101,394c-25.1,0-45.5-20.4-45.5-45.5V78.7c0-25.1,20.4-45.5,45.5-45.5h214c25.1,0,45.5,20.4,45.5,45.5
						v269.8c0,25.1-20.4,45.5-45.5,45.5H101z"/>
					<path class="st62" d="M57.1,348.1V78.8c0-24.9,20.3-45.2,45.2-45.2h211.3c24.9,0,45.2,20.3,45.2,45.2v269.4
						c0,24.9-20.3,45.2-45.2,45.2H102.3C77.4,393.3,57.1,373.1,57.1,348.1z"/>
					<path class="st63" d="M58.8,347.8v-269c0-24.8,20.1-44.9,44.9-44.9h208.6c24.8,0,44.9,20.1,44.9,44.9v269
						c0,24.8-20.1,44.9-44.9,44.9H103.7C78.9,392.7,58.8,372.5,58.8,347.8z"/>
					<path class="st64" d="M60.4,347.4V78.8c0-24.6,20-44.6,44.6-44.6h205.9c24.6,0,44.6,20,44.6,44.6v268.6
						c0,24.6-20,44.6-44.6,44.6H105C80.4,392,60.4,372,60.4,347.4z"/>
					<path class="st65" d="M62.1,347.1V78.9c0-24.4,19.9-44.3,44.3-44.3h203.2c24.4,0,44.3,19.9,44.3,44.3v268.2
						c0,24.4-19.9,44.3-44.3,44.3H106.4C82,391.4,62.1,371.5,62.1,347.1z"/>
					<path class="st66" d="M63.8,346.7V78.9c0-24.2,19.7-44,44-44h200.4c24.2,0,44,19.7,44,44v267.8c0,24.2-19.7,44-44,44H107.7
						C83.5,390.7,63.8,371,63.8,346.7z"/>
					<path class="st67" d="M65.4,346.4V78.9c0-24.1,19.6-43.6,43.6-43.6h197.7c24.1,0,43.6,19.6,43.6,43.6v267.5
						c0,24.1-19.6,43.6-43.6,43.6H109.1C85,390,65.4,370.5,65.4,346.4z"/>
					<path class="st68" d="M67.1,346V79c0-23.9,19.4-43.3,43.3-43.3h195c23.9,0,43.3,19.4,43.3,43.3v267.1
						c0,23.9-19.4,43.3-43.3,43.3h-195C86.6,389.4,67.1,369.9,67.1,346z"/>
					<path class="st69" d="M68.8,345.7V79c0-23.7,19.3-43,43-43h192.3c23.7,0,43,19.3,43,43v266.7c0,23.7-19.3,43-43,43H111.8
						C88.1,388.7,68.8,369.4,68.8,345.7z"/>
					<path class="st70" d="M70.5,345.3V79c0-23.6,19.1-42.7,42.7-42.7h189.6c23.6,0,42.7,19.1,42.7,42.7v266.3
						c0,23.6-19.1,42.7-42.7,42.7H113.2C89.6,388,70.5,368.9,70.5,345.3z"/>
					<path class="st71" d="M72.1,345V79.1c0-23.4,19-42.4,42.4-42.4h186.9c23.4,0,42.4,19,42.4,42.4V345c0,23.4-19,42.4-42.4,42.4
						H114.5C91.1,387.4,72.1,368.4,72.1,345z"/>
					<path class="st72" d="M73.8,344.6V79.1c0-23.2,18.9-42.1,42.1-42.1H300c23.2,0,42.1,18.9,42.1,42.1v265.5
						c0,23.2-18.9,42.1-42.1,42.1H115.9C92.7,386.7,73.8,367.8,73.8,344.6z"/>
					<path class="st73" d="M75.5,344.3V79.1c0-23,18.7-41.8,41.8-41.8h181.4c23,0,41.8,18.7,41.8,41.8v265.1
						c0,23-18.7,41.8-41.8,41.8H117.2C94.2,386,75.5,367.3,75.5,344.3z"/>
					<path class="st74" d="M77.1,343.9V79.2c0-22.9,18.6-41.5,41.5-41.5h178.7c22.9,0,41.5,18.6,41.5,41.5V344
						c0,22.9-18.6,41.5-41.5,41.5H118.6C95.7,385.4,77.1,366.8,77.1,343.9z"/>
					<path class="st75" d="M78.8,343.6V79.2c0-22.7,18.4-41.1,41.1-41.1h176c22.7,0,41.1,18.4,41.1,41.1v264.4
						c0,22.7-18.4,41.1-41.1,41.1h-176C97.3,384.7,78.8,366.3,78.8,343.6z"/>
					<path class="st76" d="M80.5,343.2v-264c0-22.5,18.3-40.8,40.8-40.8h173.3c22.5,0,40.8,18.3,40.8,40.8v264
						c0,22.5-18.3,40.8-40.8,40.8H121.3C98.8,384.1,80.5,365.8,80.5,343.2z"/>
					<path class="st77" d="M82.2,342.9V79.3c0-22.4,18.2-40.5,40.5-40.5h170.5c22.4,0,40.5,18.2,40.5,40.5v263.6
						c0,22.4-18.2,40.5-40.5,40.5H122.7C100.3,383.4,82.2,365.2,82.2,342.9z"/>
					<path class="st78" d="M83.8,342.5V79.3c0-22.2,18-40.2,40.2-40.2h167.9c22.2,0,40.2,18,40.2,40.2v263.2
						c0,22.2-18,40.2-40.2,40.2H124C101.8,382.7,83.8,364.7,83.8,342.5z"/>
					<path class="st79" d="M85.5,342.2V79.3c0-22,17.9-39.9,39.9-39.9h165.1c22,0,39.9,17.9,39.9,39.9v262.8
						c0,22-17.9,39.9-39.9,39.9H125.4C103.4,382.1,85.5,364.2,85.5,342.2z"/>
					<path class="st80" d="M87.2,341.8V79.4c0-21.8,17.7-39.6,39.6-39.6h162.4c21.8,0,39.6,17.7,39.6,39.6v262.4
						c0,21.8-17.7,39.6-39.6,39.6H126.7C104.9,381.4,87.2,363.7,87.2,341.8z"/>
					<path class="st81" d="M88.8,341.5V79.4c0-21.7,17.6-39.3,39.3-39.3h159.7c21.7,0,39.3,17.6,39.3,39.3v262.1
						c0,21.7-17.6,39.3-39.3,39.3H128.1C106.4,380.7,88.8,363.1,88.8,341.5z"/>
					<path class="st82" d="M90.5,341.1V79.4c0-21.5,17.4-39,39-39h157c21.5,0,39,17.4,39,39v261.7c0,21.5-17.4,39-39,39h-157
						C108,380.1,90.5,362.6,90.5,341.1z"/>
					<path class="st83" d="M92.2,340.8V79.5c0-21.3,17.3-38.6,38.6-38.6h154.3c21.3,0,38.6,17.3,38.6,38.6v261.3
						c0,21.3-17.3,38.6-38.6,38.6H130.8C109.5,379.4,92.2,362.1,92.2,340.8z"/>
					<path class="st84" d="M93.9,340.4V79.5c0-21.2,17.2-38.3,38.3-38.3h151.6c21.2,0,38.3,17.2,38.3,38.3v260.9
						c0,21.2-17.2,38.3-38.3,38.3H132.2C111,378.7,93.9,361.6,93.9,340.4z"/>
					<path class="st85" d="M95.5,340.1V79.6c0-21,17-38,38-38h148.8c21,0,38,17,38,38v260.5c0,21-17,38-38,38H133.5
						C112.5,378.1,95.5,361.1,95.5,340.1z"/>
					<path class="st86" d="M97.2,339.7V79.6c0-20.8,16.9-37.7,37.7-37.7H281c20.8,0,37.7,16.9,37.7,37.7v260.1
						c0,20.8-16.9,37.7-37.7,37.7H134.9C114.1,377.4,97.2,360.5,97.2,339.7z"/>
					<path class="st87" d="M98.9,339.4V79.6c0-20.6,16.7-37.4,37.4-37.4h143.4c20.6,0,37.4,16.7,37.4,37.4v259.7
						c0,20.6-16.7,37.4-37.4,37.4H136.3C115.6,376.7,98.9,360,98.9,339.4z"/>
				</g>
			</g>
			<g>
				<g>
					<g>
						<defs>
							<path id="SVGID_00000021837588498380592480000016503128405484121993_" d="M360.5,81.3v-2.6c0-25.1-20.4-45.5-45.5-45.5H101
								c-25.1,0-45.5,20.4-45.5,45.5v2.6H360.5z"/>
						</defs>
						<clipPath id="SVGID_00000047033046792866880700000011252130631102678680_">
							<use xlink:href="#SVGID_00000021837588498380592480000016503128405484121993_"  style="overflow:visible;"/>
						</clipPath>
						
							<linearGradient id="SVGID_00000101794420062543517860000005344916777213154751_" gradientUnits="userSpaceOnUse" x1="207.9259" y1="-11.1289" x2="207.9259" y2="-40.984" gradientTransform="matrix(1 0 0 1 0 64)">
							<stop  offset="2.947150e-02" style="stop-color:#101010"/>
							<stop  offset="0.1213" style="stop-color:#2C2C2C"/>
							<stop  offset="0.438" style="stop-color:#888888"/>
							<stop  offset="0.581" style="stop-color:#ADADAD"/>
							<stop  offset="1" style="stop-color:#ADADAD"/>
						</linearGradient>
						
							<path style="opacity:0.7;clip-path:url(#SVGID_00000047033046792866880700000011252130631102678680_);fill:url(#SVGID_00000101794420062543517860000005344916777213154751_);enable-background:new    ;" d="
							M304.4,23c-16.2,0-96.4,0-96.4,0s-80.2,0-96.4,0s-25.9,6.6-25.9,12.5c0,7,14.8,17.3,30.9,17.3c16.2,0,91.3,0,91.3,0
							s75.2,0,91.3,0c16.2,0,30.9-10.4,30.9-17.3C330.2,29.6,320.5,23,304.4,23z"/>
					</g>
				</g>
			</g>
			<g>
				<g>
					<path class="st89" d="M383.9,114.6h-3.3c-5.8,0-8.5,19.1-8.5,28.3s2.7,28.3,8.5,28.3h3.3c1.8,0,3.3-1.7,3.3-3.7v-49.2
						C387.2,116.3,385.7,114.6,383.9,114.6z"/>
					
						<linearGradient id="SVGID_00000080915020165289531880000013324087912676028586_" gradientUnits="userSpaceOnUse" x1="372.1255" y1="78.8755" x2="387.2255" y2="78.8755" gradientTransform="matrix(1 0 0 1 0 64)">
						<stop  offset="2.947150e-02" style="stop-color:#191919"/>
						<stop  offset="0.581" style="stop-color:#1F1F1F"/>
						<stop  offset="1" style="stop-color:#1F1F1F"/>
					</linearGradient>
					<path style="fill:url(#SVGID_00000080915020165289531880000013324087912676028586_);" d="M383.9,114.7h-3.3
						c-5.8,0-8.5,19.1-8.5,28.2c0,9.1,2.7,28.2,8.5,28.2h3.3c1.8,0,3.3-1.7,3.3-3.7v-49.1C387.2,116.4,385.7,114.7,383.9,114.7z"/>
					
						<linearGradient id="SVGID_00000075883833298582940420000005484729727381312661_" gradientUnits="userSpaceOnUse" x1="372.1255" y1="78.9755" x2="387.2255" y2="78.9755" gradientTransform="matrix(1 0 0 1 0 64)">
						<stop  offset="2.947150e-02" style="stop-color:#181818"/>
						<stop  offset="0.581" style="stop-color:#242424"/>
						<stop  offset="1" style="stop-color:#242424"/>
					</linearGradient>
					<path style="fill:url(#SVGID_00000075883833298582940420000005484729727381312661_);" d="M383.9,114.8h-3.3
						c-5.8,0-8.5,19.1-8.5,28.2c0,9.1,2.7,28.2,8.5,28.2h3.3c1.8,0,3.3-1.6,3.3-3.7v-49C387.2,116.4,385.7,114.8,383.9,114.8z"/>
					
						<linearGradient id="SVGID_00000140701212923076244020000005288819315194832532_" gradientUnits="userSpaceOnUse" x1="372.1255" y1="78.8755" x2="387.2255" y2="78.8755" gradientTransform="matrix(1 0 0 1 0 64)">
						<stop  offset="2.947150e-02" style="stop-color:#181818"/>
						<stop  offset="0.581" style="stop-color:#2A2A2A"/>
						<stop  offset="1" style="stop-color:#2A2A2A"/>
					</linearGradient>
					<path style="fill:url(#SVGID_00000140701212923076244020000005288819315194832532_);" d="M383.9,114.8h-3.3
						c-5.8,0-8.5,19.1-8.5,28.1c0,9.1,2.7,28.1,8.5,28.1h3.3c1.8,0,3.3-1.6,3.3-3.7v-48.9C387.2,116.5,385.7,114.8,383.9,114.8z"/>
					
						<linearGradient id="SVGID_00000059277929180479295440000014991885321551021998_" gradientUnits="userSpaceOnUse" x1="372.1255" y1="78.9755" x2="387.2255" y2="78.9755" gradientTransform="matrix(1 0 0 1 0 64)">
						<stop  offset="2.947150e-02" style="stop-color:#181818"/>
						<stop  offset="0.581" style="stop-color:#303030"/>
						<stop  offset="1" style="stop-color:#303030"/>
					</linearGradient>
					<path style="fill:url(#SVGID_00000059277929180479295440000014991885321551021998_);" d="M383.9,114.9h-3.3
						c-5.8,0-8.5,19-8.5,28.1c0,9,2.7,28.1,8.5,28.1h3.3c1.8,0,3.3-1.6,3.3-3.7v-48.9C387.2,116.5,385.7,114.9,383.9,114.9z"/>
					
						<linearGradient id="SVGID_00000029766023219205718740000003162274905091488170_" gradientUnits="userSpaceOnUse" x1="372.1255" y1="78.8755" x2="387.2255" y2="78.8755" gradientTransform="matrix(1 0 0 1 0 64)">
						<stop  offset="2.947150e-02" style="stop-color:#171717"/>
						<stop  offset="0.581" style="stop-color:#353535"/>
						<stop  offset="1" style="stop-color:#353535"/>
					</linearGradient>
					<path style="fill:url(#SVGID_00000029766023219205718740000003162274905091488170_);" d="M383.9,114.9h-3.3
						c-5.8,0-8.5,19-8.5,28s2.7,28,8.5,28h3.3c1.8,0,3.3-1.6,3.3-3.6v-48.7C387.2,116.6,385.7,114.9,383.9,114.9z"/>
					
						<linearGradient id="SVGID_00000165226920830653183880000010533354442598639511_" gradientUnits="userSpaceOnUse" x1="372.1255" y1="78.9755" x2="387.2255" y2="78.9755" gradientTransform="matrix(1 0 0 1 0 64)">
						<stop  offset="2.947150e-02" style="stop-color:#171717"/>
						<stop  offset="0.581" style="stop-color:#3B3B3B"/>
						<stop  offset="1" style="stop-color:#3B3B3B"/>
					</linearGradient>
					<path style="fill:url(#SVGID_00000165226920830653183880000010533354442598639511_);" d="M383.9,115h-3.3c-5.8,0-8.5,19-8.5,28
						s2.7,28,8.5,28h3.3c1.8,0,3.3-1.6,3.3-3.6v-48.8C387.2,116.6,385.7,115,383.9,115z"/>
					
						<linearGradient id="SVGID_00000153666739488666505680000011383620268442309767_" gradientUnits="userSpaceOnUse" x1="372.1255" y1="78.8755" x2="387.2255" y2="78.8755" gradientTransform="matrix(1 0 0 1 0 64)">
						<stop  offset="2.947150e-02" style="stop-color:#171717"/>
						<stop  offset="9.779778e-02" style="stop-color:#1D1D1D"/>
						<stop  offset="0.581" style="stop-color:#414141"/>
						<stop  offset="1" style="stop-color:#414141"/>
					</linearGradient>
					<path style="fill:url(#SVGID_00000153666739488666505680000011383620268442309767_);" d="M383.9,115h-3.3
						c-5.8,0-8.5,19-8.5,27.9c0,9,2.7,27.9,8.5,27.9h3.3c1.8,0,3.3-1.6,3.3-3.6v-48.6C387.2,116.7,385.7,115,383.9,115z"/>
					
						<linearGradient id="SVGID_00000085246480509805576370000011163665263490165641_" gradientUnits="userSpaceOnUse" x1="372.1255" y1="78.9755" x2="387.2255" y2="78.9755" gradientTransform="matrix(1 0 0 1 0 64)">
						<stop  offset="2.947150e-02" style="stop-color:#161616"/>
						<stop  offset="0.1623" style="stop-color:#232323"/>
						<stop  offset="0.581" style="stop-color:#474747"/>
						<stop  offset="1" style="stop-color:#474747"/>
					</linearGradient>
					<path style="fill:url(#SVGID_00000085246480509805576370000011163665263490165641_);" d="M383.9,115.1h-3.3
						c-5.8,0-8.5,18.9-8.5,27.9c0,8.9,2.7,27.9,8.5,27.9h3.3c1.8,0,3.3-1.6,3.3-3.6v-48.5C387.2,116.7,385.7,115.1,383.9,115.1z"/>
					
						<linearGradient id="SVGID_00000116954897981818032760000012396742682902488192_" gradientUnits="userSpaceOnUse" x1="372.1255" y1="78.8755" x2="387.2255" y2="78.8755" gradientTransform="matrix(1 0 0 1 0 64)">
						<stop  offset="2.947150e-02" style="stop-color:#161616"/>
						<stop  offset="0.1984" style="stop-color:#282828"/>
						<stop  offset="0.581" style="stop-color:#4C4C4C"/>
						<stop  offset="1" style="stop-color:#4C4C4C"/>
					</linearGradient>
					<path style="fill:url(#SVGID_00000116954897981818032760000012396742682902488192_);" d="M383.9,115.1h-3.3
						c-5.8,0-8.5,18.9-8.5,27.8c0,8.9,2.7,27.8,8.5,27.8h3.3c1.8,0,3.3-1.6,3.3-3.6v-48.4C387.2,116.8,385.7,115.1,383.9,115.1z"/>
					
						<linearGradient id="SVGID_00000106827945732975415300000017982652029582744215_" gradientUnits="userSpaceOnUse" x1="372.1255" y1="78.8755" x2="387.2255" y2="78.8755" gradientTransform="matrix(1 0 0 1 0 64)">
						<stop  offset="2.947150e-02" style="stop-color:#161616"/>
						<stop  offset="0.2342" style="stop-color:#2E2E2E"/>
						<stop  offset="0.581" style="stop-color:#525252"/>
						<stop  offset="1" style="stop-color:#525252"/>
					</linearGradient>
					<path style="fill:url(#SVGID_00000106827945732975415300000017982652029582744215_);" d="M383.9,115.2h-3.3
						c-5.8,0-8.5,18.9-8.5,27.7c0,8.9,2.7,27.7,8.5,27.7h3.3c1.8,0,3.3-1.6,3.3-3.6v-48.3C387.2,116.8,385.7,115.2,383.9,115.2z"/>
					
						<linearGradient id="SVGID_00000140009499921605328530000000818256641980785828_" gradientUnits="userSpaceOnUse" x1="372.1255" y1="78.9755" x2="387.2255" y2="78.9755" gradientTransform="matrix(1 0 0 1 0 64)">
						<stop  offset="2.947150e-02" style="stop-color:#151515"/>
						<stop  offset="0.268" style="stop-color:#343434"/>
						<stop  offset="0.581" style="stop-color:#585858"/>
						<stop  offset="1" style="stop-color:#585858"/>
					</linearGradient>
					<path style="fill:url(#SVGID_00000140009499921605328530000000818256641980785828_);" d="M383.9,115.3h-3.3
						c-5.8,0-8.5,18.9-8.5,27.7s2.7,27.7,8.5,27.7h3.3c1.8,0,3.3-1.6,3.3-3.6v-48.3C387.2,116.9,385.7,115.3,383.9,115.3z"/>
					
						<linearGradient id="SVGID_00000030460943819305368230000007703281724074173594_" gradientUnits="userSpaceOnUse" x1="372.1255" y1="78.8755" x2="387.2255" y2="78.8755" gradientTransform="matrix(1 0 0 1 0 64)">
						<stop  offset="2.947150e-02" style="stop-color:#151515"/>
						<stop  offset="0.2882" style="stop-color:#393939"/>
						<stop  offset="0.581" style="stop-color:#5D5D5D"/>
						<stop  offset="1" style="stop-color:#5D5D5D"/>
					</linearGradient>
					<path style="fill:url(#SVGID_00000030460943819305368230000007703281724074173594_);" d="M383.9,115.3h-3.3
						c-5.8,0-8.5,18.8-8.5,27.6s2.7,27.6,8.5,27.6h3.3c1.8,0,3.3-1.6,3.3-3.6v-48.2C387.2,116.9,385.7,115.3,383.9,115.3z"/>
					
						<linearGradient id="SVGID_00000160881710529937414700000013907340784552353696_" gradientUnits="userSpaceOnUse" x1="372.1255" y1="78.9755" x2="387.2255" y2="78.9755" gradientTransform="matrix(1 0 0 1 0 64)">
						<stop  offset="2.947150e-02" style="stop-color:#151515"/>
						<stop  offset="0.3079" style="stop-color:#3E3E3E"/>
						<stop  offset="0.581" style="stop-color:#636363"/>
						<stop  offset="1" style="stop-color:#636363"/>
					</linearGradient>
					<path style="fill:url(#SVGID_00000160881710529937414700000013907340784552353696_);" d="M383.9,115.4h-3.3
						c-5.8,0-8.5,18.8-8.5,27.6s2.7,27.6,8.5,27.6h3.3c1.8,0,3.3-1.6,3.3-3.5V119C387.2,117,385.7,115.4,383.9,115.4z"/>
					
						<linearGradient id="SVGID_00000023965430043375838970000017673072825072951735_" gradientUnits="userSpaceOnUse" x1="372.1255" y1="78.8755" x2="387.2255" y2="78.8755" gradientTransform="matrix(1 0 0 1 0 64)">
						<stop  offset="2.947150e-02" style="stop-color:#141414"/>
						<stop  offset="0.3288" style="stop-color:#444444"/>
						<stop  offset="0.581" style="stop-color:#696969"/>
						<stop  offset="1" style="stop-color:#696969"/>
					</linearGradient>
					<path style="fill:url(#SVGID_00000023965430043375838970000017673072825072951735_);" d="M383.9,115.4h-3.3
						c-5.8,0-8.5,18.8-8.5,27.5s2.7,27.5,8.5,27.5h3.3c1.8,0,3.3-1.6,3.3-3.5v-48C387.2,117,385.7,115.4,383.9,115.4z"/>
					
						<linearGradient id="SVGID_00000043446631731806884500000017446805936228040875_" gradientUnits="userSpaceOnUse" x1="372.1255" y1="78.9755" x2="387.2255" y2="78.9755" gradientTransform="matrix(1 0 0 1 0 64)">
						<stop  offset="2.947150e-02" style="stop-color:#141414"/>
						<stop  offset="0.3418" style="stop-color:#494949"/>
						<stop  offset="0.581" style="stop-color:#6E6E6E"/>
						<stop  offset="1" style="stop-color:#6E6E6E"/>
					</linearGradient>
					<path style="fill:url(#SVGID_00000043446631731806884500000017446805936228040875_);" d="M383.9,115.5h-3.3
						c-5.8,0-8.5,18.8-8.5,27.5s2.7,27.5,8.5,27.5h3.3c1.8,0,3.3-1.6,3.3-3.5v-47.9C387.2,117.1,385.7,115.5,383.9,115.5z"/>
					
						<linearGradient id="SVGID_00000163038395866697878310000002609536186434539693_" gradientUnits="userSpaceOnUse" x1="372.1255" y1="78.8755" x2="387.2255" y2="78.8755" gradientTransform="matrix(1 0 0 1 0 64)">
						<stop  offset="2.947150e-02" style="stop-color:#131313"/>
						<stop  offset="0.3578" style="stop-color:#4F4F4F"/>
						<stop  offset="0.581" style="stop-color:#747474"/>
						<stop  offset="1" style="stop-color:#747474"/>
					</linearGradient>
					<path style="fill:url(#SVGID_00000163038395866697878310000002609536186434539693_);" d="M383.9,115.5h-3.3
						c-5.8,0-8.5,18.7-8.5,27.4s2.7,27.4,8.5,27.4h3.3c1.8,0,3.3-1.6,3.3-3.5V119C387.2,117.1,385.7,115.5,383.9,115.5z"/>
					
						<linearGradient id="SVGID_00000112630468065680244860000006179878341392943236_" gradientUnits="userSpaceOnUse" x1="372.1255" y1="78.9755" x2="387.2255" y2="78.9755" gradientTransform="matrix(1 0 0 1 0 64)">
						<stop  offset="2.947150e-02" style="stop-color:#131313"/>
						<stop  offset="0.3698" style="stop-color:#555555"/>
						<stop  offset="0.581" style="stop-color:#7A7A7A"/>
						<stop  offset="1" style="stop-color:#7A7A7A"/>
					</linearGradient>
					<path style="fill:url(#SVGID_00000112630468065680244860000006179878341392943236_);" d="M383.9,115.6h-3.3
						c-5.8,0-8.5,18.7-8.5,27.4c0,8.6,2.7,27.4,8.5,27.4h3.3c1.8,0,3.3-1.6,3.3-3.5v-47.7C387.2,117.2,385.7,115.6,383.9,115.6z"/>
					
						<linearGradient id="SVGID_00000148621687270624343820000005318831374875340979_" gradientUnits="userSpaceOnUse" x1="372.1255" y1="78.8755" x2="387.2255" y2="78.8755" gradientTransform="matrix(1 0 0 1 0 64)">
						<stop  offset="2.947150e-02" style="stop-color:#131313"/>
						<stop  offset="0.3789" style="stop-color:#5A5A5A"/>
						<stop  offset="0.581" style="stop-color:#7F7F7F"/>
						<stop  offset="1" style="stop-color:#7F7F7F"/>
					</linearGradient>
					<path style="fill:url(#SVGID_00000148621687270624343820000005318831374875340979_);" d="M383.9,115.6h-3.3
						c-5.8,0-8.5,18.7-8.5,27.3s2.7,27.3,8.5,27.3h3.3c1.8,0,3.3-1.6,3.3-3.5V119C387.2,117.2,385.7,115.6,383.9,115.6z"/>
					
						<linearGradient id="SVGID_00000023976861876162131590000016873812460626424235_" gradientUnits="userSpaceOnUse" x1="372.1255" y1="78.8755" x2="387.2255" y2="78.8755" gradientTransform="matrix(1 0 0 1 0 64)">
						<stop  offset="2.947150e-02" style="stop-color:#121212"/>
						<stop  offset="0.3903" style="stop-color:#606060"/>
						<stop  offset="0.581" style="stop-color:#858585"/>
						<stop  offset="1" style="stop-color:#858585"/>
					</linearGradient>
					<path style="fill:url(#SVGID_00000023976861876162131590000016873812460626424235_);" d="M383.9,115.7h-3.3
						c-5.8,0-8.5,18.7-8.5,27.2c0,8.6,2.7,27.2,8.5,27.2h3.3c1.8,0,3.3-1.6,3.3-3.5V119C387.2,117.2,385.7,115.7,383.9,115.7z"/>
					
						<linearGradient id="SVGID_00000134213597308758770320000008515611113801160120_" gradientUnits="userSpaceOnUse" x1="372.1255" y1="78.9755" x2="387.2255" y2="78.9755" gradientTransform="matrix(1 0 0 1 0 64)">
						<stop  offset="2.947150e-02" style="stop-color:#121212"/>
						<stop  offset="0.3991" style="stop-color:#666666"/>
						<stop  offset="0.581" style="stop-color:#8B8B8B"/>
						<stop  offset="1" style="stop-color:#8B8B8B"/>
					</linearGradient>
					<path style="fill:url(#SVGID_00000134213597308758770320000008515611113801160120_);" d="M383.9,115.8h-3.3
						c-5.8,0-8.5,18.6-8.5,27.2c0,8.6,2.7,27.2,8.5,27.2h3.3c1.8,0,3.3-1.5,3.3-3.5v-47.5C387.2,117.3,385.7,115.8,383.9,115.8z"/>
					
						<linearGradient id="SVGID_00000068660575889860117510000016878626032113171585_" gradientUnits="userSpaceOnUse" x1="372.1255" y1="78.8755" x2="387.2255" y2="78.8755" gradientTransform="matrix(1 0 0 1 0 64)">
						<stop  offset="2.947150e-02" style="stop-color:#121212"/>
						<stop  offset="0.407" style="stop-color:#6C6C6C"/>
						<stop  offset="0.581" style="stop-color:#919191"/>
						<stop  offset="1" style="stop-color:#919191"/>
					</linearGradient>
					<path style="fill:url(#SVGID_00000068660575889860117510000016878626032113171585_);" d="M383.9,115.8h-3.3
						c-5.8,0-8.5,18.6-8.5,27.1s2.7,27.1,8.5,27.1h3.3c1.8,0,3.3-1.5,3.3-3.4v-47.4C387.2,117.3,385.7,115.8,383.9,115.8z"/>
					
						<linearGradient id="SVGID_00000154427850752594238810000015724886938710726847_" gradientUnits="userSpaceOnUse" x1="372.1255" y1="78.9755" x2="387.2255" y2="78.9755" gradientTransform="matrix(1 0 0 1 0 64)">
						<stop  offset="2.947150e-02" style="stop-color:#111111"/>
						<stop  offset="4.464466e-02" style="stop-color:#151515"/>
						<stop  offset="0.4143" style="stop-color:#717171"/>
						<stop  offset="0.581" style="stop-color:#969696"/>
						<stop  offset="1" style="stop-color:#969696"/>
					</linearGradient>
					<path style="fill:url(#SVGID_00000154427850752594238810000015724886938710726847_);" d="M383.9,115.9h-3.3
						c-5.8,0-8.5,18.6-8.5,27.1s2.7,27.1,8.5,27.1h3.3c1.8,0,3.3-1.5,3.3-3.4v-47.3C387.2,117.4,385.7,115.9,383.9,115.9z"/>
					
						<linearGradient id="SVGID_00000072252918218028297710000011699675225864102274_" gradientUnits="userSpaceOnUse" x1="372.1255" y1="78.8755" x2="387.2255" y2="78.8755" gradientTransform="matrix(1 0 0 1 0 64)">
						<stop  offset="2.947150e-02" style="stop-color:#111111"/>
						<stop  offset="6.623433e-02" style="stop-color:#1B1B1B"/>
						<stop  offset="0.4209" style="stop-color:#777777"/>
						<stop  offset="0.581" style="stop-color:#9C9C9C"/>
						<stop  offset="1" style="stop-color:#9C9C9C"/>
					</linearGradient>
					<path style="fill:url(#SVGID_00000072252918218028297710000011699675225864102274_);" d="M383.9,115.9h-3.3
						c-5.8,0-8.5,18.6-8.5,27c0,8.5,2.7,27,8.5,27h3.3c1.8,0,3.3-1.5,3.3-3.4v-47.2C387.2,117.4,385.7,115.9,383.9,115.9z"/>
					
						<linearGradient id="SVGID_00000054951465647395614890000009911422684775487418_" gradientUnits="userSpaceOnUse" x1="372.1255" y1="78.9755" x2="387.2255" y2="78.9755" gradientTransform="matrix(1 0 0 1 0 64)">
						<stop  offset="2.947150e-02" style="stop-color:#111111"/>
						<stop  offset="8.605541e-02" style="stop-color:#212121"/>
						<stop  offset="0.4271" style="stop-color:#7D7D7D"/>
						<stop  offset="0.581" style="stop-color:#A2A2A2"/>
						<stop  offset="1" style="stop-color:#A2A2A2"/>
					</linearGradient>
					<path style="fill:url(#SVGID_00000054951465647395614890000009911422684775487418_);" d="M383.9,116h-3.3
						c-5.8,0-8.5,18.5-8.5,27c0,8.4,2.7,27,8.5,27h3.3c1.8,0,3.3-1.5,3.3-3.4v-47.1C387.2,117.5,385.7,116,383.9,116z"/>
					
						<linearGradient id="SVGID_00000049193974261354929100000008929415132616583593_" gradientUnits="userSpaceOnUse" x1="372.1255" y1="78.8755" x2="387.2255" y2="78.8755" gradientTransform="matrix(1 0 0 1 0 64)">
						<stop  offset="2.947150e-02" style="stop-color:#101010"/>
						<stop  offset="0.1044" style="stop-color:#262626"/>
						<stop  offset="0.4328" style="stop-color:#828282"/>
						<stop  offset="0.581" style="stop-color:#A7A7A7"/>
						<stop  offset="1" style="stop-color:#A7A7A7"/>
					</linearGradient>
					<path style="fill:url(#SVGID_00000049193974261354929100000008929415132616583593_);" d="M383.9,116h-3.3
						c-5.8,0-8.5,18.5-8.5,26.9s2.7,26.9,8.5,26.9h3.3c1.8,0,3.3-1.5,3.3-3.4v-47C387.2,117.5,385.7,116,383.9,116z"/>
					
						<linearGradient id="SVGID_00000127730149667007975990000016945610704035370116_" gradientUnits="userSpaceOnUse" x1="372.1255" y1="78.9755" x2="387.2255" y2="78.9755" gradientTransform="matrix(1 0 0 1 0 64)">
						<stop  offset="2.947150e-02" style="stop-color:#101010"/>
						<stop  offset="0.1213" style="stop-color:#2C2C2C"/>
						<stop  offset="0.438" style="stop-color:#888888"/>
						<stop  offset="0.581" style="stop-color:#ADADAD"/>
						<stop  offset="1" style="stop-color:#ADADAD"/>
					</linearGradient>
					<path style="fill:url(#SVGID_00000127730149667007975990000016945610704035370116_);" d="M383.9,116.1h-3.3
						c-5.8,0-8.5,18.5-8.5,26.9s2.7,26.9,8.5,26.9h3.3c1.8,0,3.3-1.5,3.3-3.4v-47C387.2,117.6,385.7,116.1,383.9,116.1z"/>
					
						<linearGradient id="SVGID_00000041998695071058584130000006650940732700731028_" gradientUnits="userSpaceOnUse" x1="372.144" y1="78.9755" x2="387.2255" y2="78.9755" gradientTransform="matrix(1 0 0 1 0 64)">
						<stop  offset="2.947150e-02" style="stop-color:#101010"/>
						<stop  offset="0.1044" style="stop-color:#262626"/>
						<stop  offset="0.4328" style="stop-color:#828282"/>
						<stop  offset="0.581" style="stop-color:#A7A7A7"/>
						<stop  offset="1" style="stop-color:#A7A7A7"/>
					</linearGradient>
					<path style="fill:url(#SVGID_00000041998695071058584130000006650940732700731028_);" d="M383.9,116.2h-3.3
						c-5.8,0-8.5,18.5-8.5,26.8s2.7,26.8,8.5,26.8h3.3c1.8,0,3.3-1.5,3.3-3.4v-46.8C387.2,117.7,385.7,116.2,383.9,116.2z"/>
					
						<linearGradient id="SVGID_00000105395075351875940250000004894114648774762371_" gradientUnits="userSpaceOnUse" x1="372.1771" y1="78.8755" x2="387.2255" y2="78.8755" gradientTransform="matrix(1 0 0 1 0 64)">
						<stop  offset="2.947150e-02" style="stop-color:#111111"/>
						<stop  offset="8.605541e-02" style="stop-color:#212121"/>
						<stop  offset="0.4271" style="stop-color:#7D7D7D"/>
						<stop  offset="0.581" style="stop-color:#A2A2A2"/>
						<stop  offset="1" style="stop-color:#A2A2A2"/>
					</linearGradient>
					<path style="fill:url(#SVGID_00000105395075351875940250000004894114648774762371_);" d="M383.9,116.2h-3.3
						c-5.8,0-8.5,18.4-8.5,26.7s2.7,26.7,8.5,26.7h3.3c1.8,0,3.3-1.5,3.3-3.3v-46.7C387.2,117.7,385.7,116.2,383.9,116.2z"/>
					
						<linearGradient id="SVGID_00000178194990811312822050000004857965003174223533_" gradientUnits="userSpaceOnUse" x1="372.2102" y1="78.8755" x2="387.2255" y2="78.8755" gradientTransform="matrix(1 0 0 1 0 64)">
						<stop  offset="2.947150e-02" style="stop-color:#111111"/>
						<stop  offset="6.623433e-02" style="stop-color:#1B1B1B"/>
						<stop  offset="0.4209" style="stop-color:#777777"/>
						<stop  offset="0.581" style="stop-color:#9C9C9C"/>
						<stop  offset="1" style="stop-color:#9C9C9C"/>
					</linearGradient>
					<path style="fill:url(#SVGID_00000178194990811312822050000004857965003174223533_);" d="M383.9,116.3h-3.3
						c-5.8,0-8.4,18.4-8.4,26.6c0,8.2,2.7,26.6,8.4,26.6h3.3c1.8,0,3.3-1.5,3.3-3.3v-46.6C387.2,117.8,385.7,116.3,383.9,116.3z"/>
					
						<linearGradient id="SVGID_00000065035410595770977490000003715296316226273165_" gradientUnits="userSpaceOnUse" x1="372.2434" y1="78.9755" x2="387.2255" y2="78.9755" gradientTransform="matrix(1 0 0 1 0 64)">
						<stop  offset="2.947150e-02" style="stop-color:#111111"/>
						<stop  offset="4.464466e-02" style="stop-color:#151515"/>
						<stop  offset="0.4143" style="stop-color:#717171"/>
						<stop  offset="0.581" style="stop-color:#969696"/>
						<stop  offset="1" style="stop-color:#969696"/>
					</linearGradient>
					<path style="fill:url(#SVGID_00000065035410595770977490000003715296316226273165_);" d="M383.9,116.4h-3.3
						c-5.8,0-8.4,18.3-8.4,26.6c0,8.2,2.7,26.6,8.4,26.6h3.3c1.8,0,3.3-1.5,3.3-3.3v-46.5C387.2,117.9,385.7,116.4,383.9,116.4z"/>
					
						<linearGradient id="SVGID_00000065037950595580272900000002525235821443906187_" gradientUnits="userSpaceOnUse" x1="372.2765" y1="78.9755" x2="387.2255" y2="78.9755" gradientTransform="matrix(1 0 0 1 0 64)">
						<stop  offset="2.947150e-02" style="stop-color:#121212"/>
						<stop  offset="0.407" style="stop-color:#6C6C6C"/>
						<stop  offset="0.581" style="stop-color:#919191"/>
						<stop  offset="1" style="stop-color:#919191"/>
					</linearGradient>
					<path style="fill:url(#SVGID_00000065037950595580272900000002525235821443906187_);" d="M383.9,116.5h-3.3
						c-5.8,0-8.4,18.3-8.4,26.5s2.6,26.5,8.4,26.5h3.3c1.8,0,3.3-1.5,3.3-3.3v-46.4C387.2,117.9,385.7,116.5,383.9,116.5z"/>
					
						<linearGradient id="SVGID_00000044887102422392087040000001292158969278596777_" gradientUnits="userSpaceOnUse" x1="372.3096" y1="78.8755" x2="387.2255" y2="78.8755" gradientTransform="matrix(1 0 0 1 0 64)">
						<stop  offset="2.947150e-02" style="stop-color:#121212"/>
						<stop  offset="0.3991" style="stop-color:#666666"/>
						<stop  offset="0.581" style="stop-color:#8B8B8B"/>
						<stop  offset="1" style="stop-color:#8B8B8B"/>
					</linearGradient>
					<path style="fill:url(#SVGID_00000044887102422392087040000001292158969278596777_);" d="M383.9,116.5h-3.3
						c-5.7,0-8.4,18.3-8.4,26.4c0,8.1,2.6,26.4,8.4,26.4h3.3c1.8,0,3.3-1.5,3.3-3.3v-46.2C387.2,118,385.7,116.5,383.9,116.5z"/>
					
						<linearGradient id="SVGID_00000078725598005507051190000003510978697057312683_" gradientUnits="userSpaceOnUse" x1="372.3427" y1="78.8755" x2="387.2255" y2="78.8755" gradientTransform="matrix(1 0 0 1 0 64)">
						<stop  offset="2.947150e-02" style="stop-color:#121212"/>
						<stop  offset="0.3903" style="stop-color:#606060"/>
						<stop  offset="0.581" style="stop-color:#858585"/>
						<stop  offset="1" style="stop-color:#858585"/>
					</linearGradient>
					<path style="fill:url(#SVGID_00000078725598005507051190000003510978697057312683_);" d="M383.9,116.6h-3.3
						c-5.7,0-8.3,18.2-8.3,26.3s2.6,26.3,8.3,26.3h3.3c1.8,0,3.3-1.5,3.3-3.3v-46.1C387.2,118.1,385.7,116.6,383.9,116.6z"/>
					
						<linearGradient id="SVGID_00000103259684077543113940000010057612151270706324_" gradientUnits="userSpaceOnUse" x1="372.3759" y1="78.8755" x2="387.2255" y2="78.8755" gradientTransform="matrix(1 0 0 1 0 64)">
						<stop  offset="2.947150e-02" style="stop-color:#131313"/>
						<stop  offset="0.3789" style="stop-color:#5A5A5A"/>
						<stop  offset="0.581" style="stop-color:#7F7F7F"/>
						<stop  offset="1" style="stop-color:#7F7F7F"/>
					</linearGradient>
					<path style="fill:url(#SVGID_00000103259684077543113940000010057612151270706324_);" d="M383.9,116.7h-3.3
						c-5.7,0-8.3,18.2-8.3,26.2s2.6,26.2,8.3,26.2h3.3c1.8,0,3.3-1.5,3.3-3.2v-46C387.2,118.1,385.7,116.7,383.9,116.7z"/>
					
						<linearGradient id="SVGID_00000059304177643893877590000008555193860541149093_" gradientUnits="userSpaceOnUse" x1="372.409" y1="78.9755" x2="387.2255" y2="78.9755" gradientTransform="matrix(1 0 0 1 0 64)">
						<stop  offset="2.947150e-02" style="stop-color:#131313"/>
						<stop  offset="0.3698" style="stop-color:#555555"/>
						<stop  offset="0.581" style="stop-color:#7A7A7A"/>
						<stop  offset="1" style="stop-color:#7A7A7A"/>
					</linearGradient>
					<path style="fill:url(#SVGID_00000059304177643893877590000008555193860541149093_);" d="M383.9,116.8h-3.2
						c-5.7,0-8.3,18.2-8.3,26.2s2.6,26.2,8.3,26.2h3.2c1.8,0,3.3-1.4,3.3-3.2v-45.9C387.2,118.2,385.7,116.8,383.9,116.8z"/>
					
						<linearGradient id="SVGID_00000074402411748323446600000007504306019051923122_" gradientUnits="userSpaceOnUse" x1="372.4421" y1="78.9755" x2="387.2255" y2="78.9755" gradientTransform="matrix(1 0 0 1 0 64)">
						<stop  offset="2.947150e-02" style="stop-color:#131313"/>
						<stop  offset="0.3578" style="stop-color:#4F4F4F"/>
						<stop  offset="0.581" style="stop-color:#747474"/>
						<stop  offset="1" style="stop-color:#747474"/>
					</linearGradient>
					<path style="fill:url(#SVGID_00000074402411748323446600000007504306019051923122_);" d="M383.9,116.9h-3.2
						c-5.7,0-8.3,18.1-8.3,26.1s2.6,26.1,8.3,26.1h3.2c1.8,0,3.3-1.4,3.3-3.2v-45.8C387.2,118.3,385.7,116.9,383.9,116.9z"/>
					
						<linearGradient id="SVGID_00000034085722779385973490000008081440710685669050_" gradientUnits="userSpaceOnUse" x1="372.4753" y1="78.8755" x2="387.2255" y2="78.8755" gradientTransform="matrix(1 0 0 1 0 64)">
						<stop  offset="2.947150e-02" style="stop-color:#141414"/>
						<stop  offset="0.3418" style="stop-color:#494949"/>
						<stop  offset="0.581" style="stop-color:#6E6E6E"/>
						<stop  offset="1" style="stop-color:#6E6E6E"/>
					</linearGradient>
					<path style="fill:url(#SVGID_00000034085722779385973490000008081440710685669050_);" d="M383.9,116.9h-3.2
						c-5.7,0-8.3,18.1-8.3,26s2.6,26,8.3,26h3.2c1.8,0,3.3-1.4,3.3-3.2V120C387.2,118.4,385.7,116.9,383.9,116.9z"/>
					
						<linearGradient id="SVGID_00000127751132879931695690000005658673129597041310_" gradientUnits="userSpaceOnUse" x1="372.5084" y1="78.8755" x2="387.2255" y2="78.8755" gradientTransform="matrix(1 0 0 1 0 64)">
						<stop  offset="2.947150e-02" style="stop-color:#141414"/>
						<stop  offset="0.3288" style="stop-color:#444444"/>
						<stop  offset="0.581" style="stop-color:#696969"/>
						<stop  offset="1" style="stop-color:#696969"/>
					</linearGradient>
					<path style="fill:url(#SVGID_00000127751132879931695690000005658673129597041310_);" d="M383.9,117h-3.2
						c-5.7,0-8.2,18.1-8.2,25.9c0,7.9,2.5,25.9,8.2,25.9h3.2c1.8,0,3.3-1.4,3.3-3.2v-45.5C387.2,118.4,385.7,117,383.9,117z"/>
					
						<linearGradient id="SVGID_00000026139784689115029140000005064750462615842954_" gradientUnits="userSpaceOnUse" x1="372.5415" y1="78.9755" x2="387.2255" y2="78.9755" gradientTransform="matrix(1 0 0 1 0 64)">
						<stop  offset="2.947150e-02" style="stop-color:#141414"/>
						<stop  offset="0.3111" style="stop-color:#3E3E3E"/>
						<stop  offset="0.581" style="stop-color:#636363"/>
						<stop  offset="1" style="stop-color:#636363"/>
					</linearGradient>
					<path style="fill:url(#SVGID_00000026139784689115029140000005064750462615842954_);" d="M383.9,117.1h-3.2
						c-5.7,0-8.2,18-8.2,25.9c0,7.8,2.5,25.9,8.2,25.9h3.2c1.8,0,3.3-1.4,3.3-3.2v-45.4C387.2,118.5,385.7,117.1,383.9,117.1z"/>
					
						<linearGradient id="SVGID_00000121999283903360534860000017768096989059582650_" gradientUnits="userSpaceOnUse" x1="372.5746" y1="78.9755" x2="387.2255" y2="78.9755" gradientTransform="matrix(1 0 0 1 0 64)">
						<stop  offset="2.947150e-02" style="stop-color:#151515"/>
						<stop  offset="0.2882" style="stop-color:#393939"/>
						<stop  offset="0.581" style="stop-color:#5D5D5D"/>
						<stop  offset="1" style="stop-color:#5D5D5D"/>
					</linearGradient>
					<path style="fill:url(#SVGID_00000121999283903360534860000017768096989059582650_);" d="M384,117.2h-3.2
						c-5.7,0-8.2,18-8.2,25.8s2.5,25.8,8.2,25.8h3.2c1.8,0,3.2-1.4,3.2-3.1v-45.3C387.2,118.6,385.7,117.2,384,117.2z"/>
					
						<linearGradient id="SVGID_00000018195626294163080780000001824237768616373124_" gradientUnits="userSpaceOnUse" x1="372.6077" y1="78.8755" x2="387.2255" y2="78.8755" gradientTransform="matrix(1 0 0 1 0 64)">
						<stop  offset="2.947150e-02" style="stop-color:#151515"/>
						<stop  offset="0.268" style="stop-color:#343434"/>
						<stop  offset="0.581" style="stop-color:#585858"/>
						<stop  offset="1" style="stop-color:#585858"/>
					</linearGradient>
					<path style="fill:url(#SVGID_00000018195626294163080780000001824237768616373124_);" d="M384,117.2h-3.2
						c-5.7,0-8.2,18-8.2,25.7s2.5,25.7,8.2,25.7h3.2c1.8,0,3.2-1.4,3.2-3.1v-45.2C387.2,118.6,385.7,117.2,384,117.2z"/>
					
						<linearGradient id="SVGID_00000161600823111109772950000005149130160538709647_" gradientUnits="userSpaceOnUse" x1="372.6409" y1="78.8755" x2="387.2255" y2="78.8755" gradientTransform="matrix(1 0 0 1 0 64)">
						<stop  offset="2.947150e-02" style="stop-color:#161616"/>
						<stop  offset="0.2342" style="stop-color:#2E2E2E"/>
						<stop  offset="0.581" style="stop-color:#525252"/>
						<stop  offset="1" style="stop-color:#525252"/>
					</linearGradient>
					<path style="fill:url(#SVGID_00000161600823111109772950000005149130160538709647_);" d="M384,117.3h-3.2
						c-5.6,0-8.1,17.9-8.1,25.6c0,7.7,2.5,25.6,8.1,25.6h3.2c1.8,0,3.2-1.4,3.2-3.1v-45.1C387.2,118.7,385.8,117.3,384,117.3z"/>
					
						<linearGradient id="SVGID_00000017479322231814456600000010843166017495912375_" gradientUnits="userSpaceOnUse" x1="372.674" y1="78.9755" x2="387.2255" y2="78.9755" gradientTransform="matrix(1 0 0 1 0 64)">
						<stop  offset="2.947150e-02" style="stop-color:#161616"/>
						<stop  offset="0.1984" style="stop-color:#282828"/>
						<stop  offset="0.581" style="stop-color:#4C4C4C"/>
						<stop  offset="1" style="stop-color:#4C4C4C"/>
					</linearGradient>
					<path style="fill:url(#SVGID_00000017479322231814456600000010843166017495912375_);" d="M384,117.4h-3.2
						c-5.6,0-8.1,17.9-8.1,25.6c0,7.7,2.5,25.6,8.1,25.6h3.2c1.8,0,3.2-1.4,3.2-3.1v-44.9C387.2,118.8,385.8,117.4,384,117.4z"/>
					
						<linearGradient id="SVGID_00000017488736710379187880000017938090882667851420_" gradientUnits="userSpaceOnUse" x1="372.7071" y1="78.9755" x2="387.2255" y2="78.9755" gradientTransform="matrix(1 0 0 1 0 64)">
						<stop  offset="2.947150e-02" style="stop-color:#161616"/>
						<stop  offset="0.1623" style="stop-color:#232323"/>
						<stop  offset="0.581" style="stop-color:#474747"/>
						<stop  offset="1" style="stop-color:#474747"/>
					</linearGradient>
					<path style="fill:url(#SVGID_00000017488736710379187880000017938090882667851420_);" d="M384,117.5h-3.2
						c-5.6,0-8.1,17.9-8.1,25.5s2.5,25.5,8.1,25.5h3.2c1.8,0,3.2-1.4,3.2-3.1v-44.8C387.2,118.8,385.8,117.5,384,117.5z"/>
					
						<linearGradient id="SVGID_00000170985422459030472120000010039566167791421090_" gradientUnits="userSpaceOnUse" x1="372.7402" y1="78.8755" x2="387.2255" y2="78.8755" gradientTransform="matrix(1 0 0 1 0 64)">
						<stop  offset="2.947150e-02" style="stop-color:#171717"/>
						<stop  offset="9.779778e-02" style="stop-color:#1D1D1D"/>
						<stop  offset="0.581" style="stop-color:#414141"/>
						<stop  offset="1" style="stop-color:#414141"/>
					</linearGradient>
					<path style="fill:url(#SVGID_00000170985422459030472120000010039566167791421090_);" d="M384,117.5h-3.2
						c-5.6,0-8.1,17.8-8.1,25.4c0,7.6,2.5,25.4,8.1,25.4h3.2c1.8,0,3.2-1.4,3.2-3.1v-44.6C387.2,118.9,385.8,117.5,384,117.5z"/>
					
						<linearGradient id="SVGID_00000118395818196499505630000003369879067709970048_" gradientUnits="userSpaceOnUse" x1="372.7734" y1="78.8755" x2="387.2255" y2="78.8755" gradientTransform="matrix(1 0 0 1 0 64)">
						<stop  offset="2.947150e-02" style="stop-color:#171717"/>
						<stop  offset="0.581" style="stop-color:#3B3B3B"/>
						<stop  offset="1" style="stop-color:#3B3B3B"/>
					</linearGradient>
					<path style="fill:url(#SVGID_00000118395818196499505630000003369879067709970048_);" d="M384,117.6h-3.2c-5.6,0-8,17.8-8,25.3
						s2.4,25.3,8,25.3h3.2c1.8,0,3.2-1.4,3.2-3v-44.6C387.2,119,385.8,117.6,384,117.6z"/>
					
						<linearGradient id="SVGID_00000111169459411316351230000005000211727299875986_" gradientUnits="userSpaceOnUse" x1="372.8065" y1="78.9755" x2="387.2255" y2="78.9755" gradientTransform="matrix(1 0 0 1 0 64)">
						<stop  offset="2.947150e-02" style="stop-color:#171717"/>
						<stop  offset="0.581" style="stop-color:#353535"/>
						<stop  offset="1" style="stop-color:#353535"/>
					</linearGradient>
					<path style="fill:url(#SVGID_00000111169459411316351230000005000211727299875986_);" d="M384,117.7h-3.2c-5.6,0-8,17.8-8,25.3
						s2.4,25.3,8,25.3h3.2c1.8,0,3.2-1.4,3.2-3v-44.5C387.2,119,385.8,117.7,384,117.7z"/>
					
						<linearGradient id="SVGID_00000166642425479064206000000001932287709961836200_" gradientUnits="userSpaceOnUse" x1="372.8255" y1="78.9755" x2="387.2255" y2="78.9755" gradientTransform="matrix(1 0 0 1 0 64)">
						<stop  offset="2.947150e-02" style="stop-color:#181818"/>
						<stop  offset="0.581" style="stop-color:#303030"/>
						<stop  offset="1" style="stop-color:#303030"/>
					</linearGradient>
					<path style="fill:url(#SVGID_00000166642425479064206000000001932287709961836200_);" d="M384,117.8h-3.2c-5.6,0-8,17.7-8,25.2
						c0,7.4,2.4,25.2,8,25.2h3.2c1.8,0,3.2-1.3,3.2-3v-44.3C387.2,119.1,385.8,117.8,384,117.8z"/>
					
						<linearGradient id="SVGID_00000107564368956318397360000001680515400465319836_" gradientUnits="userSpaceOnUse" x1="372.8727" y1="78.8755" x2="387.2255" y2="78.8755" gradientTransform="matrix(1 0 0 1 0 64)">
						<stop  offset="2.947150e-02" style="stop-color:#181818"/>
						<stop  offset="0.581" style="stop-color:#2A2A2A"/>
						<stop  offset="1" style="stop-color:#2A2A2A"/>
					</linearGradient>
					<path style="fill:url(#SVGID_00000107564368956318397360000001680515400465319836_);" d="M384,117.8h-3.2c-5.6,0-8,17.7-8,25.1
						c0,7.4,2.4,25.1,8,25.1h3.2c1.8,0,3.2-1.3,3.2-3v-44.2C387.2,119.2,385.8,117.8,384,117.8z"/>
					
						<linearGradient id="SVGID_00000115493275066013353450000005173737409122077872_" gradientUnits="userSpaceOnUse" x1="372.9059" y1="78.8755" x2="387.2255" y2="78.8755" gradientTransform="matrix(1 0 0 1 0 64)">
						<stop  offset="2.947150e-02" style="stop-color:#181818"/>
						<stop  offset="0.581" style="stop-color:#242424"/>
						<stop  offset="1" style="stop-color:#242424"/>
					</linearGradient>
					<path style="fill:url(#SVGID_00000115493275066013353450000005173737409122077872_);" d="M384,117.9h-3.2c-5.6,0-8,17.7-8,25
						c0,7.4,2.4,25,8,25h3.2c1.8,0,3.2-1.3,3.2-3v-44.1C387.2,119.3,385.8,117.9,384,117.9z"/>
					
						<linearGradient id="SVGID_00000106848983760063215820000014489192946157610880_" gradientUnits="userSpaceOnUse" x1="372.9255" y1="78.8755" x2="387.2255" y2="78.8755" gradientTransform="matrix(1 0 0 1 0 64)">
						<stop  offset="2.947150e-02" style="stop-color:#191919"/>
						<stop  offset="0.581" style="stop-color:#1F1F1F"/>
						<stop  offset="1" style="stop-color:#1F1F1F"/>
					</linearGradient>
					<path style="fill:url(#SVGID_00000106848983760063215820000014489192946157610880_);" d="M384,118h-3.2
						c-5.6,0-7.9,17.6-7.9,24.9c0,7.3,2.4,24.9,7.9,24.9h3.2c1.8,0,3.2-1.3,3.2-3v-44C387.2,119.3,385.8,118,384,118z"/>
					<path class="st89" d="M384,118.1h-3.2c-5.6,0-7.9,17.6-7.9,24.9c0,7.3,2.4,24.9,7.9,24.9h3.2c1.8,0,3.2-1.3,3.2-2.9v-43.9
						C387.2,119.4,385.8,118.1,384,118.1z"/>
					<path class="st89" d="M384,118.1h-3.2c-5.6,0-7.9,17.6-7.9,24.8c0,7.3,2.3,24.8,7.9,24.8h3.2c1.8,0,3.2-1.3,3.2-2.9V121
						C387.2,119.4,385.8,118.1,384,118.1z"/>
					<path class="st89" d="M384,118.2h-3.2c-5.5,0-7.9,17.6-7.9,24.8s2.3,24.8,7.9,24.8h3.2c1.8,0,3.2-1.3,3.2-2.9v-43.8
						C387.2,119.5,385.8,118.2,384,118.2z"/>
					<path class="st89" d="M384,118.2h-3.2c-5.5,0-7.8,17.5-7.8,24.8c0,7.2,2.3,24.8,7.8,24.8h3.2c1.8,0,3.2-1.3,3.2-2.9v-43.7
						C387.2,119.5,385.8,118.2,384,118.2z"/>
					<path class="st89" d="M384,118.2h-3.1c-5.5,0-7.8,17.5-7.8,24.7s2.3,24.7,7.8,24.7h3.1c1.8,0,3.2-1.3,3.2-2.9v-43.6
						C387.2,119.5,385.8,118.2,384,118.2z"/>
					<path class="st89" d="M384,118.3h-3.1c-5.5,0-7.8,17.5-7.8,24.7s2.2,24.7,7.8,24.7h3.1c1.8,0,3.2-1.3,3.2-2.9v-43.6
						C387.2,119.6,385.8,118.3,384,118.3z"/>
					<path class="st89" d="M384,118.3h-3.1c-5.5,0-7.8,17.5-7.8,24.7s2.2,24.7,7.8,24.7h3.1c1.8,0,3.2-1.3,3.2-2.9v-43.5
						C387.2,119.6,385.8,118.3,384,118.3z"/>
					<path class="st89" d="M384,118.3h-3.1c-5.5,0-7.7,17.5-7.7,24.6s2.2,24.6,7.7,24.6h3.1c1.8,0,3.2-1.3,3.2-2.9v-43.5
						C387.2,119.6,385.8,118.3,384,118.3z"/>
					<path class="st89" d="M384,118.4h-3.1c-5.5,0-7.7,17.5-7.7,24.6s2.2,24.6,7.7,24.6h3.1c1.8,0,3.2-1.3,3.2-2.9v-43.4
						C387.2,119.7,385.8,118.4,384,118.4z"/>
					<path class="st89" d="M384,118.4h-3.1c-5.5,0-7.7,17.4-7.7,24.5s2.1,24.5,7.7,24.5h3.1c1.8,0,3.2-1.3,3.2-2.9v-43.4
						C387.2,119.7,385.8,118.4,384,118.4z"/>
					<path class="st89" d="M384,118.5h-3.1c-5.5,0-7.6,17.4-7.6,24.5s2.1,24.5,7.6,24.5h3.1c1.7,0,3.2-1.3,3.2-2.9v-43.3
						C387.2,119.7,385.8,118.5,384,118.5z"/>
					<path class="st89" d="M384,118.5h-3.1c-5.5,0-7.6,17.4-7.6,24.5s2.1,24.5,7.6,24.5h3.1c1.7,0,3.2-1.3,3.2-2.8v-43.2
						C387.2,119.8,385.8,118.5,384,118.5z"/>
					<path class="st89" d="M384,118.5h-3.1c-5.5,0-7.6,17.4-7.6,24.4s2.1,24.4,7.6,24.4h3.1c1.7,0,3.2-1.3,3.2-2.8v-43.2
						C387.2,119.8,385.8,118.5,384,118.5z"/>
					<path class="st89" d="M384,118.6h-3.1c-5.5,0-7.6,17.4-7.6,24.4s2,24.4,7.6,24.4h3.1c1.7,0,3.2-1.3,3.2-2.8v-43.1
						C387.2,119.8,385.8,118.6,384,118.6z"/>
					<path class="st89" d="M384,118.6h-3.1c-5.5,0-7.5,17.4-7.5,24.4s2,24.4,7.5,24.4h3.1c1.7,0,3.2-1.3,3.2-2.8v-43.1
						C387.2,119.9,385.8,118.6,384,118.6z"/>
					<path class="st89" d="M384,118.6h-3.1c-5.5,0-7.5,17.3-7.5,24.3s2,24.3,7.5,24.3h3.1c1.7,0,3.2-1.3,3.2-2.8v-43
						C387.2,119.9,385.8,118.6,384,118.6z"/>
					<path class="st89" d="M384,118.7h-3.1c-5.5,0-7.5,17.3-7.5,24.3s2,24.3,7.5,24.3h3.1c1.7,0,3.2-1.3,3.2-2.8v-43
						C387.2,119.9,385.8,118.7,384,118.7z"/>
					<path class="st89" d="M384,118.7h-3.1c-5.5,0-7.5,17.3-7.5,24.2s1.9,24.2,7.5,24.2h3.1c1.7,0,3.2-1.3,3.2-2.8v-42.9
						C387.2,120,385.8,118.7,384,118.7z"/>
					<path class="st89" d="M384,118.8h-3.1c-5.5,0-7.4,17.3-7.4,24.2s1.9,24.2,7.4,24.2h3.1c1.7,0,3.2-1.2,3.2-2.8v-42.8
						C387.2,120,385.8,118.8,384,118.8z"/>
					<path class="st89" d="M384,118.8h-3.1c-5.5,0-7.4,17.3-7.4,24.2s1.9,24.2,7.4,24.2h3.1c1.7,0,3.2-1.2,3.2-2.8v-42.8
						C387.2,120,385.8,118.8,384,118.8z"/>
					<path class="st89" d="M384,118.8h-3.1c-5.5,0-7.4,17.3-7.4,24.1c0,6.9,1.9,24.1,7.4,24.1h3.1c1.7,0,3.2-1.2,3.2-2.8v-42.6
						C387.2,120.1,385.8,118.8,384,118.8z"/>
					<path class="st89" d="M384.1,118.9H381c-5.5,0-7.3,17.3-7.3,24.1c0,6.9,1.9,24.1,7.3,24.1h3.1c1.7,0,3.1-1.2,3.1-2.8v-42.7
						C387.2,120.1,385.8,118.9,384.1,118.9z"/>
					<path class="st89" d="M384.1,118.9H381c-5.5,0-7.3,17.2-7.3,24.1c0,6.8,1.8,24.1,7.3,24.1h3.1c1.7,0,3.1-1.2,3.1-2.8v-42.6
						C387.2,120.1,385.8,118.9,384.1,118.9z"/>
					<path class="st89" d="M384.1,118.9H381c-5.5,0-7.3,17.2-7.3,24s1.8,24,7.3,24h3.1c1.7,0,3.1-1.2,3.1-2.7v-42.6
						C387.2,120.2,385.8,118.9,384.1,118.9z"/>
					<path class="st89" d="M384.1,119H381c-5.5,0-7.3,17.2-7.3,24s1.8,24,7.3,24h3.1c1.7,0,3.1-1.2,3.1-2.7v-42.5
						C387.2,120.2,385.8,119,384.1,119z"/>
					<path class="st89" d="M384.1,119H381c-5.5,0-7.2,17.2-7.2,24s1.8,24,7.2,24h3.1c1.7,0,3.1-1.2,3.1-2.7v-42.4
						C387.2,120.2,385.8,119,384.1,119z"/>
					<path class="st89" d="M384.1,119.1H381c-5.5,0-7.2,17.2-7.2,23.9s1.7,23.9,7.2,23.9h3.1c1.7,0,3.1-1.2,3.1-2.7v-42.4
						C387.2,120.3,385.8,119.1,384.1,119.1z"/>
					<path class="st20" d="M384.1,119.1H381c-5.4,0-7.1,17.1-7.1,23.8s1.7,23.8,7.1,23.8h3.1c1.7,0,3.1-1.2,3.1-2.7v-42.3
						C387.2,120.3,385.8,119.1,384.1,119.1z"/>
					<path class="st19" d="M384.1,119.2H381c-5.4,0-7,17.1-7,23.8s1.6,23.8,7,23.8h3.1c1.7,0,3.1-1.2,3.1-2.7v-42.2
						C387.2,120.4,385.8,119.2,384.1,119.2z"/>
					<path class="st25" d="M384.1,119.3H381c-5.4,0-7,17.1-7,23.7c0,6.6,1.6,23.7,7,23.7h3.1c1.7,0,3.1-1.2,3.1-2.7v-42.1
						C387.2,120.5,385.8,119.3,384.1,119.3z"/>
					<path class="st26" d="M384.1,119.3h-3c-5.3,0-6.9,17-6.9,23.6s1.5,23.6,6.9,23.6h3c1.7,0,3.1-1.2,3.1-2.7v-41.9
						C387.2,120.5,385.8,119.3,384.1,119.3z"/>
					<path class="st15" d="M384.2,119.4h-3c-5.3,0-6.8,17-6.8,23.6s1.5,23.6,6.8,23.6h3c1.7,0,3-1.2,3-2.6v-41.8
						C387.2,120.6,385.8,119.4,384.2,119.4z"/>
					<path class="st141" d="M384.2,119.5h-3c-5.3,0-6.7,17-6.7,23.5s1.4,23.5,6.7,23.5h3c1.7,0,3-1.2,3-2.6v-41.7
						C387.2,120.6,385.8,119.5,384.2,119.5z"/>
					<path class="st142" d="M384.2,119.5h-3c-5.2,0-6.6,16.9-6.6,23.4s1.4,23.4,6.6,23.4h3c1.7,0,3-1.2,3-2.6v-41.6
						C387.2,120.7,385.9,119.5,384.2,119.5z"/>
					<path class="st31" d="M384.2,119.6h-3c-5.2,0-6.6,16.9-6.6,23.3c0,6.4,1.3,23.3,6.6,23.3h3c1.6,0,3-1.2,3-2.6v-41.5
						C387.2,120.8,385.9,119.6,384.2,119.6z"/>
					<path class="st143" d="M384.2,119.7h-2.9c-5.2,0-6.5,16.9-6.5,23.3c0,6.4,1.3,23.3,6.5,23.3h2.9c1.6,0,3-1.2,3-2.6v-41.4
						C387.2,120.8,385.9,119.7,384.2,119.7z"/>
					<path class="st144" d="M384.3,119.7h-2.9c-5.1,0-6.4,16.8-6.4,23.2s1.2,23.2,6.4,23.2h2.9c1.6,0,2.9-1.1,2.9-2.6v-41.3
						C387.2,120.9,385.9,119.7,384.3,119.7z"/>
					<path class="st145" d="M384.3,119.8h-2.9c-5.1,0-6.3,16.8-6.3,23.1s1.2,23.1,6.3,23.1h2.9c1.6,0,2.9-1.1,2.9-2.5v-41.2
						C387.2,121,385.9,119.8,384.3,119.8z"/>
					<path class="st146" d="M384.3,119.9h-2.9c-5.1,0-6.2,16.8-6.2,23.1s1.2,23.1,6.2,23.1h2.9c1.6,0,2.9-1.1,2.9-2.5v-41.1
						C387.2,121,385.9,119.9,384.3,119.9z"/>
					<path class="st5" d="M384.3,119.9h-2.9c-5,0-6.1,16.8-6.1,23s1.1,23,6.1,23h2.9c1.6,0,2.9-1.1,2.9-2.5v-40.9
						C387.2,121.1,385.9,119.9,384.3,119.9z"/>
					<path class="st147" d="M384.3,120h-2.8c-5,0-6.1,16.7-6.1,22.9s1.1,22.9,6.1,22.9h2.8c1.6,0,2.9-1.1,2.9-2.5v-40.8
						C387.2,121.1,385.9,120,384.3,120z"/>
					<path class="st148" d="M384.4,120.1h-2.8c-5,0-6,16.7-6,22.8c0,6.2,1,22.8,6,22.8h2.8c1.6,0,2.8-1.1,2.8-2.5v-40.6
						C387.2,121.2,385.9,120.1,384.4,120.1z"/>
					<path class="st1" d="M384.4,120.2h-2.8c-4.9,0-5.9,16.7-5.9,22.8s1,22.8,5.9,22.8h2.8c1.6,0,2.8-1.1,2.8-2.5v-40.7
						C387.2,121.3,385.9,120.2,384.4,120.2z"/>
					<path class="st149" d="M384.4,120.2h-2.8c-4.9,0-5.8,16.6-5.8,22.7c0,6.1,0.9,22.7,5.8,22.7h2.8c1.5,0,2.8-1.1,2.8-2.5v-40.5
						C387.2,121.3,385.9,120.2,384.4,120.2z"/>
					<path class="st150" d="M384.4,120.3h-2.8c-4.9,0-5.7,16.6-5.7,22.6s0.9,22.6,5.7,22.6h2.8c1.5,0,2.8-1.1,2.8-2.4v-40.4
						C387.2,121.4,386,120.3,384.4,120.3z"/>
					<path class="st42" d="M384.4,120.4h-2.7c-4.8,0-5.6,16.6-5.6,22.6s0.8,22.6,5.6,22.6h2.7c1.5,0,2.8-1.1,2.8-2.4v-40.3
						C387.2,121.4,386,120.4,384.4,120.4z"/>
					<path class="st151" d="M384.5,120.4h-2.7c-4.8,0-5.6,16.5-5.6,22.5s0.8,22.5,5.6,22.5h2.7c1.5,0,2.7-1.1,2.7-2.4v-40.2
						C387.2,121.5,386,120.4,384.5,120.4z"/>
					<path class="st47" d="M384.5,120.5h-2.7c-4.8,0-5.5,16.5-5.5,22.4s0.7,22.4,5.5,22.4h2.7c1.5,0,2.7-1.1,2.7-2.4v-40.1
						C387.2,121.6,386,120.5,384.5,120.5z"/>
					<path class="st152" d="M384.5,120.6h-2.7c-4.7,0-5.4,16.5-5.4,22.3c0,5.9,0.7,22.3,5.4,22.3h2.7c1.5,0,2.7-1.1,2.7-2.4v-39.9
						C387.2,121.6,386,120.6,384.5,120.6z"/>
					<path class="st153" d="M384.5,120.6h-2.7c-4.7,0-5.3,16.4-5.3,22.3c0,5.8,0.6,22.3,5.3,22.3h2.7c1.5,0,2.7-1.1,2.7-2.4V123
						C387.2,121.7,386,120.6,384.5,120.6z"/>
					<path class="st154" d="M384.5,120.7h-2.6c-4.7,0-5.2,16.4-5.2,22.2s0.6,22.2,5.2,22.2h2.6c1.5,0,2.7-1,2.7-2.3v-39.7
						C387.2,121.8,386,120.7,384.5,120.7z"/>
					<path class="st155" d="M384.6,120.8H382c-4.6,0-5.1,16.4-5.1,22.1c0,5.8,0.5,22.1,5.1,22.1h2.6c1.5,0,2.6-1,2.6-2.3v-39.6
						C387.2,121.8,386,120.8,384.6,120.8z"/>
					<path class="st59" d="M384.6,120.8H382c-4.6,0-5.1,16.3-5.1,22.1c0,5.7,0.5,22.1,5.1,22.1h2.6c1.5,0,2.6-1,2.6-2.3v-39.5
						C387.2,121.9,386,120.8,384.6,120.8z"/>
					<path class="st156" d="M384.6,120.9H382c-4.5,0-5,16.3-5,22s0.5,22,5,22h2.6c1.4,0,2.6-1,2.6-2.3v-39.4
						C387.2,121.9,386,120.9,384.6,120.9z"/>
					<path class="st58" d="M384.6,121H382c-4.5,0-5,16.3-5,21.9c0,5.7,0.5,21.9,5,21.9h2.6c1.4,0,2.6-1,2.6-2.3v-39.3
						C387.2,122,386,121,384.6,121z"/>
					<path class="st157" d="M384.6,121h-2.5c-4.5,0-5,16.3-5,21.9c0,5.6,0.5,21.9,5,21.9h2.5c1.4,0,2.6-1,2.6-2.3v-39.2
						C387.2,122.1,386.1,121,384.6,121z"/>
					<path class="st57" d="M384.7,121.1h-2.5c-4.4,0-4.9,16.2-4.9,21.8s0.5,21.8,4.9,21.8h2.5c1.4,0,2.5-1,2.5-2.3v-39.1
						C387.2,122.1,386.1,121.1,384.7,121.1z"/>
					<path class="st155" d="M384.7,121.2h-2.5c-4.4,0-4.9,16.2-4.9,21.7s0.5,21.7,4.9,21.7h2.5c1.4,0,2.5-1,2.5-2.2v-39
						C387.2,122.2,386.1,121.2,384.7,121.2z"/>
					<path class="st56" d="M384.7,121.2h-2.5c-4.4,0-4.9,16.2-4.9,21.7s0.5,21.7,4.9,21.7h2.5c1.4,0,2.5-1,2.5-2.2v-38.9
						C387.2,122.2,386.1,121.2,384.7,121.2z"/>
					<path class="st158" d="M384.7,121.3h-2.5c-4.3,0-4.9,16.1-4.9,21.6s0.5,21.6,4.9,21.6h2.5c1.4,0,2.5-1,2.5-2.2v-38.8
						C387.2,122.3,386.1,121.3,384.7,121.3z"/>
					<path class="st55" d="M384.7,121.4h-2.4c-4.3,0-4.8,16.1-4.8,21.5s0.5,21.5,4.8,21.5h2.4c1.4,0,2.5-1,2.5-2.2v-38.6
						C387.2,122.4,386.1,121.4,384.7,121.4z"/>
					<path class="st154" d="M384.8,121.5h-2.4c-4.3,0-4.8,16.1-4.8,21.5s0.5,21.5,4.8,21.5h2.4c1.4,0,2.4-1,2.4-2.2v-38.7
						C387.2,122.4,386.1,121.5,384.8,121.5z"/>
					<path class="st54" d="M384.8,121.5h-2.4c-4.2,0-4.8,16-4.8,21.4s0.5,21.4,4.8,21.4h2.4c1.3,0,2.4-1,2.4-2.2v-38.5
						C387.2,122.5,386.1,121.5,384.8,121.5z"/>
					<path class="st53" d="M384.8,121.6h-2.4c-4.2,0-4.7,16-4.7,21.3s0.5,21.3,4.7,21.3h2.4c1.3,0,2.4-1,2.4-2.1v-38.4
						C387.2,122.6,386.1,121.6,384.8,121.6z"/>
					<path class="st159" d="M384.8,121.7h-2.4c-4.2,0-4.7,16-4.7,21.3s0.5,21.3,4.7,21.3h2.4c1.3,0,2.4-1,2.4-2.1v-38.3
						C387.2,122.6,386.1,121.7,384.8,121.7z"/>
					<path class="st52" d="M384.8,121.7h-2.4c-4.1,0-4.7,16-4.7,21.2s0.5,21.2,4.7,21.2h2.4c1.3,0,2.4-0.9,2.4-2.1v-38.2
						C387.2,122.7,386.1,121.7,384.8,121.7z"/>
					<path class="st153" d="M384.8,121.8h-2.3c-4.1,0-4.6,15.9-4.6,21.1c0,5.2,0.5,21.1,4.6,21.1h2.3c1.3,0,2.4-0.9,2.4-2.1v-38.1
						C387.2,122.7,386.1,121.8,384.8,121.8z"/>
					<path class="st51" d="M384.9,121.9h-2.3c-4.1,0-4.6,15.9-4.6,21.1c0,5.2,0.5,21.1,4.6,21.1h2.3c1.3,0,2.3-0.9,2.3-2.1v-38
						C387.2,122.8,386.2,121.9,384.9,121.9z"/>
					<path class="st160" d="M384.9,121.9h-2.3c-4,0-4.6,15.9-4.6,21s0.6,21,4.6,21h2.3c1.3,0,2.3-0.9,2.3-2.1v-37.9
						C387.2,122.9,386.2,121.9,384.9,121.9z"/>
					<path class="st50" d="M384.9,122h-2.3c-4,0-4.6,15.8-4.6,20.9c0,5.1,0.6,20.9,4.6,20.9h2.3c1.3,0,2.3-0.9,2.3-2.1V124
						C387.2,122.9,386.2,122,384.9,122z"/>
					<path class="st152" d="M384.9,122.1h-2.3c-4,0-4.5,15.8-4.5,20.9c0,5.1,0.6,20.8,4.5,20.8h2.3c1.3,0,2.3-0.9,2.3-2v-37.6
						C387.2,123,386.2,122.1,384.9,122.1z"/>
					<path class="st49" d="M384.9,122.1h-2.2c-3.9,0-4.5,15.8-4.5,20.8s0.6,20.8,4.5,20.8h2.2c1.2,0,2.3-0.9,2.3-2v-37.5
						C387.2,123,386.2,122.1,384.9,122.1z"/>
					<path class="st161" d="M385,122.2h-2.2c-3.9,0-4.5,15.8-4.5,20.8s0.6,20.7,4.5,20.7h2.2c1.2,0,2.2-0.9,2.2-2v-37.4
						C387.2,123.1,386.2,122.2,385,122.2z"/>
					<path class="st48" d="M385,122.3h-2.2c-3.9,0-4.4,15.7-4.4,20.7s0.6,20.6,4.4,20.6h2.2c1.2,0,2.2-0.9,2.2-2v-37.3
						C387.2,123.2,386.2,122.3,385,122.3z"/>
					<path class="st162" d="M385,122.3h-2.2c-3.8,0-4.4,15.7-4.4,20.6c0,4.9,0.6,20.6,4.4,20.6h2.2c1.2,0,2.2-0.9,2.2-2v-37.2
						C387.2,123.2,386.2,122.3,385,122.3z"/>
					<path class="st47" d="M385,122.4h-2.2c-3.8,0-4.4,15.7-4.4,20.6c0,4.9,0.6,20.5,4.4,20.5h2.2c1.2,0,2.2-0.9,2.2-2v-37.1
						C387.2,123.3,386.2,122.4,385,122.4z"/>
					<path class="st163" d="M385,122.5h-2.1c-3.8,0-4.4,15.6-4.4,20.5c0,4.8,0.6,20.4,4.4,20.4h2.1c1.2,0,2.2-0.9,2.2-2v-37
						C387.2,123.3,386.2,122.5,385,122.5z"/>
					<path class="st46" d="M385.1,122.5H383c-3.7,0-4.3,15.6-4.3,20.4c0,4.8,0.6,20.4,4.3,20.4h2.1c1.2,0,2.1-0.9,2.1-1.9v-36.9
						C387.2,123.4,386.2,122.5,385.1,122.5z"/>
					<path class="st164" d="M385.1,122.6H383c-3.7,0-4.3,15.6-4.3,20.4c0,4.8,0.6,20.3,4.3,20.3h2.1c1.2,0,2.1-0.9,2.1-1.9v-36.8
						C387.2,123.5,386.3,122.6,385.1,122.6z"/>
				</g>
				<g>
					<g>
						<rect x="383.4" y="114.6" class="st165" width="0.2" height="56.6"/>
					</g>
					<g class="st166">
						<rect x="383.6" y="114.6" class="st167" width="0.1" height="56.6"/>
					</g>
					<g class="st166">
						<rect x="383.3" y="114.6" class="st168" width="0.1" height="56.6"/>
					</g>
				</g>
			</g>
		</g>
	</g>
	<g>
		<g>
			<g>
				<g>
					<defs>
						<path id="SVGID_00000039827788652894568670000006484450111415234725_" d="M104.1,388.1c-24.3,0-44-19.7-44-44V83.4
							c0-24.3,19.7-44,44-44h206.8c24.3,0,44,19.7,44,44v260.7c0,24.3-19.7,44-44,44H104.1z"/>
					</defs>
					<clipPath id="SVGID_00000152225091052119380950000005706507364040939186_">
						<use xlink:href="#SVGID_00000039827788652894568670000006484450111415234725_"  style="overflow:visible;"/>
					</clipPath>
					
						<linearGradient id="SVGID_00000059271393497805497740000018277339600014008986_" gradientUnits="userSpaceOnUse" x1="44.0505" y1="54.3505" x2="361.4005" y2="371.7005" gradientTransform="matrix(1 0 0 -1 0 427.151)">
						<stop  offset="0" style="stop-color:#EFFF00"/>
						<stop  offset="1" style="stop-color:#FF07F9"/>
					</linearGradient>
					
						<path style="clip-path:url(#SVGID_00000152225091052119380950000005706507364040939186_);fill:url(#SVGID_00000059271393497805497740000018277339600014008986_);" d="
						M309.5,400.4H95.9c-32.4,0-58.6-26.2-58.6-58.6V86.5c0-32.4,26.2-58.6,58.6-58.6h213.6c32.4,0,58.6,26.2,58.6,58.6v255.3
						C368.1,374.2,341.9,400.4,309.5,400.4z"/>
				</g>
			</g>
		</g>
	</g>
</g>
</svg>
