<?xml version="1.0" encoding="utf-8"?>
<!-- Generator: Adobe Illustrator 24.1.0, SVG Export Plug-In . SVG Version: 6.00 Build 0)  -->
<svg version="1.1" id="Layer_1" xmlns="http://www.w3.org/2000/svg" xmlns:xlink="http://www.w3.org/1999/xlink" x="0px" y="0px"
	 viewBox="0 0 24 24" style="enable-background:new 0 0 24 24;" xml:space="preserve">
<style type="text/css">
	.st0{fill-rule:evenodd;clip-rule:evenodd;fill:#FFFFFF;}
</style>
<path d="M19.32,21.92H4.68c-0.85,0-1.53-0.69-1.53-1.53V3.62c0-0.85,0.69-1.53,1.53-1.53h14.65c0.85,0,1.53,0.69,1.53,1.53v16.77
	C20.86,21.23,20.17,21.92,19.32,21.92z"/>
<path class="st0" d="M4.56,3.23h14.88c0.38,0,0.69,0.32,0.69,0.71v16.12c0,0.39-0.31,0.71-0.69,0.71H4.56
	c-0.38,0-0.69-0.32-0.69-0.71V3.94C3.87,3.55,4.18,3.23,4.56,3.23z"/>
<g>
	<path class="st0" d="M13.37,2.83H9.65c-0.08,0-0.14-0.06-0.14-0.14V2.67c0-0.08,0.06-0.14,0.14-0.14h3.72
		c0.08,0,0.14,0.06,0.14,0.14V2.7C13.51,2.77,13.45,2.83,13.37,2.83z"/>
	<circle class="st0" cx="14.34" cy="2.68" r="0.15"/>
</g>
<circle class="st0" cx="12" cy="21.36" r="0.29"/>
</svg>
