<?xml version="1.0" encoding="utf-8"?>
<!-- Generator: Adobe Illustrator 24.1.0, SVG Export Plug-In . SVG Version: 6.00 Build 0)  -->
<svg version="1.1" id="Layer_1" xmlns="http://www.w3.org/2000/svg" xmlns:xlink="http://www.w3.org/1999/xlink" x="0px" y="0px"
	 viewBox="0 0 24 24" style="enable-background:new 0 0 24 24;" xml:space="preserve">
<style type="text/css">
	.st0{fill-rule:evenodd;clip-rule:evenodd;fill:#FFFFFF;}
	.st1{fill-rule:evenodd;clip-rule:evenodd;fill:#404040;}
</style>
<path class="st0" d="M19.28,15H4.72C4.32,15,4,14.68,4,14.28V4.72C4,4.32,4.32,4,4.72,4h14.57C19.68,4,20,4.32,20,4.72v9.57
	C20,14.68,19.68,15,19.28,15z"/>
<path class="st1" d="M20.06,4.4c0-0.11-0.04-0.21-0.12-0.28C19.87,4.04,19.76,4,19.66,4C17.43,4,6.57,4,4.34,4
	C4.24,4,4.13,4.04,4.06,4.12C3.98,4.19,3.94,4.29,3.94,4.4c0,1.73,0,8.62,0,10.35c0,0.11,0.04,0.21,0.12,0.28
	c0.07,0.07,0.18,0.12,0.28,0.12c2.23,0,13.09,0,15.32,0c0.11,0,0.21-0.04,0.28-0.12c0.07-0.07,0.12-0.18,0.12-0.28
	C20.06,13.02,20.06,6.13,20.06,4.4L20.06,4.4z M4.58,14.51h14.84V4.64H4.58L4.58,14.51L4.58,14.51z"/>
<path class="st1" d="M23.09,18.86H0.91c0,0,0,0,0,0c0,0.12,0.05,0.24,0.14,0.33c0.09,0.09,0.21,0.14,0.33,0.14
	c2.9,0,18.35,0,21.24,0c0.12,0,0.24-0.05,0.33-0.14C23.04,19.1,23.09,18.99,23.09,18.86C23.09,18.86,23.09,18.86,23.09,18.86
	L23.09,18.86z"/>
<path class="st1" d="M1.15,18.7c-0.1,0-0.18-0.06-0.22-0.15c-0.04-0.09-0.02-0.19,0.05-0.26c0.71-0.72,2.16-2.18,2.73-2.75
	c0.15-0.15,0.35-0.24,0.57-0.24c2.09,0,13.36,0,15.45,0c0.21,0,0.42,0.09,0.57,0.24c0.57,0.57,2.02,2.04,2.73,2.75
	c0.07,0.07,0.09,0.17,0.05,0.26c-0.04,0.09-0.12,0.15-0.22,0.15C19.68,18.7,4.32,18.7,1.15,18.7L1.15,18.7z M14.07,17.08
	C14.05,17.03,14,17,13.95,17c-0.54,0-3.35,0-3.89,0c-0.05,0-0.1,0.03-0.12,0.08c-0.09,0.23-0.36,0.9-0.47,1.18
	c-0.01,0.03-0.01,0.06,0.01,0.08c0.02,0.02,0.04,0.04,0.07,0.04c0.72,0,4.2,0,4.92,0c0.03,0,0.06-0.01,0.07-0.04
	c0.02-0.02,0.02-0.05,0.01-0.08C14.43,17.98,14.16,17.32,14.07,17.08L14.07,17.08z M4.81,16.35H5.4l-0.18,0.24h-0.6L4.81,16.35
	L4.81,16.35z M6.9,16.59H6.27l0.18-0.24h0.62L6.9,16.59L6.9,16.59z M8.61,16.59H8.04l0.15-0.24h0.58L8.61,16.59L8.61,16.59z
	 M9.67,16.59l0.12-0.24h4.42l0.12,0.24H9.67L9.67,16.59z M9.44,16.59H8.85L9,16.35h0.56L9.44,16.59L9.44,16.59z M7.8,16.59H7.14
	l0.17-0.24h0.65L7.8,16.59L7.8,16.59z M6.03,16.59H5.46l0.18-0.24h0.58L6.03,16.59L6.03,16.59z M15.39,16.59h0.57l-0.15-0.24h-0.58
	L15.39,16.59L15.39,16.59z M14.56,16.59h0.58L15,16.35h-0.56L14.56,16.59L14.56,16.59z M16.2,16.59h0.66l-0.17-0.24h-0.65
	L16.2,16.59L16.2,16.59z M17.97,16.59h0.57l-0.18-0.24h-0.58L17.97,16.59L17.97,16.59z M19.19,16.35H18.6l0.18,0.24h0.6L19.19,16.35
	L19.19,16.35z M17.1,16.59h0.63l-0.18-0.24h-0.62L17.1,16.59L17.1,16.59z M7.17,16.21H6.55l0.19-0.25h0.61L7.17,16.21L7.17,16.21z
	 M8.04,16.21H7.4l0.18-0.25h0.63L8.04,16.21L8.04,16.21z M8.86,16.21H8.28l0.16-0.25h0.59L8.86,16.21L8.86,16.21z M9.63,16.21H9.09
	l0.16-0.25h0.51L9.63,16.21L9.63,16.21z M10.35,16.21H9.86l0.12-0.25h0.46L10.35,16.21L10.35,16.21z M11.13,16.21H10.6l0.09-0.25
	h0.51L11.13,16.21L11.13,16.21z M11.91,16.21h-0.52l0.05-0.25h0.47V16.21L11.91,16.21z M17.68,16.21h1.39l-0.21-0.25h-1.38
	L17.68,16.21L17.68,16.21z M16.83,16.21h0.62l-0.19-0.25h-0.61L16.83,16.21L16.83,16.21z M15.96,16.21h0.65l-0.18-0.25h-0.63
	L15.96,16.21L15.96,16.21z M15.14,16.21h0.58l-0.16-0.25h-0.59L15.14,16.21L15.14,16.21z M14.37,16.21h0.54l-0.16-0.25h-0.51
	L14.37,16.21L14.37,16.21z M13.65,16.21h0.49l-0.12-0.25h-0.46L13.65,16.21L13.65,16.21z M12.87,16.21h0.53l-0.09-0.25h-0.51
	L12.87,16.21L12.87,16.21z M12.09,16.21h0.52l-0.05-0.25h-0.47V16.21L12.09,16.21z M4.92,16.21l0.21-0.25h1.38l-0.19,0.25H4.92
	L4.92,16.21z M7.45,15.82H6.84l0.18-0.24h0.61L7.45,15.82L7.45,15.82z M8.3,15.82H7.67l0.17-0.24h0.61L8.3,15.82L8.3,15.82z
	 M9.83,15.82h-0.5l0.15-0.24h0.47L9.83,15.82L9.83,15.82z M10.49,15.82h-0.44l0.12-0.24h0.42L10.49,15.82L10.49,15.82z M11.23,15.82
	h-0.49l0.08-0.24h0.46L11.23,15.82L11.23,15.82z M5.98,15.58L5.8,15.82H5.24l0.2-0.24H5.98L5.98,15.58z M6.61,15.82H6.02l0.18-0.24
	h0.6L6.61,15.82L6.61,15.82z M9.11,15.82H8.52l0.15-0.24h0.6L9.11,15.82L9.11,15.82z M18.02,15.58l0.18,0.24h0.56l-0.2-0.24H18.02
	L18.02,15.58z M16.55,15.82h0.61l-0.18-0.24h-0.61L16.55,15.82L16.55,15.82z M15.7,15.82h0.63l-0.17-0.24h-0.61L15.7,15.82
	L15.7,15.82z M11.91,15.82h-0.44l0.05-0.24h0.39V15.82L11.91,15.82z M14.17,15.82h0.5l-0.15-0.24h-0.47L14.17,15.82L14.17,15.82z
	 M13.51,15.82h0.44l-0.12-0.24h-0.42L13.51,15.82L13.51,15.82z M12.77,15.82h0.49l-0.08-0.24h-0.46L12.77,15.82L12.77,15.82z
	 M12.09,15.82h0.44l-0.05-0.24h-0.39V15.82L12.09,15.82z M17.39,15.82h0.59l-0.18-0.24h-0.6L17.39,15.82L17.39,15.82z M14.89,15.82
	h0.59l-0.15-0.24h-0.6L14.89,15.82L14.89,15.82z"/>
</svg>
