<?xml version="1.0" encoding="utf-8"?>
<!-- Generator: Adobe Illustrator 24.1.0, SVG Export Plug-In . SVG Version: 6.00 Build 0)  -->
<svg version="1.1" id="Layer_1" xmlns="http://www.w3.org/2000/svg" xmlns:xlink="http://www.w3.org/1999/xlink" x="0px" y="0px"
	 viewBox="0 0 24 24" style="enable-background:new 0 0 24 24;" xml:space="preserve">
<style type="text/css">
	.st0{fill:none;stroke:#000000;stroke-width:0.5;stroke-miterlimit:10;}
</style>
<g>
	<path class="st0" d="M15.7,2.3c-0.1-0.7-0.7-1.2-1.5-1.2H9.7C9,1.1,8.4,1.6,8.3,2.3L7.8,5h8.4L15.7,2.3z"/>
	<path class="st0" d="M8.3,21.7c0.1,0.7,0.7,1.2,1.5,1.2h4.5c0.7,0,1.4-0.5,1.5-1.2l0.4-2.6H7.8L8.3,21.7z"/>
	<path class="st0" d="M16.3,6.2H7.7c-0.8,0-1.5,0.7-1.5,1.5v8.5c0,0.8,0.7,1.5,1.5,1.5h8.5c0.8,0,1.5-0.7,1.5-1.5V7.7
		C17.8,6.9,17.1,6.2,16.3,6.2z M15,15.1c-0.1,0.1-0.3,0.2-0.5,0.2s-0.3-0.1-0.5-0.2l-2.6-2.6c-0.1-0.1-0.2-0.3-0.2-0.5V9.5
		c0-0.4,0.3-0.6,0.6-0.6s0.6,0.3,0.6,0.6v2.3l2.4,2.4C15.3,14.4,15.3,14.8,15,15.1z"/>
</g>
</svg>
