<?xml version="1.0" encoding="utf-8"?>
<!-- Generator: Adobe Illustrator 24.1.0, SVG Export Plug-In . SVG Version: 6.00 Build 0)  -->
<svg version="1.1" id="Layer_1" xmlns="http://www.w3.org/2000/svg" xmlns:xlink="http://www.w3.org/1999/xlink" x="0px" y="0px"
	 viewBox="0 0 24 24" style="enable-background:new 0 0 24 24;" xml:space="preserve">
<style type="text/css">
	.st0{fill:#404040;}
</style>
<g>
	<g>
		<g>
			<g>
				<path class="st0" d="M11.6,8.39h-0.76c-0.47,0-0.85-0.38-0.85-0.85V2.79c0-0.47,0.38-0.85,0.85-0.85h0.66
					c0.8,0,1.57,0.28,2.18,0.79c0.62,0.52,1.02,1.23,1.12,2.02c0.06,0.48,0.02,0.94-0.12,1.39c-0.14,0.43-0.36,0.82-0.66,1.16
					C13.41,7.99,12.52,8.39,11.6,8.39z M10.84,2.44c-0.19,0-0.35,0.16-0.35,0.35v4.76c0,0.19,0.16,0.35,0.35,0.35h0.76
					c0.78,0,1.53-0.34,2.05-0.93c0.53-0.6,0.76-1.37,0.66-2.16c-0.17-1.35-1.38-2.37-2.81-2.37H10.84z"/>
			</g>
			<g>
				<g>
					<path class="st0" d="M8.23,8.7c-0.29,0-0.55-0.05-0.86-0.17c-0.27-0.1-0.7-0.28-0.71-0.28C6.54,8.2,6.48,8.06,6.53,7.93
						C6.58,7.81,6.72,7.75,6.85,7.8c0,0,0.43,0.17,0.7,0.27C7.8,8.17,8,8.21,8.23,8.21c0.97,0,1.76-0.79,1.76-1.76
						c0-0.14,0.11-0.25,0.25-0.25s0.25,0.11,0.25,0.25C10.48,7.69,9.47,8.7,8.23,8.7z"/>
				</g>
				<g>
					<path class="st0" d="M6.02,14.12c-0.25,0-0.5-0.06-0.71-0.16c-0.57-0.27-0.94-0.86-0.94-1.49v-5C3.53,7.02,3,6.13,3,5.17
						c0-1.45,1.17-2.62,2.62-2.62h0.81c0.42-0.57,1.09-0.91,1.81-0.91c1.24,0,2.25,1.01,2.25,2.25c0,0.14-0.11,0.25-0.25,0.25
						S9.99,4.02,9.99,3.88c0-0.97-0.79-1.75-1.76-1.75c-0.6,0-1.14,0.3-1.47,0.8C6.72,3,6.64,3.04,6.56,3.04H5.62
						c-1.17,0-2.12,0.95-2.12,2.13c0,0.82,0.48,1.58,1.23,1.92c0.09,0.04,0.14,0.13,0.14,0.22v5.15c0,0.44,0.26,0.85,0.66,1.04
						c0,0,0,0,0.01,0c0.14,0.07,0.31,0.11,0.49,0.11c0.18,0,0.34-0.04,0.49-0.11c0,0,0,0,0.01,0c0.4-0.19,0.66-0.6,0.66-1.04V8.3
						c0-0.14,0.11-0.25,0.25-0.25c0.14,0,0.25,0.11,0.25,0.25v4.17c0,0.63-0.37,1.22-0.94,1.49C6.52,14.06,6.28,14.12,6.02,14.12z"
						/>
				</g>
				<g>
					<path class="st0" d="M4.3,6C4.2,6,4.11,5.94,4.07,5.84c-0.1-0.24-0.15-0.5-0.13-0.77c0.04-0.69,0.48-1.3,1.14-1.54
						C5.21,3.49,5.35,3.55,5.4,3.68C5.44,3.81,5.38,3.95,5.25,4C4.78,4.17,4.46,4.61,4.44,5.1C4.43,5.3,4.46,5.48,4.53,5.65
						C4.58,5.78,4.52,5.92,4.4,5.98C4.37,5.99,4.33,6,4.3,6z"/>
				</g>
				<g>
					<path class="st0" d="M5.5,12.49c-0.14,0-0.25-0.11-0.25-0.25v-2.11c0-0.14,0.11-0.25,0.25-0.25c0.14,0,0.25,0.11,0.25,0.25
						v2.11C5.75,12.38,5.64,12.49,5.5,12.49z"/>
				</g>
			</g>
		</g>
		<g>
			<path class="st0" d="M11.38,7.36c-0.14,0-0.25-0.11-0.25-0.25V2.38c0-0.14,0.11-0.25,0.25-0.25s0.25,0.11,0.25,0.25v4.73
				C11.62,7.25,11.51,7.36,11.38,7.36z"/>
		</g>
	</g>
	<g>
		<g>
			<g>
				<path class="st0" d="M13.16,16.64H12.4c-0.93,0-1.81-0.4-2.42-1.1c-0.3-0.34-0.52-0.73-0.66-1.16
					c-0.14-0.45-0.18-0.92-0.12-1.39c0.1-0.78,0.5-1.5,1.12-2.01c0.61-0.51,1.39-0.79,2.18-0.79h0.66c0.47,0,0.85,0.38,0.85,0.85
					v4.76C14.01,16.26,13.63,16.64,13.16,16.64z M12.51,10.68c-1.43,0-2.64,1.02-2.81,2.37c-0.1,0.8,0.13,1.56,0.66,2.16
					c0.52,0.59,1.27,0.93,2.05,0.93h0.76c0.19,0,0.35-0.16,0.35-0.35v-4.76c0-0.19-0.16-0.35-0.35-0.35H12.51z"/>
			</g>
			<g>
				<g>
					<path class="st0" d="M15.77,16.94c-1.24,0-2.25-1.01-2.25-2.25c0-0.14,0.11-0.25,0.25-0.25c0.14,0,0.25,0.11,0.25,0.25
						c0,0.97,0.79,1.76,1.76,1.76c0.23,0,0.43-0.04,0.68-0.14c0.27-0.1,0.69-0.27,0.7-0.27c0.13-0.05,0.27,0.01,0.32,0.14
						c0.05,0.13-0.01,0.27-0.14,0.32c0,0-0.43,0.17-0.71,0.28C16.32,16.89,16.06,16.94,15.77,16.94z"/>
				</g>
				<g>
					<path class="st0" d="M17.98,22.37c-0.25,0-0.5-0.06-0.71-0.16c-0.57-0.27-0.94-0.86-0.94-1.49v-4.17
						c0-0.14,0.11-0.25,0.25-0.25c0.14,0,0.25,0.11,0.25,0.25v4.17c0,0.44,0.26,0.85,0.66,1.04c0,0,0,0,0.01,0
						c0.14,0.07,0.31,0.11,0.49,0.11c0.18,0,0.34-0.04,0.49-0.11c0,0,0,0,0.01,0c0.4-0.19,0.66-0.6,0.66-1.04v-5.15
						c0-0.1,0.06-0.18,0.14-0.22c0.75-0.34,1.23-1.1,1.23-1.92c0-1.17-0.95-2.13-2.12-2.13h-0.94c-0.08,0-0.16-0.04-0.21-0.11
						c-0.32-0.5-0.87-0.8-1.47-0.8c-0.97,0-1.76,0.79-1.76,1.75c0,0.14-0.11,0.25-0.25,0.25c-0.14,0-0.25-0.11-0.25-0.25
						c0-1.24,1.01-2.25,2.25-2.25c0.72,0,1.38,0.34,1.81,0.91h0.81c1.44,0,2.62,1.18,2.62,2.62c0,0.96-0.53,1.85-1.37,2.3v5
						c0,0.63-0.37,1.22-0.94,1.49C18.48,22.31,18.23,22.37,17.98,22.37z"/>
				</g>
				<g>
					<path class="st0" d="M19.7,14.24c-0.03,0-0.06-0.01-0.1-0.02c-0.13-0.05-0.19-0.2-0.13-0.32c0.07-0.17,0.1-0.36,0.09-0.55
						c-0.03-0.5-0.35-0.93-0.82-1.11c-0.13-0.05-0.19-0.19-0.15-0.32c0.05-0.13,0.19-0.19,0.32-0.15c0.65,0.24,1.1,0.85,1.14,1.54
						c0.01,0.27-0.03,0.52-0.13,0.77C19.89,14.18,19.8,14.24,19.7,14.24z"/>
				</g>
				<g>
					<path class="st0" d="M18.5,20.74c-0.14,0-0.25-0.11-0.25-0.25v-2.11c0-0.14,0.11-0.25,0.25-0.25c0.14,0,0.25,0.11,0.25,0.25
						v2.11C18.75,20.63,18.63,20.74,18.5,20.74z"/>
				</g>
			</g>
		</g>
		<g>
			<path class="st0" d="M12.62,15.6c-0.14,0-0.25-0.11-0.25-0.25v-4.73c0-0.14,0.11-0.25,0.25-0.25c0.14,0,0.25,0.11,0.25,0.25v4.73
				C12.87,15.49,12.76,15.6,12.62,15.6z"/>
		</g>
	</g>
</g>
</svg>
