<?xml version="1.0" encoding="utf-8"?>
<!-- Generator: Adobe Illustrator 24.1.0, SVG Export Plug-In . SVG Version: 6.00 Build 0)  -->
<svg version="1.1" id="Layer_1" xmlns="http://www.w3.org/2000/svg" xmlns:xlink="http://www.w3.org/1999/xlink" x="0px" y="0px"
	 viewBox="0 0 24 24" style="enable-background:new 0 0 24 24;" xml:space="preserve">
<style type="text/css">
	.st0{fill:#404040;}
</style>
<path class="st0" d="M16.9,2.3h-9c-0.6,0-1.1,0.5-1.1,1v17.5c0,0.6,0.5,1,1.1,1h9c0.6,0,1.1-0.5,1.1-1V3.3C18,2.8,17.5,2.3,16.9,2.3
	z M17.3,19.9H7.5V4.2h9.9V19.9z"/>
<g>
	<g>
		<path class="st0" d="M11.1,16.5l0-0.4c0,0,0-0.1,0.1-0.1h0.4c0,0,0.1,0,0.1,0.1l0,0.4c0,0,0,0.1-0.1,0.1L11.1,16.5
			C11.1,16.6,11.1,16.6,11.1,16.5z"/>
	</g>
	<g>
		<path class="st0" d="M9,13c0-0.8,0.6-1.4,1.4-1.4l0.9,0l0,0.3l-0.9,0c-0.6,0-1.1,0.5-1.1,1.1c0,0.6,0.5,1.1,1.1,1.1l3.4,0
			c0.7,0,1.2,0.6,1.2,1.2c0,0.7-0.6,1.2-1.2,1.2l-1.8,0l0-0.3h1.8c0.5,0,0.9-0.4,0.9-0.9c0-0.5-0.4-0.9-0.9-0.9h-3.4
			C9.6,14.4,9,13.8,9,13z"/>
	</g>
	<g>
		<path class="st0" d="M10.9,12.2l0-0.9c0-0.1,0.1-0.2,0.2-0.2h0.7l0,1.2l-0.7,0C11,12.4,10.9,12.3,10.9,12.2z"/>
	</g>
	<g>
		<g>
			<g>
				<g>
					<g>
						<path class="st0" d="M12.2,7.5l0,1h0.4v-1c0-0.1-0.1-0.2-0.2-0.2h0C12.2,7.3,12.2,7.4,12.2,7.5z"/>
					</g>
				</g>
			</g>
		</g>
		<g>
			<g>
				<g>
					<g>
						<path class="st0" d="M13.7,7.5l0,1h0.4v-1c0-0.1-0.1-0.2-0.2-0.2h0C13.8,7.3,13.7,7.4,13.7,7.5z"/>
					</g>
				</g>
			</g>
		</g>
	</g>
	<path class="st0" d="M14.4,9.6V8.6c0-0.1-0.1-0.2-0.2-0.2H12c-0.1,0-0.2,0.1-0.2,0.2v0.9H14.4z"/>
	<path class="st0" d="M14.5,9.7h-2.7c-0.1,0-0.2,0.1-0.2,0.2v2.8c0,0.2,0.2,0.4,0.4,0.4h2.3c0.2,0,0.4-0.2,0.4-0.4l0-2.8
		C14.6,9.8,14.6,9.7,14.5,9.7z M12.9,12.4l0.2-1h-0.6l0.3-1.1h0.6l-0.2,0.8h0.6L12.9,12.4z"/>
	<g>
		<path class="st0" d="M11.3,16.6l0-0.5c0-0.1,0-0.1,0.1-0.1h0.4c0.2,0,0.3,0.1,0.3,0.3v0.2c0,0.2-0.1,0.3-0.3,0.3l-0.4,0
			C11.4,16.7,11.3,16.7,11.3,16.6z"/>
	</g>
	<path class="st0" d="M11.2,12h-0.7c0,0-0.1,0-0.1-0.1v-0.3c0,0,0-0.1,0.1-0.1h0.7c0,0,0.1,0,0.1,0.1L11.2,12
		C11.2,12,11.2,12,11.2,12z"/>
</g>
</svg>
