<?xml version="1.0" encoding="UTF-8"?>
<svg width="21px" height="22px" viewBox="0 0 21 22" version="1.1" xmlns="http://www.w3.org/2000/svg" xmlns:xlink="http://www.w3.org/1999/xlink">
    <!-- Generator: Sketch 61.2 (89653) - https://sketch.com -->
    <title>icon</title>
    <desc>Created with Sketch.</desc>
    <g id="design" stroke="none" stroke-width="1" fill="none" fill-rule="evenodd">
        <g id="phone" transform="translate(-1.000000, -1.000000)">
            <g id="icon" transform="translate(1.000000, 1.000000)">
                <g id="iPhone" transform="translate(9.000000, 0.000000)">
                    <rect id="Rectangle" stroke="#404040" fill="#FFFFFF" x="0.5" y="0.5" width="11" height="21" rx="1"></rect>
                    <path d="M2,0 L10,0 L10,1 C10,1.55228475 9.55228475,2 9,2 L3,2 C2.44771525,2 2,1.55228475 2,1 L2,0 L2,0 Z" id="Rectangle" fill="#404040"></path>
                </g>
                <g id="samsung" transform="translate(0.000000, 4.000000)">
                    <path d="M1,0.5 C0.723857625,0.5 0.5,0.723857625 0.5,1 L0.5,17 C0.5,17.2761424 0.723857625,17.5 1,17.5 L10,17.5 C10.2761424,17.5 10.5,17.2761424 10.5,17 L10.5,1 C10.5,0.723857625 10.2761424,0.5 10,0.5 L1,0.5 Z" id="Rectangle" stroke="#404040" fill="#FFFFFF"></path>
                    <circle id="Oval" fill="#404040" cx="5.5" cy="2.5" r="1"></circle>
                </g>
            </g>
        </g>
    </g>
</svg>