<svg width="61" height="61" viewBox="0 0 61 61" fill="none" xmlns="http://www.w3.org/2000/svg">
<ellipse cx="30.6969" cy="30.3803" rx="29.9123" ry="30.1201" fill="white"/>
<g opacity="0.4">
<path fill-rule="evenodd" clip-rule="evenodd" d="M27.8901 25.1722C27.8901 23.3215 29.3903 21.8213 31.2409 21.8213C33.0916 21.8213 34.5918 23.3215 34.5918 25.1722C34.5918 27.0228 33.0916 28.5231 31.2409 28.5231C29.3903 28.5231 27.8901 27.0228 27.8901 25.1722ZM31.2409 19.8213C28.2857 19.8213 25.8901 22.217 25.8901 25.1722C25.8901 28.1274 28.2857 30.5231 31.2409 30.5231C34.1961 30.5231 36.5918 28.1274 36.5918 25.1722C36.5918 22.217 34.1961 19.8213 31.2409 19.8213ZM26.8901 32.8739C25.4709 32.8739 24.1099 33.4377 23.1064 34.4412C22.1029 35.4447 21.5392 36.8057 21.5392 38.2248V40.4003C21.5392 40.9526 21.9869 41.4003 22.5392 41.4003C23.0915 41.4003 23.5392 40.9526 23.5392 40.4003V38.2248C23.5392 37.3361 23.8922 36.4838 24.5206 35.8554C25.149 35.227 26.0013 34.8739 26.8901 34.8739H35.5918C36.4805 34.8739 37.3328 35.227 37.9613 35.8554C38.5897 36.4838 38.9427 37.3361 38.9427 38.2248V40.4003C38.9427 40.9526 39.3904 41.4003 39.9427 41.4003C40.495 41.4003 40.9427 40.9526 40.9427 40.4003V38.2248C40.9427 36.8057 40.379 35.4447 39.3755 34.4412C38.372 33.4377 37.011 32.8739 35.5918 32.8739H26.8901Z" fill="#07121B"/>
</g>
</svg>
